STARTFONT 2.1
COMMENT This font was automatically resized by bdfresize-1.4
COMMENT   mag_x = 3/5, mag_y = 3/5, blackness = 3
COMMENT HBF_START_FONT 1.0
COMMENT HBF_CODE_SCHEME CNS11643-1992-6
COMMENT
COMMENT   Plane 6 of CNS11643-1992
COMMENT
COMMENT	  Bitmaps provided by Central Bureau of Standards
COMMENT	  Ministry of Economy, Taiwan, ROC, March 9, 1994
COMMENT
FONT -CBS-Song-medium-r-normal-fantizi-24-240-75-75-c-240-CNS11643.1992-6
COMMENT
COMMENT An equivalent full X11R6 XLFD conforming font name is
COMMENT -CBS-Song-medium-r-normal-yitizi-40-400-75-75-c-400-CNS11643.1992.6-0
COMMENT which is formed from the first 15 properties listed in
COMMENT the STARTPROPERTIES section below.
COMMENT Any of these properties is optional, as in the simple HBF file.
COMMENT
SIZE 24 150 150
COMMENT HBF_BITMAP_BOUNDING_BOX 40 40 0 -6
FONTBOUNDINGBOX 24 24 0 -2
STARTPROPERTIES 23
FONTNAME_REGISTRY ""
FOUNDRY "CBS"
FAMILY_NAME "Song"
WEIGHT_NAME "medium"
SLANT "r"
SETWIDTH_NAME "normal"
ADD_STYLE_NAME "yitizi"
PIXEL_SIZE 24
POINT_SIZE 240
RESOLUTION_X 75
RESOLUTION_Y 75
SPACING "c"
AVERAGE_WIDTH 240
CHARS 1
CHARS 1
COPYRIGHT "1994, Central Bureau of Standards, Ministry of Economy, ROC"
WEIGHT 19329
RESOLUTION 110
X_HEIGHT 34
QUAD_WIDTH 40
FONT_ASCENT 22
FONT_DESCENT 2
DEFAULT_CHAR 32382
ENDPROPERTIES
CHARS 6389
COMMENT HBF_START_BYTE_2_RANGES 1
COMMENT HBF_BYTE_2_RANGE 0x21-0x7E
COMMENT HBF_END_BYTE_2_RANGES
COMMENT HBF_START_CODE_RANGES 1
COMMENT HBF_CODE_RANGE 0x2121-0x647A cns4040.w6.bin 0
COMMENT HBF_END_CODE_RANGES
COMMENT 
COMMENT Yi4 Ti3 Zi4, characters in different ways of writing, meant the
COMMENT ancient writings instead of the simplified writings, defined by
COMMENT Ministry of Education, and disjoint from previous planes.  Number
COMMENT of strokes <= 14.  6388 characters, 2121--647A.
COMMENT 
COMMENT HBF_END_FONT
STARTCHAR C2121
ENCODING 8481
SWIDTH 400 0
DWIDTH 24 0
BBX 24 24 0 -2
BITMAP
000000
000000
0000E0
7FFFE0
000060
000060
000060
000060
000060
000060
000060
000060
000060
000060
000060
000060
000030
000030
000018
000018
00000C
000006
000002
000000
ENDCHAR
STARTCHAR C2122
ENCODING 8482
SWIDTH 400 0
DWIDTH 24 0
BBX 24 24 0 -2
BITMAP
00E000
00E000
00C000
00C000
00C000
00C080
00FFC0
00E0E0
00C0C0
00C0C0
00C0C0
00C0C0
00C0C0
00C0C0
00C0FE
00C07F
00C000
00C000
00C000
00C000
00C000
00C000
00C000
00C000
ENDCHAR
STARTCHAR C2123
ENCODING 8483
SWIDTH 400 0
DWIDTH 24 0
BBX 24 24 0 -2
BITMAP
000000
000000
000000
000078
000078
0E0070
0700E0
01C0C0
0061C0
003180
001F00
000E00
000E00
001F00
003180
0060C0
00C060
018030
070018
1C0008
700000
000000
000000
000000
ENDCHAR
STARTCHAR C2124
ENCODING 8484
SWIDTH 400 0
DWIDTH 24 0
BBX 24 24 0 -2
BITMAP
000038
000038
070030
070030
060030
060030
060030
060030
060030
060030
060030
060030
07FFF0
060030
000030
000030
000060
000060
0000C0
000180
000300
000600
000C00
003000
ENDCHAR
STARTCHAR C2125
ENCODING 8485
SWIDTH 400 0
DWIDTH 24 0
BBX 24 24 0 -2
BITMAP
000000
03800C
7F87FE
03800C
03000C
030018
060030
060020
0C0060
0C00C0
1801C0
380180
300300
300300
600600
E00E00
C00C00
C00C00
C04C01
C04C01
C0CC03
7FC7FF
3FC3FF
1F81FE
ENDCHAR
STARTCHAR C2126
ENCODING 8486
SWIDTH 400 0
DWIDTH 24 0
BBX 24 24 0 -2
BITMAP
001800
201800
381800
301800
301800
301800
301800
301800
301800
301800
301800
301800
3FF800
201800
001800
001800
001800
001801
001801
001803
001803
001FFF
001FFF
000FFC
ENDCHAR
STARTCHAR C2127
ENCODING 8487
SWIDTH 400 0
DWIDTH 24 0
BBX 24 24 0 -2
BITMAP
000000
000000
000000
000018
3FFFFC
000000
000000
000000
000000
000000
000000
000000
000000
000000
000000
000000
000000
000004
00000E
FFFFFF
000000
000000
000000
000000
ENDCHAR
STARTCHAR C2128
ENCODING 8488
SWIDTH 400 0
DWIDTH 24 0
BBX 24 24 0 -2
BITMAP
000000
000000
000000
000006
FFFFFF
000000
000000
000000
000000
000000
000000
000000
000000
000000
000000
000000
000000
000000
000018
3FFFFC
000000
000000
000000
000000
ENDCHAR
STARTCHAR C2129
ENCODING 8489
SWIDTH 400 0
DWIDTH 24 0
BBX 24 24 0 -2
BITMAP
000000
000000
000000
00000C
7FFFFE
000000
000000
000000
000000
000000
000000
000000
000000
000000
000000
000000
000000
000000
00000C
7FFFFE
000000
000000
000000
000000
ENDCHAR
STARTCHAR C212a
ENCODING 8490
SWIDTH 400 0
DWIDTH 24 0
BBX 24 24 0 -2
BITMAP
00E000
00E000
00C000
00C000
00C000
00C010
00C1FC
00EFFE
01FF00
3FC000
00C000
00C000
00C000
00C000
00C000
00C000
00C000
00C001
00C003
00C002
00E006
00FFFF
003FFE
000000
ENDCHAR
STARTCHAR C212b
ENCODING 8491
SWIDTH 400 0
DWIDTH 24 0
BBX 24 24 0 -2
BITMAP
000000
006000
FFF000
307000
307000
307000
307000
307000
307000
307008
307018
307010
307030
303FF0
301FF0
300000
300000
300000
300000
300000
300000
3FFFFF
1FFFFF
000000
ENDCHAR
STARTCHAR C212c
ENCODING 8492
SWIDTH 400 0
DWIDTH 24 0
BBX 24 24 0 -2
BITMAP
00E000
00E000
00C000
00C000
00C000
00C030
00FFF8
00C038
00C038
00C038
00C038
00C038
00C038
00C030
00C000
00C000
00C000
00C000
00C000
00C000
00C000
00C000
00C000
00C000
ENDCHAR
STARTCHAR C212d
ENCODING 8493
SWIDTH 400 0
DWIDTH 24 0
BBX 24 24 0 -2
BITMAP
000000
00000C
3FFFFE
00180C
001818
001810
001830
001820
001800
001800
001800
001800
001800
001800
001800
001800
001800
001800
001800
001800
001800
001800
003807
FFFFFF
ENDCHAR
STARTCHAR C212e
ENCODING 8494
SWIDTH 400 0
DWIDTH 24 0
BBX 24 24 0 -2
BITMAP
000004
00000E
7FFFFE
180C00
180C00
380C00
301800
301800
301800
301818
7FFFFC
20300C
00300C
00300C
00600C
00600C
00C00C
01800C
03000C
06001C
0C0018
180FF8
3001F0
E00060
ENDCHAR
STARTCHAR C212f
ENCODING 8495
SWIDTH 400 0
DWIDTH 24 0
BBX 24 24 0 -2
BITMAP
000040
0400E0
07FFE0
060060
060060
060060
060060
060060
060060
060060
060060
060060
060060
060060
060060
060060
060060
060060
060060
060060
060060
060066
FFFFFF
000000
ENDCHAR
STARTCHAR C2130
ENCODING 8496
SWIDTH 400 0
DWIDTH 24 0
BBX 24 24 0 -2
BITMAP
001800
001800
001800
001800
001800
181870
1FFFF0
181800
181800
301800
301800
301800
301806
7FFFFE
201800
001800
001800
001800
001800
001800
001800
001800
001800
001000
ENDCHAR
STARTCHAR C2131
ENCODING 8497
SWIDTH 400 0
DWIDTH 24 0
BBX 24 24 0 -2
BITMAP
00C000
00C000
00C000
00C000
00C000
00C080
3FFFC0
01C0E0
00C0C0
04C0C0
07C0C0
01C0C0
00E0C0
00F0C0
01B8C0
0198C0
0180C0
0300C0
0300C1
0600C1
0C00C3
1800FF
30007F
E0003E
ENDCHAR
STARTCHAR C2132
ENCODING 8498
SWIDTH 400 0
DWIDTH 24 0
BBX 24 24 0 -2
BITMAP
000000
0001C0
3FFFE0
00C0C0
00C0C0
00C0C0
00C0C0
00C0C0
00C0C0
00C0C0
00F0C0
00F8C0
00DCC0
00CEC0
0180C0
0180C0
0180C0
0300C0
0300C1
0600C1
0C00C3
1800FF
30007F
E0003E
ENDCHAR
STARTCHAR C2133
ENCODING 8499
SWIDTH 400 0
DWIDTH 24 0
BBX 24 24 0 -2
BITMAP
000100
000FC0
01FFC0
3F8000
038000
038000
038000
0381C0
7FFFC0
038180
038300
038304
0387FE
038206
030006
030006
060006
060006
0C0006
1C000C
18001C
3007FC
600038
C00000
ENDCHAR
STARTCHAR C2134
ENCODING 8500
SWIDTH 400 0
DWIDTH 24 0
BBX 24 24 0 -2
BITMAP
000000
000007
FFFFFF
003800
003800
003000
003000
003000
003000
003800
007800
006C00
006400
00C600
00C600
01C300
018300
030180
0300C0
060060
0C003C
18001F
30000E
600000
ENDCHAR
STARTCHAR C2135
ENCODING 8501
SWIDTH 400 0
DWIDTH 24 0
BBX 24 24 0 -2
BITMAP
001800
001800
003800
003400
006200
00C180
0180E0
031078
0C1C3F
30180E
C01800
001800
001800
001800
001800
001800
001800
001800
001800
001800
001800
03F800
00F000
006000
ENDCHAR
STARTCHAR C2136
ENCODING 8502
SWIDTH 400 0
DWIDTH 24 0
BBX 24 24 0 -2
BITMAP
00C000
006000
003000
001000
001800
000800
001C00
001C00
003600
003200
006300
00E180
00C1C0
0180E0
030070
060038
0C001C
18000F
300006
C00000
000000
00000C
7FFFFE
000000
ENDCHAR
STARTCHAR C2137
ENCODING 8503
SWIDTH 400 0
DWIDTH 24 0
BBX 24 24 0 -2
BITMAP
001800
000800
000C00
000C00
000400
000600
000600
03C600
038700
038300
030300
030306
FFFFFF
060180
0601C0
0600C0
0C00E0
0C0060
180070
100038
30003E
60001F
C0000E
800004
ENDCHAR
STARTCHAR C2138
ENCODING 8504
SWIDTH 400 0
DWIDTH 24 0
BBX 24 24 0 -2
BITMAP
000000
00000C
3FFFFE
00300C
00300C
00300C
00300C
00300C
06300C
03300C
01F00C
00F00C
00700C
00780C
007C0C
006E0C
00C60C
00C20C
01C00C
03801C
070038
0E07F0
1800E0
600040
ENDCHAR
STARTCHAR C2139
ENCODING 8505
SWIDTH 400 0
DWIDTH 24 0
BBX 24 24 0 -2
BITMAP
0E0000
0E0000
0C0000
0C0000
0C0000
1C0000
180000
30000C
3FFFFE
30300E
00300C
00300C
00300C
00700C
00600C
00600C
00C00C
00C00C
01800C
03000C
06001C
0C07F8
300070
E00020
ENDCHAR
STARTCHAR C213a
ENCODING 8506
SWIDTH 400 0
DWIDTH 24 0
BBX 24 24 0 -2
BITMAP
003800
003800
003000
103000
1C3000
183008
1FFFFC
38301C
30300C
70300C
60300C
C0700C
00700C
00600C
00600C
00C00C
00C00C
01800C
01801C
03001C
060018
0C0FF8
1801F0
600060
ENDCHAR
STARTCHAR C213b
ENCODING 8507
SWIDTH 400 0
DWIDTH 24 0
BBX 24 24 0 -2
BITMAP
000000
00000C
1FFFFC
060060
060060
060060
060060
060060
060060
060060
060060
060060
060060
0600E0
060FE0
067860
07C060
078060
060060
000060
000060
000060
000060
000040
ENDCHAR
STARTCHAR C213c
ENCODING 8508
SWIDTH 400 0
DWIDTH 24 0
BBX 24 24 0 -2
BITMAP
000000
000007
FFFFFF
003800
003800
003000
003000
003000
007000
006000
006000
00C000
00C100
018180
0180C0
030060
030030
060030
0E01F8
1C3E1C
1FF81C
0F000C
060000
000000
ENDCHAR
STARTCHAR C213d
ENCODING 8509
SWIDTH 400 0
DWIDTH 24 0
BBX 24 24 0 -2
BITMAP
000000
000000
010300
FF8380
01C300
018300
018300
018300
018300
018300
018610
018618
018E08
018C0C
019C3C
019FEC
019E04
018C01
018001
018001
01C003
01FFFF
007FFF
000000
ENDCHAR
STARTCHAR C213e
ENCODING 8510
SWIDTH 400 0
DWIDTH 24 0
BBX 24 24 0 -2
BITMAP
000000
000008
0FFFFC
00000C
00000C
00000C
00000C
00000C
00000C
04000C
06001C
07FFFC
060008
060000
060000
060000
060000
0C0000
0C0000
180000
180000
300000
200000
400000
ENDCHAR
STARTCHAR C213f
ENCODING 8511
SWIDTH 400 0
DWIDTH 24 0
BBX 24 24 0 -2
BITMAP
038380
038380
038300
038300
038300
038300
038300
038300
03830E
FFFFFE
038300
038300
038300
038300
030300
030300
020300
060300
060300
040300
0C0300
1803FE
3001FF
60007F
ENDCHAR
STARTCHAR C2140
ENCODING 8512
SWIDTH 400 0
DWIDTH 24 0
BBX 24 24 0 -2
BITMAP
00E000
00E300
00C0E0
00C070
00C030
00C000
00C000
00C004
7FFFFE
00C000
00C000
00C000
00C000
00C000
00C000
00C000
00C000
006000
006000
003000
003C00
001FFE
0003FE
000000
ENDCHAR
STARTCHAR C2141
ENCODING 8513
SWIDTH 400 0
DWIDTH 24 0
BBX 24 24 0 -2
BITMAP
000000
1001C0
0C0180
060300
030200
018406
FFFFFF
00C000
018000
018000
030000
030060
07FFF0
000060
000060
000060
000060
000060
000060
000060
0000E0
007FC0
000F80
000300
ENDCHAR
STARTCHAR C2142
ENCODING 8514
SWIDTH 400 0
DWIDTH 24 0
BBX 24 24 0 -2
BITMAP
0400C0
07FFE0
060060
060060
060060
060060
060060
060060
060060
060060
0600E0
07FFE0
060060
060060
060060
060060
060060
060060
060060
060060
060060
060066
FFFFFF
000000
ENDCHAR
STARTCHAR C2143
ENCODING 8515
SWIDTH 400 0
DWIDTH 24 0
BBX 24 24 0 -2
BITMAP
000040
0001E0
000FE0
0CFC00
0F8000
0C0000
0C0000
0C0300
0FFF80
0C0380
0C0300
0C0300
0C0630
0C07F8
0C0038
0C0030
0C0030
0C0070
0C0060
0C0060
0C00C0
0C00C6
FFFFFF
000000
ENDCHAR
STARTCHAR C2144
ENCODING 8516
SWIDTH 400 0
DWIDTH 24 0
BBX 24 24 0 -2
BITMAP
000000
0001C0
3FFFE0
0301C0
0301C0
031180
03F980
030300
03030E
0303FF
030006
030606
03FF06
060606
060606
060606
060606
0C7E06
0C1C06
18080E
38000C
3007FC
600038
C00020
ENDCHAR
STARTCHAR C2145
ENCODING 8517
SWIDTH 400 0
DWIDTH 24 0
BBX 24 24 0 -2
BITMAP
000020
000078
0007F8
007C00
079800
1C1800
001800
001800
001800
00180E
00180E
3FF80C
00180C
00180C
00180C
00180C
00180C
00180C
00180C
00180C
00180C
7FFFFC
00000C
000000
ENDCHAR
STARTCHAR C2146
ENCODING 8518
SWIDTH 400 0
DWIDTH 24 0
BBX 24 24 0 -2
BITMAP
380038
380038
300730
300730
33C630
338630
338630
338630
338630
338630
338630
338630
33FE30
338630
300630
300630
300630
300630
300639
300639
60061B
60060F
C0000F
800007
ENDCHAR
STARTCHAR C2147
ENCODING 8519
SWIDTH 400 0
DWIDTH 24 0
BBX 24 24 0 -2
BITMAP
0007E0
007FF0
1FF800
001800
001800
001800
001800
001804
7FFFFE
003800
003800
007800
00D800
00D800
019800
031800
061800
0C1800
181800
301800
601800
801800
001800
001000
ENDCHAR
STARTCHAR C2148
ENCODING 8520
SWIDTH 400 0
DWIDTH 24 0
BBX 24 24 0 -2
BITMAP
1C0070
1C3070
1C3860
1C3060
1C3060
1C3860
1C3860
1C3C60
1C3460
1C3660
1C3260
1C3360
1C3360
1C31E0
1C30E0
1C3070
1C3078
18307F
18306F
303362
303E60
703860
601060
C00060
ENDCHAR
STARTCHAR C2149
ENCODING 8521
SWIDTH 400 0
DWIDTH 24 0
BBX 24 24 0 -2
BITMAP
000C00
001E00
001FC0
001800
001800
001800
001800
001800
001800
101800
201800
C01800
FFFFFF
601800
001800
001800
001800
001800
003800
006000
018000
060000
0FFFFE
060000
ENDCHAR
STARTCHAR C214a
ENCODING 8522
SWIDTH 400 0
DWIDTH 24 0
BBX 24 24 0 -2
BITMAP
000008
00001C
3FFFFC
000000
000020
000038
020070
038060
00C0C0
003180
001B00
000E00
000F00
001B80
0071E0
00E070
038038
0E001C
38000C
600000
000000
000006
FFFFFF
000000
ENDCHAR
STARTCHAR C214b
ENCODING 8523
SWIDTH 400 0
DWIDTH 24 0
BBX 24 24 0 -2
BITMAP
038004
03800E
073FFF
06001C
060038
0C0060
1C01C0
1C01C0
3C01C0
3C01C0
6C01C0
4C01C0
8C01C0
0C01C0
0C01C0
0C01C0
0C01C0
0C01C0
0C01C0
0C01C0
0C01C0
0C1FC0
0C0780
0C0300
ENDCHAR
STARTCHAR C214c
ENCODING 8524
SWIDTH 400 0
DWIDTH 24 0
BBX 24 24 0 -2
BITMAP
000E00
600E00
701E00
603B00
607180
60E0E0
61C078
63803C
67000F
7C0007
600000
600000
600000
600038
7FFFF8
600000
600000
600000
600000
600000
600000
7FFFFC
3FFFFE
1FFFFE
ENDCHAR
STARTCHAR C214d
ENCODING 8525
SWIDTH 400 0
DWIDTH 24 0
BBX 24 24 0 -2
BITMAP
000000
0C0038
0FFFF8
0C0000
0C0000
0C0000
0C0000
0C0000
0C0008
0FFFFC
0C0000
010080
03C1E0
0381C0
0381C0
0381C0
0381C0
0301C0
0301C1
0601C1
0C01C3
1801FF
3000FF
E0003E
ENDCHAR
STARTCHAR C214e
ENCODING 8526
SWIDTH 400 0
DWIDTH 24 0
BBX 24 24 0 -2
BITMAP
001000
000800
000C00
038600
038300
030180
0600C0
0C0060
18103F
30181F
600C06
800C00
038600
038600
038300
030300
060180
060180
0E00C0
0C0060
180038
30001F
60000E
C00004
ENDCHAR
STARTCHAR C214f
ENCODING 8527
SWIDTH 400 0
DWIDTH 24 0
BBX 24 24 0 -2
BITMAP
000000
60000C
7FFFFE
60000C
60000C
63018C
63FFCC
6301CC
6301CC
6301CC
6301CC
6301CC
6301CC
6301CC
6301CC
6301CC
6301CC
6301CC
6301CC
63018C
62000C
60007C
60003C
600008
ENDCHAR
STARTCHAR C2150
ENCODING 8528
SWIDTH 400 0
DWIDTH 24 0
BBX 24 24 0 -2
BITMAP
001800
001800
001800
001800
001800
60180C
7FFFFE
60180C
60180C
60380C
60380C
607C0C
60660C
60C30C
60C38C
6181CC
6300FC
66007C
6C002C
60000C
60000C
6000FC
60007C
600018
ENDCHAR
STARTCHAR C2151
ENCODING 8529
SWIDTH 400 0
DWIDTH 24 0
BBX 24 24 0 -2
BITMAP
003800
003800
007000
006000
06C060
07FFF0
060060
060060
060060
060060
060060
060062
FFFFFF
070070
060060
060060
060060
040060
0C0060
080060
180060
1007E0
2001E0
4000C0
ENDCHAR
STARTCHAR C2152
ENCODING 8530
SWIDTH 400 0
DWIDTH 24 0
BBX 24 24 0 -2
BITMAP
1C0000
1C0000
1803F0
187FF0
1FC000
180000
180000
180000
1FFFFC
0FFFFE
000000
000000
030180
03FFC0
0381C0
0381C0
0381C0
0381C0
0301C1
0601C1
0C01C3
1801FF
3000FF
E0003E
ENDCHAR
STARTCHAR C2153
ENCODING 8531
SWIDTH 400 0
DWIDTH 24 0
BBX 24 24 0 -2
BITMAP
000000
70000E
601C0E
60180C
60180C
60180C
60180C
60180C
60184C
67FFEC
60380C
60180C
60180C
60180C
60180C
60180C
60180C
60180C
60180C
60100C
60000C
60000C
7FFFFC
00000C
ENDCHAR
STARTCHAR C2154
ENCODING 8532
SWIDTH 400 0
DWIDTH 24 0
BBX 24 24 0 -2
BITMAP
000000
70000E
601C0E
60180C
60180C
60180C
60300C
60300C
60700C
60600C
60600C
60C30C
60C18C
61818C
6380CC
630FCC
6FF8EC
6FC06C
66006C
60000C
60000C
7FFFFC
60000C
00000C
ENDCHAR
STARTCHAR C2155
ENCODING 8533
SWIDTH 400 0
DWIDTH 24 0
BBX 24 24 0 -2
BITMAP
000000
00C000
FFE0E0
18C0E0
18C0C0
18C0C0
18C0C0
18C1C0
18C1C0
18C180
18C180
18C380
18C300
18C300
18C300
18C600
30C608
30CE0C
30CC06
30DC3E
61DFC7
6F9E03
C30C01
820000
ENDCHAR
STARTCHAR C2156
ENCODING 8534
SWIDTH 400 0
DWIDTH 24 0
BBX 24 24 0 -2
BITMAP
1C000C
1C000C
18000C
18030C
18030C
18030C
18030C
1C030C
1B030C
19830C
18C30C
18630C
18730C
18230C
18030C
18030C
18030C
18020C
18000C
18000C
18000C
1800FC
180078
180030
ENDCHAR
STARTCHAR C2157
ENCODING 8535
SWIDTH 400 0
DWIDTH 24 0
BBX 24 24 0 -2
BITMAP
300000
300004
307FFE
300606
300606
300606
300606
380606
3E0606
370606
338606
31C606
30CE06
30CE06
300C06
300C06
301806
30180E
30380C
30300C
30701C
3063F8
30C0F0
238060
ENDCHAR
STARTCHAR C2158
ENCODING 8536
SWIDTH 400 0
DWIDTH 24 0
BBX 24 24 0 -2
BITMAP
1C01C0
1C01C0
1C01C0
1C01C0
1C01C0
1C01C0
1C61C6
7FE7FF
1C61C7
1C61C7
1C61C7
1C61C7
1C61C7
1C61C7
1C61C7
1C61C7
1C61C7
186187
186186
306306
30E30E
67C67C
678C78
C31830
ENDCHAR
STARTCHAR C2159
ENCODING 8537
SWIDTH 400 0
DWIDTH 24 0
BBX 24 24 0 -2
BITMAP
000000
000040
0600E0
0380C0
01C180
00C300
004606
FFFFFF
060000
060000
060000
060000
060000
060000
060000
060000
060000
060000
060000
060000
060000
07FFFE
03FFFE
000000
ENDCHAR
STARTCHAR C215a
ENCODING 8538
SWIDTH 400 0
DWIDTH 24 0
BBX 24 24 0 -2
BITMAP
0381C0
0381C0
0381C0
0381C0
0381C0
0381C0
0381C0
0381C0
0381C6
FFFFFF
0381C0
0381C0
0381C0
0381C0
0381C0
0381C0
0381C0
0381C0
0383C0
039FC0
03F1C0
1F01C0
0C01C0
040180
ENDCHAR
STARTCHAR C215b
ENCODING 8539
SWIDTH 400 0
DWIDTH 24 0
BBX 24 24 0 -2
BITMAP
000804
700C0E
600FFF
600C06
600C06
600C06
600C06
600C06
610C06
7F8C06
600C06
600C06
600C06
600C06
600C06
600C06
600DFE
604C3C
604C08
60CC00
718C00
7FCC00
3F8C00
000C00
ENDCHAR
STARTCHAR C215c
ENCODING 8540
SWIDTH 400 0
DWIDTH 24 0
BBX 24 24 0 -2
BITMAP
007000
007000
007000
007040
3070E0
3FFFE0
307060
307060
307060
307060
307060
306060
306060
30C060
30C860
31C460
318660
331F60
37F361
338361
610063
60007F
C0007F
80001E
ENDCHAR
STARTCHAR C215d
ENCODING 8541
SWIDTH 400 0
DWIDTH 24 0
BBX 24 24 0 -2
BITMAP
007000
007000
007000
387000
387000
3070E0
FFFFE0
307060
307060
307060
307060
306060
306060
30C060
30C860
31C460
318660
331F60
37F361
338361
610063
60007F
C0007F
80001E
ENDCHAR
STARTCHAR C215e
ENCODING 8542
SWIDTH 400 0
DWIDTH 24 0
BBX 24 24 0 -2
BITMAP
000060
000060
01C060
7FC060
00D860
40DC60
21D860
319860
119860
1B9860
0B9860
0F1860
071860
061CE7
071FFF
0F0060
0D8060
1DC060
18C060
30C061
600061
40007F
80007F
00001E
ENDCHAR
STARTCHAR C215f
ENCODING 8543
SWIDTH 400 0
DWIDTH 24 0
BBX 24 24 0 -2
BITMAP
000020
000070
0FFFF8
0300E0
0180E0
01C1C0
00E380
007700
003E00
003E00
007780
01E1F0
07807F
1E401E
F07004
00E000
00C000
018040
030070
060038
0C1FFC
1FF80C
1F8004
0E0000
ENDCHAR
STARTCHAR C2160
ENCODING 8544
SWIDTH 400 0
DWIDTH 24 0
BBX 24 24 0 -2
BITMAP
00C000
00C000
00C000
00C180
7FFFC0
0181C1
0381C1
0301C1
0601C3
1C00FF
30007F
C00060
0FFFF0
0600F0
0300E0
0181C0
00C380
006700
003E00
003E00
00F3C0
03C1FF
1E007F
F8001C
ENDCHAR
STARTCHAR C2161
ENCODING 8545
SWIDTH 400 0
DWIDTH 24 0
BBX 24 24 0 -2
BITMAP
000000
0001C0
1FFFC0
030180
030300
030300
030300
030620
0307F0
078470
078060
06C060
0660E0
0660C0
0C31C0
0C1980
0C0F00
180E00
180F00
3019C0
3070F0
60E07F
C3801E
9E0004
ENDCHAR
STARTCHAR C2162
ENCODING 8546
SWIDTH 400 0
DWIDTH 24 0
BBX 24 24 0 -2
BITMAP
038004
03800E
F39FFF
E38806
E38806
E38C06
E3840C
E3840C
E3860C
E3820C
E38218
E3C318
E38138
EF8130
F381F0
6380E0
0300E0
0301E0
0601B0
060338
0C061C
180C0F
301807
E0E003
ENDCHAR
STARTCHAR C2163
ENCODING 8547
SWIDTH 400 0
DWIDTH 24 0
BBX 24 24 0 -2
BITMAP
000000
00C000
7FE000
01D004
03980E
031FFF
061806
061806
0C1806
1C1806
181806
301806
301806
601806
601806
E01FFE
C01806
C01004
C00001
C00001
C00003
7FFFFF
3FFFFF
1FFFFC
ENDCHAR
STARTCHAR C2164
ENCODING 8548
SWIDTH 400 0
DWIDTH 24 0
BBX 24 24 0 -2
BITMAP
000000
100030
1FFFF8
180038
180038
180038
180038
180038
18C038
187038
181838
180C38
180638
180338
180038
180038
180038
180038
180038
180038
1FFFF8
180038
100010
000000
ENDCHAR
STARTCHAR C2165
ENCODING 8549
SWIDTH 400 0
DWIDTH 24 0
BBX 24 24 0 -2
BITMAP
000000
60000C
7FFFFE
60000C
60010C
63FF8C
60038C
60060C
601C0C
60300C
60C00C
61800C
63000C
66000C
66002C
66002C
66006C
67FFEC
63FFEC
60000C
60000C
7FFFFC
60000C
600000
ENDCHAR
STARTCHAR C2166
ENCODING 8550
SWIDTH 400 0
DWIDTH 24 0
BBX 24 24 0 -2
BITMAP
000000
60000C
7FFFFE
60000C
60000C
60018C
6FFFCC
6001CC
6001CC
6001CC
6001CC
6001CC
6001CC
6001CC
6001CC
6000CC
6000CC
60006C
60007C
60003C
60000C
7FFFFC
60000C
600000
ENDCHAR
STARTCHAR C2167
ENCODING 8551
SWIDTH 400 0
DWIDTH 24 0
BBX 24 24 0 -2
BITMAP
003800
003800
003000
003000
003060
3FFFF0
003070
003060
003060
003060
003060
007062
FFFFFF
007000
006000
1E6000
03C000
01E000
01B800
030F00
0603E0
1C00FF
30001E
E00004
ENDCHAR
STARTCHAR C2168
ENCODING 8552
SWIDTH 400 0
DWIDTH 24 0
BBX 24 24 0 -2
BITMAP
001800
001800
001800
001800
001800
001800
001806
7FFFFE
001800
003800
003800
003C00
007400
006600
006300
00C300
00C100
01FD80
0300C0
060070
0C003C
18001F
30000E
E00004
ENDCHAR
STARTCHAR C2169
ENCODING 8553
SWIDTH 400 0
DWIDTH 24 0
BBX 24 24 0 -2
BITMAP
006000
003000
301820
3FFFF0
380030
300030
300030
300030
3601B0
318630
30C430
31FF30
3249B0
3649B0
3649B0
3649B0
3649B0
33CFB1
318739
300019
60001F
40000F
C00007
800003
ENDCHAR
STARTCHAR C216a
ENCODING 8554
SWIDTH 400 0
DWIDTH 24 0
BBX 24 24 0 -2
BITMAP
0000E0
0000E0
0800C0
1E00C0
1C00C0
1C00C2
FFFFFF
1C00C0
1C00C0
1C00C0
1800C0
0000C0
0000C0
0180C0
00C0C0
0060C0
0030C0
0000C0
0000C0
0000C0
0000C0
000FC0
0003C0
000180
ENDCHAR
STARTCHAR C216b
ENCODING 8555
SWIDTH 400 0
DWIDTH 24 0
BBX 24 24 0 -2
BITMAP
000000
000007
FFFFFF
001C00
001800
001800
001800
001800
071880
0618C0
061860
0C1830
0C1818
0C180C
181806
101807
301803
601800
C01800
001800
001800
03F800
00F000
006000
ENDCHAR
STARTCHAR C216c
ENCODING 8556
SWIDTH 400 0
DWIDTH 24 0
BBX 24 24 0 -2
BITMAP
001800
001800
001800
001808
00180E
00180C
00180C
1E180C
1C180C
1C180C
1C180C
1C180C
1C1FFC
1C181C
1C1808
1C1800
1C3800
1FF800
001800
001800
001800
001800
003807
FFFFFF
ENDCHAR
STARTCHAR C216d
ENCODING 8557
SWIDTH 400 0
DWIDTH 24 0
BBX 24 24 0 -2
BITMAP
000000
000000
000000
03870E
03870E
03060C
060E0C
060C08
040C18
0C1830
181020
302042
FFFFFF
103060
081830
0C1C18
060E0C
03060C
03870E
018306
018307
008102
000000
000000
ENDCHAR
STARTCHAR C216e
ENCODING 8558
SWIDTH 400 0
DWIDTH 24 0
BBX 24 24 0 -2
BITMAP
000000
00000C
3FFFFC
00C000
00C000
00C000
00C000
00C000
00C000
00C000
00C000
00C070
00FFF0
00C000
00C000
00C000
00C000
00C000
00C000
00C000
00C000
00C006
7FFFFE
000000
ENDCHAR
STARTCHAR C216f
ENCODING 8559
SWIDTH 400 0
DWIDTH 24 0
BBX 24 24 0 -2
BITMAP
000000
00000C
3FFFFC
00C000
00C000
00C000
00C000
00C000
00C000
00C000
00C060
00FFF0
00C070
00C060
00C060
00C060
00C060
00C060
00C060
00C060
00C060
00C066
7FFFFE
000000
ENDCHAR
STARTCHAR C2170
ENCODING 8560
SWIDTH 400 0
DWIDTH 24 0
BBX 24 24 0 -2
BITMAP
000008
00001C
3FFFFC
001800
001800
001FF0
001818
001818
00180C
00181C
001818
001830
1FFFE0
301800
301800
601800
301800
301800
1FF800
003800
001800
001806
FFFFFF
000000
ENDCHAR
STARTCHAR C2171
ENCODING 8561
SWIDTH 400 0
DWIDTH 24 0
BBX 24 24 0 -2
BITMAP
000008
00001C
3FFFFC
001800
001800
001800
001800
001800
001800
001806
FFFFFF
1C0000
1C0000
1C0000
1C0000
1C0000
1C0000
1C0002
1C0002
1C0006
1C000C
0FFFFE
07FFFC
000000
ENDCHAR
STARTCHAR C2172
ENCODING 8562
SWIDTH 400 0
DWIDTH 24 0
BBX 24 24 0 -2
BITMAP
000000
007000
006000
00C000
018300
030380
060700
038C00
00D800
007000
00E100
0180C0
030060
0E0FF0
1FF838
0F3018
043000
003000
003000
003000
003000
003000
003000
003000
ENDCHAR
STARTCHAR C2173
ENCODING 8563
SWIDTH 400 0
DWIDTH 24 0
BBX 24 24 0 -2
BITMAP
000004
00000E
FFFFFF
008006
00C006
018006
030006
060406
0C0E06
181C06
0E3006
036006
01C006
038606
070306
0E0186
383FC6
7FF0E6
3E0066
10000C
00000C
0003FC
000078
000030
ENDCHAR
STARTCHAR C2174
ENCODING 8564
SWIDTH 400 0
DWIDTH 24 0
BBX 24 24 0 -2
BITMAP
0700E0
0700E0
0600C0
0600C0
0600C0
0600C0
0600C0
0600C0
06C0C6
FFE7FF
0600C0
0600C0
0600C0
0600C0
0600C0
0600C0
0600C0
0600C0
0E00C0
0C00C0
0C00C0
1800C0
3000C0
6000C0
ENDCHAR
STARTCHAR C2175
ENCODING 8565
SWIDTH 400 0
DWIDTH 24 0
BBX 24 24 0 -2
BITMAP
0381C0
0381C0
0381C0
0381C0
0381C0
0381C0
0381C0
0381C0
0381C6
FFFFFF
0381C0
0381C0
0381C0
1381C0
0F01C0
0701C0
03C1C0
06E1C0
0661C0
0401C0
0C01C0
1801C0
3001C0
600180
ENDCHAR
STARTCHAR C2176
ENCODING 8566
SWIDTH 400 0
DWIDTH 24 0
BBX 24 24 0 -2
BITMAP
0001C0
0001D8
0001CE
0001C6
0001C2
FFFFFF
0001C0
1E01C0
1C01C0
1801C0
1801C0
3801C0
300CC0
3FFCC0
000CC0
000C60
000C60
000C60
000C71
001831
001839
03F81F
00F00F
006007
ENDCHAR
STARTCHAR C2177
ENCODING 8567
SWIDTH 400 0
DWIDTH 24 0
BBX 24 24 0 -2
BITMAP
000040
0000E0
0FFFE0
000060
000060
07FFE0
000060
000060
000066
FFFFFF
00C000
018000
018018
03FFFC
000018
000018
000018
000018
000018
000018
000038
000FF0
0001E0
0000C0
ENDCHAR
STARTCHAR C2178
ENCODING 8568
SWIDTH 400 0
DWIDTH 24 0
BBX 24 24 0 -2
BITMAP
000020
000070
1FFFF8
000030
000030
000030
1FFFF0
1C0030
180020
180000
300018
3FFFFC
30001C
000018
020018
018018
00C018
006018
006018
000030
000070
000FE0
0003C0
000180
ENDCHAR
STARTCHAR C2179
ENCODING 8569
SWIDTH 400 0
DWIDTH 24 0
BBX 24 24 0 -2
BITMAP
000020
000070
1FFFF8
000030
000030
000030
1FFFF0
1C0030
180020
180000
300018
3FFFFC
30001C
000018
000018
000198
7FFF98
000018
000018
000030
000070
000FE0
0003C0
000180
ENDCHAR
STARTCHAR C217a
ENCODING 8570
SWIDTH 400 0
DWIDTH 24 0
BBX 24 24 0 -2
BITMAP
000020
000070
1FFFF8
003030
003030
003030
003030
1FFFF0
1C0030
180000
180000
300010
3FFFF8
30001C
000018
000018
000018
000018
000038
000030
000070
000FE0
0003C0
000180
ENDCHAR
STARTCHAR C217b
ENCODING 8571
SWIDTH 400 0
DWIDTH 24 0
BBX 24 24 0 -2
BITMAP
000020
000070
1FFFF8
000030
000030
000030
000030
1FFFF0
1C0E30
180E00
180E00
300E10
3FFFF8
30001C
000018
000018
000018
000018
000038
000030
000070
000FE0
0003C0
000180
ENDCHAR
STARTCHAR C217c
ENCODING 8572
SWIDTH 400 0
DWIDTH 24 0
BBX 24 24 0 -2
BITMAP
000038
000338
1FFF30
000030
000030
000030
1FFFF0
1C0030
180020
180000
300000
300018
3FFFFC
000018
000018
000018
000018
000018
000038
000030
000070
000FE0
0003C0
000180
ENDCHAR
STARTCHAR C217d
ENCODING 8573
SWIDTH 400 0
DWIDTH 24 0
BBX 24 24 0 -2
BITMAP
030E00
070E00
060E00
0C0E00
180E00
300E00
638E00
438E00
030E00
060E00
060E00
0C0E00
1C0E00
3C0E00
6C0E00
CC0E00
0C0E00
0C0E01
0C0E01
0C0E03
0C0E03
0C0FFF
0C07FF
0C03FC
ENDCHAR
STARTCHAR C217e
ENCODING 8574
SWIDTH 400 0
DWIDTH 24 0
BBX 24 24 0 -2
BITMAP
00E000
00E000
00C000
00C000
00C000
00CC20
04C630
0CC318
0CC31C
18C38C
38C18C
38C004
30C000
00C000
00C000
00C000
00C000
00C000
00C000
00C000
00C000
00C000
00C000
00C000
ENDCHAR
STARTCHAR C2221
ENCODING 8737
SWIDTH 400 0
DWIDTH 24 0
BBX 24 24 0 -2
BITMAP
0E0E00
0E0E00
0C0E00
0C0E00
0C0E00
0E0E00
2F0E00
2D8E00
6D8E00
6CCE00
CCCE00
CC0E00
0C0E00
0C0E00
0C0E00
0C0E00
0C0E00
0C0E01
0C0E03
0C0E02
0C0E06
0C0FFF
0C07FE
0C01F8
ENDCHAR
STARTCHAR C2222
ENCODING 8738
SWIDTH 400 0
DWIDTH 24 0
BBX 24 24 0 -2
BITMAP
0001C0
0001C0
0031C0
3FF9C0
0031C0
0031C0
0031C0
0031C0
0031C0
0031C0
0031C0
1FF1C0
0021C0
0001C0
0001C6
FFFFFF
0001C0
0001C0
0001C0
0001C0
0001C0
0001C0
0001C0
000180
ENDCHAR
STARTCHAR C2223
ENCODING 8739
SWIDTH 400 0
DWIDTH 24 0
BBX 24 24 0 -2
BITMAP
000038
0007FC
1FFFFC
1C0000
1C0200
1C0380
1C0300
1C0300
1C0300
1C0300
1C0707
1FFFFF
1C0300
1C0300
1C0300
180300
180300
180300
300300
300300
200300
600300
C00300
800200
ENDCHAR
STARTCHAR C2224
ENCODING 8740
SWIDTH 400 0
DWIDTH 24 0
BBX 24 24 0 -2
BITMAP
000000
180060
0C7FF0
0C0060
000060
010060
8100E0
E200C6
7200FF
360087
060007
040007
0C0007
080007
180007
180007
300007
F00007
300006
30000E
38000C
3803FC
380078
100030
ENDCHAR
STARTCHAR C2225
ENCODING 8741
SWIDTH 400 0
DWIDTH 24 0
BBX 24 24 0 -2
BITMAP
000000
0C0060
0FFFF0
0C0060
0C0060
0C0060
0C0060
0C0060
0C0060
0FFFE0
000060
000060
000060
0C0060
0FFFE0
0C0060
0C0060
0C0060
0C0060
0C0060
0C0060
0FFFE0
0C0060
000060
ENDCHAR
STARTCHAR C2226
ENCODING 8742
SWIDTH 400 0
DWIDTH 24 0
BBX 24 24 0 -2
BITMAP
000000
00000C
7FFFFC
001800
001800
001800
001800
001800
001800
001800
001830
3FFFF8
001800
001800
001800
001800
001800
001800
001800
001800
001804
FFFFFE
000000
000000
ENDCHAR
STARTCHAR C2227
ENCODING 8743
SWIDTH 400 0
DWIDTH 24 0
BBX 24 24 0 -2
BITMAP
000000
000007
FFFFFF
001800
001800
001800
061860
061860
061860
061860
061860
061860
061860
061860
061860
0C1860
0C1860
0C1861
181861
101863
20187F
40183E
801800
001000
ENDCHAR
STARTCHAR C2228
ENCODING 8744
SWIDTH 400 0
DWIDTH 24 0
BBX 24 24 0 -2
BITMAP
000000
30000C
3FFFFE
30C30E
30C30C
30C30C
30C30C
30C30C
30C30C
30C30C
30C30C
30C30C
30C30C
30C30C
30C30C
30C30C
30C30C
30C30C
30C30C
30C30C
30C30C
30C37C
30C31C
300018
ENDCHAR
STARTCHAR C2229
ENCODING 8745
SWIDTH 400 0
DWIDTH 24 0
BBX 24 24 0 -2
BITMAP
000000
60000C
7FFFFE
60C30E
60C30C
60C30C
60C30C
60C30C
60C30C
61830C
61831C
61831C
63033C
6303FC
6601FC
66000C
6C000C
78000C
60000C
60000C
60000C
60007C
60003C
600008
ENDCHAR
STARTCHAR C222a
ENCODING 8746
SWIDTH 400 0
DWIDTH 24 0
BBX 24 24 0 -2
BITMAP
000000
000000
000070
0FFFF8
000030
01C030
00E030
007030
003830
001830
000032
FFFFFF
000030
000030
01C030
00E030
007030
003830
001830
000030
000030
0FFFF0
000020
000000
ENDCHAR
STARTCHAR C222b
ENCODING 8747
SWIDTH 400 0
DWIDTH 24 0
BBX 24 24 0 -2
BITMAP
000000
000038
3FFFF8
038300
0301C0
0600E0
0C0070
180030
000006
FFFFFF
00C000
018000
018000
038060
03FFF0
000060
000060
000060
000060
000060
0000E0
007FC0
000F80
000300
ENDCHAR
STARTCHAR C222c
ENCODING 8748
SWIDTH 400 0
DWIDTH 24 0
BBX 24 24 0 -2
BITMAP
000100
03C1C0
038180
038180
038180
038180
038180
038184
7F81FE
038180
038180
038180
038180
038180
038180
038180
038180
038180
038180
038180
038180
038186
FFFFFF
000000
ENDCHAR
STARTCHAR C222d
ENCODING 8749
SWIDTH 400 0
DWIDTH 24 0
BBX 24 24 0 -2
BITMAP
100000
1C003C
180038
180038
180038
180038
1FFFF8
180038
180038
180038
198038
186038
183838
181C38
180E38
180638
180038
180038
180038
180038
180038
1FFFF8
180010
100000
ENDCHAR
STARTCHAR C222e
ENCODING 8750
SWIDTH 400 0
DWIDTH 24 0
BBX 24 24 0 -2
BITMAP
000040
0003F0
00FFF0
1F9800
001870
0C1870
0718E0
0318C0
00198E
7FFFFE
003000
007000
006018
00FFFC
00400C
00000C
00000C
00000C
00000C
00000C
000018
0003F8
0000F0
000060
ENDCHAR
STARTCHAR C222f
ENCODING 8751
SWIDTH 400 0
DWIDTH 24 0
BBX 24 24 0 -2
BITMAP
001800
001800
001860
001FF0
00FE00
3FF800
001800
001818
3FFFFC
001800
001800
001806
FFFFFF
003800
007800
00D800
019800
031800
061800
0C1800
381800
E01800
001800
001000
ENDCHAR
STARTCHAR C2230
ENCODING 8752
SWIDTH 400 0
DWIDTH 24 0
BBX 24 24 0 -2
BITMAP
000020
0001F0
001FF0
03FC00
1E1800
001800
001800
003838
1FFFF8
001800
001800
001804
7FFFFE
003C00
003C00
006600
006200
00C180
0180C0
030060
06003C
0C001F
300007
E00000
ENDCHAR
STARTCHAR C2231
ENCODING 8753
SWIDTH 400 0
DWIDTH 24 0
BBX 24 24 0 -2
BITMAP
000060
0003F8
01FFF8
3F0000
038200
030180
0600E0
0C0070
180030
300006
FFFFFF
00C000
018000
018060
03FFF0
010070
000060
000060
000060
000060
0000E0
007FC0
000F80
000300
ENDCHAR
STARTCHAR C2232
ENCODING 8754
SWIDTH 400 0
DWIDTH 24 0
BBX 24 24 0 -2
BITMAP
0381C0
0381C0
0381C2
FFFFFF
0381C0
0381C0
0381C0
0381C0
03FF80
040000
070000
060000
060000
060000
060000
060000
060000
060004
06000C
060008
060018
07FFFC
07FFF8
03FFE0
ENDCHAR
STARTCHAR C2233
ENCODING 8755
SWIDTH 400 0
DWIDTH 24 0
BBX 24 24 0 -2
BITMAP
000300
000300
003300
FFFB00
000300
322300
3B7300
337300
337300
336300
366300
366300
66C300
44C300
CC8300
64C300
264300
366300
376301
337301
337303
3373FF
3223FF
0001FE
ENDCHAR
STARTCHAR C2234
ENCODING 8756
SWIDTH 400 0
DWIDTH 24 0
BBX 24 24 0 -2
BITMAP
038004
039C07
071C86
0618E6
0618C6
0C18C6
1C18C6
1C18C6
3C18C6
3C18C6
6C18C6
4C18C6
8C18C6
0C18C6
0C18C6
0C18C6
0C18C6
0C10C6
0C30C6
0C30C6
0C60C6
0C6006
0CC006
0D8006
ENDCHAR
STARTCHAR C2235
ENCODING 8757
SWIDTH 400 0
DWIDTH 24 0
BBX 24 24 0 -2
BITMAP
001800
001C00
003400
006300
0181C0
070070
0FFFDF
30000E
E00070
0FFFF8
0000E0
01F300
031E00
03E1C0
000060
000FC0
007000
01FFF0
000070
0001C0
000700
001C00
007000
007FFC
ENDCHAR
STARTCHAR C2236
ENCODING 8758
SWIDTH 400 0
DWIDTH 24 0
BBX 24 24 0 -2
BITMAP
070008
07401C
067FFC
06638C
0C638C
0C630C
1C630C
1C630C
3C630C
7C630C
7C630C
DC630C
1C630C
1C630C
1C630C
1C630C
1C630C
1C630C
1CC30D
1CC30D
1C8307
1D8303
1F0301
1A0300
ENDCHAR
STARTCHAR C2237
ENCODING 8759
SWIDTH 400 0
DWIDTH 24 0
BBX 24 24 0 -2
BITMAP
003000
001800
003600
006300
00C1C0
0180F0
06007F
1D001F
738004
C30010
03FFF8
060000
0C0180
1BFFC0
3003C0
000E00
001800
00E000
018004
030004
06000C
07FFFC
03FFFC
00FFF8
ENDCHAR
STARTCHAR C2238
ENCODING 8760
SWIDTH 400 0
DWIDTH 24 0
BBX 24 24 0 -2
BITMAP
000000
60000C
7FFFFE
60400C
60700C
60380C
60180C
60186C
6FFFFC
63000C
63000C
63000C
63000C
63000C
63000C
63000C
63800C
63FFEC
60FFEC
60000C
60000C
6000FC
60003C
600018
ENDCHAR
STARTCHAR C2239
ENCODING 8761
SWIDTH 400 0
DWIDTH 24 0
BBX 24 24 0 -2
BITMAP
200008
30001C
3FFFFC
30C30C
30C30C
30C30C
30C30C
30C30C
30C30C
30C30C
30C30C
3FFFFC
30C30C
30C30C
30C30C
30C30C
30C30C
30C30C
30C30C
30C30C
30C30C
30C37C
30C378
208230
ENDCHAR
STARTCHAR C223a
ENCODING 8762
SWIDTH 400 0
DWIDTH 24 0
BBX 24 24 0 -2
BITMAP
000000
60000C
7FFFFE
60000C
660F0C
670E0C
660E0C
660E0C
660F0C
660F0C
66198C
6611CC
6630FC
66607C
66C03C
66800C
66000C
67FFEC
63FFEC
60000C
60000C
6000FC
60003C
600018
ENDCHAR
STARTCHAR C223b
ENCODING 8763
SWIDTH 400 0
DWIDTH 24 0
BBX 24 24 0 -2
BITMAP
000000
200006
3FFFFF
600007
E00004
C00008
800000
038300
03FF80
038300
038300
03C300
03B300
039B00
039B00
039B00
038300
030300
030301
060301
0C0303
1803FF
3001FF
E0007E
ENDCHAR
STARTCHAR C223c
ENCODING 8764
SWIDTH 400 0
DWIDTH 24 0
BBX 24 24 0 -2
BITMAP
038000
038000
038060
03FFF0
0700F0
0700C0
0D8180
18C300
306600
603C00
001C00
007700
00C3C0
0380F8
0E383F
381C0F
C00E00
000600
000000
000000
001F80
01F800
01C000
018000
ENDCHAR
STARTCHAR C223d
ENCODING 8765
SWIDTH 400 0
DWIDTH 24 0
BBX 24 24 0 -2
BITMAP
000000
000007
FFFFFF
000000
000000
318C30
3FCFF8
318E38
318E38
318E38
318E38
318E38
318E38
318E38
318E38
318E38
31BE38
31EE38
31CC38
608C39
601839
C0383F
C0701F
80C00E
ENDCHAR
STARTCHAR C223e
ENCODING 8766
SWIDTH 400 0
DWIDTH 24 0
BBX 24 24 0 -2
BITMAP
000000
000038
1FFFF8
001800
001800
001800
001800
001800
001806
FFFFFF
001800
001800
101800
1C183C
181838
181838
181838
181838
181838
181838
181838
181838
3FFFF8
100030
ENDCHAR
STARTCHAR C223f
ENCODING 8767
SWIDTH 400 0
DWIDTH 24 0
BBX 24 24 0 -2
BITMAP
001000
001C00
001800
001800
0019C0
001FE0
07F800
60180C
70180E
60180C
60180C
60184C
67FFEC
60380C
60180C
60180C
60180C
60180C
60180C
60180C
60100C
60000C
7FFFFC
00000C
ENDCHAR
STARTCHAR C2240
ENCODING 8768
SWIDTH 400 0
DWIDTH 24 0
BBX 24 24 0 -2
BITMAP
020007
038007
01C006
20CCE6
3FFEE6
3000C6
3000C6
3000C6
3000C6
3000C6
3000C6
3000C6
3000C6
3000C6
3000C6
3000C6
3000C6
3000C6
600006
600006
600006
C0007E
80003C
000008
ENDCHAR
STARTCHAR C2241
ENCODING 8769
SWIDTH 400 0
DWIDTH 24 0
BBX 24 24 0 -2
BITMAP
000000
000000
000006
003FFF
000307
018307
7FC307
0C0307
0C0307
0C0307
0C0307
0C0307
0C0607
0C0607
0C0607
0C0E07
0DCC07
3E0C07
F01806
E0180E
00300C
0061FC
00C078
070030
ENDCHAR
STARTCHAR C2242
ENCODING 8770
SWIDTH 400 0
DWIDTH 24 0
BBX 24 24 0 -2
BITMAP
000007
000007
000006
6061C6
7FE1C6
606186
606186
606186
606186
606186
606186
606186
606186
606186
606186
606186
7FE186
606186
604006
000006
000006
00007E
00003C
000008
ENDCHAR
STARTCHAR C2243
ENCODING 8771
SWIDTH 400 0
DWIDTH 24 0
BBX 24 24 0 -2
BITMAP
004000
00E000
07E006
7E1FFF
060307
060307
060307
060307
060307
FFF307
070307
060307
060307
060307
060307
060607
0C0607
0C0E07
1C0C06
18180E
38300C
3061FC
60C078
C38030
ENDCHAR
STARTCHAR C2244
ENCODING 8772
SWIDTH 400 0
DWIDTH 24 0
BBX 24 24 0 -2
BITMAP
000007
0E0007
0C0006
0C01C6
0C21C6
0C71C6
0C71C6
FFFDC6
1C71C6
1C71C6
1871C6
1861C6
1861C6
30C1C6
30C1C6
3DC1C6
0781C6
03E186
067006
0C3006
181006
30007E
60003C
000008
ENDCHAR
STARTCHAR C2245
ENCODING 8773
SWIDTH 400 0
DWIDTH 24 0
BBX 24 24 0 -2
BITMAP
000007
000007
1DDC06
19DCE6
1998E6
1998C6
3398C6
3318C6
3330C6
6230C6
4660C6
CCC0C6
CCC0C6
6660C6
7370C6
3330C6
3398C6
1998C6
199806
18CC06
1CCC06
08C47E
00003C
000008
ENDCHAR
STARTCHAR C2246
ENCODING 8774
SWIDTH 400 0
DWIDTH 24 0
BBX 24 24 0 -2
BITMAP
070000
070000
060000
060000
0E0038
0FFFF8
1C0018
180018
300C18
37FE18
600E18
C00E18
000E18
040E18
07FE18
060438
0603F0
0600E1
060041
060001
060003
07FFFF
07FFFF
01FFFE
ENDCHAR
STARTCHAR C2247
ENCODING 8775
SWIDTH 400 0
DWIDTH 24 0
BBX 24 24 0 -2
BITMAP
0E0000
0E0000
0C0000
1C0006
1FFFFE
180006
300106
300386
67FF86
403006
003006
003006
003066
3FFFF6
003006
003006
003006
003006
00300E
00300C
00300C
0033FC
0031F8
000070
ENDCHAR
STARTCHAR C2248
ENCODING 8776
SWIDTH 400 0
DWIDTH 24 0
BBX 24 24 0 -2
BITMAP
0E0000
0E0000
0C0000
1C0006
1FFFFE
180006
30C006
30C006
618006
418E06
030E06
061C06
07B806
00F006
00E406
01C306
038186
063F86
1FE1CE
0E00CC
04000C
0003FC
0001F8
000070
ENDCHAR
STARTCHAR C2249
ENCODING 8777
SWIDTH 400 0
DWIDTH 24 0
BBX 24 24 0 -2
BITMAP
00C300
00C300
00C300
00C300
00C300
00C300
00C300
00C300
00C304
7FC3FE
01C300
00C300
00C300
00C300
00C300
00C300
00C300
00C301
00C301
00C301
07F303
FE03FF
F001FF
600000
ENDCHAR
STARTCHAR C224a
ENCODING 8778
SWIDTH 400 0
DWIDTH 24 0
BBX 24 24 0 -2
BITMAP
1C0000
1C0000
180010
1FFFF8
180000
180000
180000
1C0000
1FFFFE
07FFFE
000000
000000
000006
FFFFFF
00C300
00C300
018300
018300
030301
060301
0C0303
1803FF
3003FF
E001FE
ENDCHAR
STARTCHAR C224b
ENCODING 8779
SWIDTH 400 0
DWIDTH 24 0
BBX 24 24 0 -2
BITMAP
003800
003800
003000
003018
003FFC
003000
003000
003000
003006
FFFFFF
000000
001C00
001800
001800
001810
3FFFF8
003800
001800
001800
001800
001800
001800
001800
001000
ENDCHAR
STARTCHAR C224c
ENCODING 8780
SWIDTH 400 0
DWIDTH 24 0
BBX 24 24 0 -2
BITMAP
300004
30000E
303FFF
300306
300306
300306
300306
302306
383306
341B06
361F06
330F06
338706
318306
300606
300606
300606
300C06
301806
30180E
30300C
3061FC
30C078
238030
ENDCHAR
STARTCHAR C224d
ENCODING 8781
SWIDTH 400 0
DWIDTH 24 0
BBX 24 24 0 -2
BITMAP
000000
300007
3FFFFF
301C00
301C00
301800
301818
3FFFFC
30180C
30180C
30180C
30180C
30180C
381C1C
3FFFFC
301808
301800
301800
301801
301801
601803
401FFF
C00FFF
8003FE
ENDCHAR
STARTCHAR C224e
ENCODING 8782
SWIDTH 400 0
DWIDTH 24 0
BBX 24 24 0 -2
BITMAP
000078
0003FC
18FFFC
1FE000
180000
180000
180030
19FFF0
18C030
18CC30
18C730
18C330
18C130
18C030
18C7F0
18C0E0
30C040
30C001
30C001
20C001
60C003
C0FFFF
807FFF
001FFE
ENDCHAR
STARTCHAR C224f
ENCODING 8783
SWIDTH 400 0
DWIDTH 24 0
BBX 24 24 0 -2
BITMAP
200000
300007
3FFFFF
300000
300030
31FFF8
300038
300060
3000C0
300300
300300
300300
300306
37FFFF
300300
300300
300300
600300
600300
600300
400300
C03F00
801E00
000C00
ENDCHAR
STARTCHAR C2250
ENCODING 8784
SWIDTH 400 0
DWIDTH 24 0
BBX 24 24 0 -2
BITMAP
200000
300007
3FFFFF
300200
300380
308300
30E300
30C300
30C30C
30C37E
30C7DE
30FF0C
37C30C
30C318
30C318
30C318
30C330
60C300
60C301
60C003
40C002
C0FFFE
80FFFE
003FFC
ENDCHAR
STARTCHAR C2251
ENCODING 8785
SWIDTH 400 0
DWIDTH 24 0
BBX 24 24 0 -2
BITMAP
00E000
00E000
00C000
018000
0300C0
060060
1FFFF0
1F9038
0C1C18
001800
001800
001810
1FFFF8
003800
001800
001800
001806
FFFFFF
001800
001800
001800
001800
001800
001000
ENDCHAR
STARTCHAR C2252
ENCODING 8786
SWIDTH 400 0
DWIDTH 24 0
BBX 24 24 0 -2
BITMAP
000000
701C00
601C00
601800
603000
603010
606018
60C00C
63FFFE
63F207
618382
600300
600300
600700
600780
600CC0
601860
603030
60601E
60C00E
670004
600000
7FFFFF
000000
ENDCHAR
STARTCHAR C2253
ENCODING 8787
SWIDTH 400 0
DWIDTH 24 0
BBX 24 24 0 -2
BITMAP
038000
038008
03BFFC
03880C
63880C
338C0C
3B8C18
1B8418
1F8618
0B8638
038230
038230
038330
038160
0F81E0
3B81C0
F381E0
E383E0
438330
038638
038C1C
03980F
03B006
036000
ENDCHAR
STARTCHAR C2254
ENCODING 8788
SWIDTH 400 0
DWIDTH 24 0
BBX 24 24 0 -2
BITMAP
008000
61C00C
7FDFFE
60C40E
60C40C
68C40C
6CC60C
66C60C
66C20C
67C218
60C318
60C338
60C130
60C1B0
60C0E0
6FC0E0
6780E0
6301E0
6001B0
600318
60061E
600C0F
601807
603000
ENDCHAR
STARTCHAR C2255
ENCODING 8789
SWIDTH 400 0
DWIDTH 24 0
BBX 24 24 0 -2
BITMAP
000000
1C000C
1FFFFC
1C0000
1C0030
1DFFF8
1C0000
1C0000
1C0010
1CFFF8
1C4038
1C4030
1C6060
1C2060
1C30C0
1C1980
180F00
180F00
180F80
3019C0
3070F8
60C03F
C3000F
9C0002
ENDCHAR
STARTCHAR C2256
ENCODING 8790
SWIDTH 400 0
DWIDTH 24 0
BBX 24 24 0 -2
BITMAP
001800
001800
101810
1FFFF8
183838
181838
181838
181838
1819F8
181830
001800
001840
0FFFE0
0300E0
0100C0
018180
00C300
007600
003C00
003E00
00F380
03C0FF
0E003F
F8000F
ENDCHAR
STARTCHAR C2257
ENCODING 8791
SWIDTH 400 0
DWIDTH 24 0
BBX 24 24 0 -2
BITMAP
000000
000070
0C0070
0600E0
0301C0
018180
01C300
10C630
1FFFF8
180038
180038
180038
180038
180038
180038
180038
180038
180038
180038
180038
180038
1FFFF8
180030
180000
ENDCHAR
STARTCHAR C2258
ENCODING 8792
SWIDTH 400 0
DWIDTH 24 0
BBX 24 24 0 -2
BITMAP
000020
000070
0FFFF8
0300E0
0181C0
00C380
007700
003E00
007F80
00E3FE
03807E
3E003C
700000
080030
1FFFF8
1C0038
1C0038
1C0038
1C0038
1C0038
1C0038
1C0038
1FFFF8
180030
ENDCHAR
STARTCHAR C2259
ENCODING 8793
SWIDTH 400 0
DWIDTH 24 0
BBX 24 24 0 -2
BITMAP
000000
0C0060
0FFFF0
0C0060
0C0060
0C0060
0C0060
0C0060
0C0060
0C0060
0FFFE0
0C0060
000000
000000
000020
0FFFF0
000000
000000
000000
000000
000000
000006
FFFFFF
000000
ENDCHAR
STARTCHAR C225a
ENCODING 8794
SWIDTH 400 0
DWIDTH 24 0
BBX 24 24 0 -2
BITMAP
000000
00000C
007FFE
C3180C
FF180C
E3180C
E3180C
E3180C
E319FC
E31818
E31800
E31800
E31806
E31FFF
E31007
E30007
E30007
FF0007
E20007
400007
000006
0003FE
00007C
000018
ENDCHAR
STARTCHAR C225b
ENCODING 8795
SWIDTH 400 0
DWIDTH 24 0
BBX 24 24 0 -2
BITMAP
000038
000038
000030
C61830
FF1830
E71830
E61830
E61830
E61830
E61830
E61830
E61830
E61830
E61830
E61832
E63FFF
E61030
FE0030
E60030
400030
000030
000030
000030
000030
ENDCHAR
STARTCHAR C225c
ENCODING 8796
SWIDTH 400 0
DWIDTH 24 0
BBX 24 24 0 -2
BITMAP
000060
000060
000060
C31860
FF1860
E31860
E31860
E31860
E31860
E31860
E31860
E31860
E31860
E31860
E31860
E33FE0
E310E0
FF0060
E20061
400061
000063
00007F
00007F
00001E
ENDCHAR
STARTCHAR C225d
ENCODING 8797
SWIDTH 400 0
DWIDTH 24 0
BBX 24 24 0 -2
BITMAP
038000
038000
038100
03FF80
030380
070380
060300
040300
0C0600
180600
300C30
7FFFF8
580038
180038
180038
180038
180038
180038
180038
180038
180038
1FFFF8
180030
180000
ENDCHAR
STARTCHAR C225e
ENCODING 8798
SWIDTH 400 0
DWIDTH 24 0
BBX 24 24 0 -2
BITMAP
000040
000070
0E00E0
0381C0
00C380
007700
003E00
003E00
007380
01C0F8
03803F
0E000F
F00002
0C0020
0FFFF0
0C0030
0C0030
0C0030
0C0030
0C0030
0C0030
0C0030
0FFFF0
0C0030
ENDCHAR
STARTCHAR C225f
ENCODING 8799
SWIDTH 400 0
DWIDTH 24 0
BBX 24 24 0 -2
BITMAP
00C300
00C300
00C300
00C300
00C300
40C30C
7FFFFE
61C70E
60C30C
60C30C
60C30C
61830C
61830C
63030C
6303FC
6603FC
6C000C
78000C
60000C
60000C
60000C
60000C
7FFFFC
60000C
ENDCHAR
STARTCHAR C2260
ENCODING 8800
SWIDTH 400 0
DWIDTH 24 0
BBX 24 24 0 -2
BITMAP
0001C0
1E01C0
1C01C0
1C01C0
1C01C0
1C01C0
FF81C0
1C01C0
1C01C2
1C7FFF
1C01C0
1C01C0
1C01C0
1C01C0
1C01C0
1C01C0
1C01C0
1F81C0
1E01C0
F001C0
E001C0
4001C0
0001C0
000180
ENDCHAR
STARTCHAR C2261
ENCODING 8801
SWIDTH 400 0
DWIDTH 24 0
BBX 24 24 0 -2
BITMAP
007000
007000
006000
006004
00E00E
7FFFFE
00C000
018700
018600
030600
030600
060600
0C0618
1BFFFC
300600
600600
800600
000600
000600
000600
000600
000606
0FFFFE
000000
ENDCHAR
STARTCHAR C2262
ENCODING 8802
SWIDTH 400 0
DWIDTH 24 0
BBX 24 24 0 -2
BITMAP
000008
00001C
3FFFFC
00700C
00600C
00600C
00600C
00C00C
00C01C
018018
0303F8
060070
0C1060
301C00
201800
001800
003807
FFFFFF
001800
001800
001800
001800
003838
1FFFF8
ENDCHAR
STARTCHAR C2263
ENCODING 8803
SWIDTH 400 0
DWIDTH 24 0
BBX 24 24 0 -2
BITMAP
00C000
00C000
018080
03FFC0
0301E0
0703C0
0DC700
187E00
603F00
00E7FF
0780FF
3E003C
E1C1C0
01C1C0
018180
018180
018180
018180
018180
038180
030180
060180
0C0180
180180
ENDCHAR
STARTCHAR C2264
ENCODING 8804
SWIDTH 400 0
DWIDTH 24 0
BBX 24 24 0 -2
BITMAP
0601C0
0601C0
060180
060180
0C3186
0FF9FF
0C3987
1C3187
183187
183187
387187
3E7187
676187
C3E187
80C187
00C187
01C187
018187
030182
060180
0C0180
180180
300180
E00180
ENDCHAR
STARTCHAR C2265
ENCODING 8805
SWIDTH 400 0
DWIDTH 24 0
BBX 24 24 0 -2
BITMAP
000000
300038
3FFFF8
304038
307038
306038
306038
30E338
30FFB8
30C338
318338
318338
33C338
327338
343E38
301E38
300C38
301C39
303819
307019
60E01F
61C00F
C30007
840003
ENDCHAR
STARTCHAR C2266
ENCODING 8806
SWIDTH 400 0
DWIDTH 24 0
BBX 24 24 0 -2
BITMAP
001800
001800
001800
001806
FFFFFF
001800
061840
061860
0C1838
18181C
30180C
603804
403C00
003400
007600
006200
00C100
00C180
0180C0
030070
06003C
0C001F
30000E
E00000
ENDCHAR
STARTCHAR C2267
ENCODING 8807
SWIDTH 400 0
DWIDTH 24 0
BBX 24 24 0 -2
BITMAP
000E00
1E0E00
1C0C00
1C0C00
1D8C00
1D8C00
FFCC00
F98C00
198C06
198FFF
198C00
318C00
338C00
338C00
330C00
3F0C00
0E0C00
0F0C00
0D8C01
18CC01
300C03
600FFF
800FFF
0003FE
ENDCHAR
STARTCHAR C2268
ENCODING 8808
SWIDTH 400 0
DWIDTH 24 0
BBX 24 24 0 -2
BITMAP
000000
000038
1FFFF8
0000F0
0001C0
000300
000E00
001800
001800
001806
FFFFFF
001800
001800
001C0C
001FFC
001800
001804
001FFE
001800
001800
001800
01F800
007800
003000
ENDCHAR
STARTCHAR C2269
ENCODING 8809
SWIDTH 400 0
DWIDTH 24 0
BBX 24 24 0 -2
BITMAP
000000
000038
1FFFF8
0000F0
0001C0
000380
000E00
001800
001800
001800
001800
001806
FFFFFF
001800
061800
0718C0
061860
0C1830
181818
10180C
20180C
43F804
00F000
006000
ENDCHAR
STARTCHAR C226a
ENCODING 8810
SWIDTH 400 0
DWIDTH 24 0
BBX 24 24 0 -2
BITMAP
000008
00001C
3FFFFC
003800
003880
0030E0
003070
003030
003004
7FFFFE
003000
003400
003F00
007E00
006E00
006E00
00CE00
018E01
018E01
030E01
060E03
0C07FF
3003FF
E00000
ENDCHAR
STARTCHAR C226b
ENCODING 8811
SWIDTH 400 0
DWIDTH 24 0
BBX 24 24 0 -2
BITMAP
1C0000
1C0038
1C0FF8
1C0438
1C0438
1C4630
FFE630
1F8230
1F8260
1F8260
1F8360
1F81C0
1F81C0
1B81C0
1B83C0
1B8360
338630
338C3C
33981D
33B00D
63C003
63FFFF
C1FFFF
80FFFE
ENDCHAR
STARTCHAR C226c
ENCODING 8812
SWIDTH 400 0
DWIDTH 24 0
BBX 24 24 0 -2
BITMAP
000000
0C0038
0FFFF8
0C0038
0C0038
0C0038
0C0038
0C0038
0C0038
0FFFF8
0C0010
0C0700
0C0700
0C0600
0C0600
0C0600
0C0D00
1C0D80
1818C0
181860
303038
70601F
60C00E
C70000
ENDCHAR
STARTCHAR C226d
ENCODING 8813
SWIDTH 400 0
DWIDTH 24 0
BBX 24 24 0 -2
BITMAP
001800
001800
38181C
38181C
301818
301818
3FFFF8
303818
001800
001800
001808
3FFFFC
001800
001800
001800
001806
FFFFFF
001800
001800
001800
001800
001800
001800
001000
ENDCHAR
STARTCHAR C226e
ENCODING 8814
SWIDTH 400 0
DWIDTH 24 0
BBX 24 24 0 -2
BITMAP
000000
0E080C
0C0FFE
0C0C0E
0C0C0C
4C8C0C
ECCC0C
ECCC0C
ECCC0C
ECCC0C
ECCC0C
ECCC0C
ECCC0C
ECCC0C
ECCCFC
ECCC18
ECCC00
ECCC00
FFCC01
008C01
000C03
000FFF
000FFF
0003FE
ENDCHAR
STARTCHAR C226f
ENCODING 8815
SWIDTH 400 0
DWIDTH 24 0
BBX 24 24 0 -2
BITMAP
001800
301818
38181C
301818
301818
301818
3FFFF8
000018
080060
1FFFF0
1C0070
1C0060
1C0060
1C0060
1C0060
1C3FE0
1C01C0
1C0080
1C0004
1C0004
1C000C
1FFFFC
0FFFFC
07FFF8
ENDCHAR
STARTCHAR C2270
ENCODING 8816
SWIDTH 400 0
DWIDTH 24 0
BBX 24 24 0 -2
BITMAP
000000
1E000C
1C3FFE
1C1C0C
1C1C0C
5D180C
DDD80C
DD980C
DD9BFC
DD987C
DD9818
DD9800
DD9806
DD9FFF
DD9807
DD8007
DD8007
DD8007
FF8007
018007
000006
0001FE
00007C
000038
ENDCHAR
STARTCHAR C2271
ENCODING 8817
SWIDTH 400 0
DWIDTH 24 0
BBX 24 24 0 -2
BITMAP
100000
1C003C
180038
180038
180038
180038
180038
180038
1FFFF8
001010
001C00
001800
001800
301818
38181C
301818
301818
301818
301818
301818
301818
3FFFF8
300018
000000
ENDCHAR
STARTCHAR C2272
ENCODING 8818
SWIDTH 400 0
DWIDTH 24 0
BBX 24 24 0 -2
BITMAP
038000
038000
038040
03FFE0
0700E0
0600C0
0C0180
0C0100
180200
300400
600000
001C00
001800
001800
38181C
38181C
301818
301818
301818
301818
301818
3FFFF8
300018
000000
ENDCHAR
STARTCHAR C2273
ENCODING 8819
SWIDTH 400 0
DWIDTH 24 0
BBX 24 24 0 -2
BITMAP
000100
03C1C0
038180
038180
038180
038180
038181
030181
070183
0E01FF
1C01FF
70107E
C01C00
001800
301810
38181C
301818
301818
301818
301818
301818
3FFFF8
300018
000000
ENDCHAR
STARTCHAR C2274
ENCODING 8820
SWIDTH 400 0
DWIDTH 24 0
BBX 24 24 0 -2
BITMAP
0007F8
30FFFC
3FE000
300000
300000
31001C
33FFFC
33800C
33800C
33800C
33800C
33800C
33800C
33801C
33FFF8
338000
338000
338000
338002
238002
638006
43FFFE
81FFFE
00FFFC
ENDCHAR
STARTCHAR C2275
ENCODING 8821
SWIDTH 400 0
DWIDTH 24 0
BBX 24 24 0 -2
BITMAP
000000
000007
FFFFFF
071800
0C1800
181800
301818
FFFFFC
301818
301818
301818
301818
301818
301818
301818
301818
301818
301818
3019F8
301878
301830
001800
001800
001000
ENDCHAR
STARTCHAR C2276
ENCODING 8822
SWIDTH 400 0
DWIDTH 24 0
BBX 24 24 0 -2
BITMAP
01C000
038000
0700C0
0E0060
1C03F8
3FFE18
1C1808
001800
001810
3FFFF8
38381C
301818
301818
301818
301818
301818
301818
301818
301818
301838
301BF8
301830
001800
001000
ENDCHAR
STARTCHAR C2277
ENCODING 8823
SWIDTH 400 0
DWIDTH 24 0
BBX 24 24 0 -2
BITMAP
000020
0E0070
0C00FE
1C00E0
1800C0
3800C0
3000C0
2180C0
61C0C0
6380C0
3300C0
1F00C0
0E00C0
0C00C0
0C00C0
1800C0
3180C0
30C0C0
67C180
FCC300
E04600
401FFF
001C00
000800
ENDCHAR
STARTCHAR C2278
ENCODING 8824
SWIDTH 400 0
DWIDTH 24 0
BBX 24 24 0 -2
BITMAP
001000
003800
007000
00C100
038380
03C700
00FC00
007000
01C060
0707F8
3FFE38
1FC018
087000
007000
007008
3FFFFC
00601C
00E00C
01C00C
03800C
070018
0E03F8
1800F0
E00060
ENDCHAR
STARTCHAR C2279
ENCODING 8825
SWIDTH 400 0
DWIDTH 24 0
BBX 24 24 0 -2
BITMAP
001800
003800
003C00
006600
00C300
0181C0
0300F8
0C003F
38000F
E381C2
0381C0
0381C0
0381C0
0381C6
FFFFFF
0381C0
0381C0
0301C0
0301C0
0601C0
0601C0
0C01C0
1801C0
300180
ENDCHAR
STARTCHAR C227a
ENCODING 8826
SWIDTH 400 0
DWIDTH 24 0
BBX 24 24 0 -2
BITMAP
000020
000070
1FFFF8
000030
000030
000030
1FFFF0
1C0030
180020
180000
300018
3FFFFC
30001C
000818
0FFC18
000018
000018
000118
7FFF98
000030
000070
000FE0
0003C0
000180
ENDCHAR
STARTCHAR C227b
ENCODING 8827
SWIDTH 400 0
DWIDTH 24 0
BBX 24 24 0 -2
BITMAP
000020
000070
1FFFF8
000030
080030
1FFFE0
180000
180020
3FFFF0
100030
000030
080030
1FFFF0
180000
180010
1FFFF8
10001C
000018
000018
000018
000038
000FF0
0001E0
0000C0
ENDCHAR
STARTCHAR C227c
ENCODING 8828
SWIDTH 400 0
DWIDTH 24 0
BBX 24 24 0 -2
BITMAP
020000
07000C
FF8FFE
03000C
03000C
03080C
030C0C
7F040C
620418
600218
600238
E30330
FF8330
038160
0381C0
0381C0
0381C0
0383E0
038770
030E38
071C1C
FE380F
3C7006
19C000
ENDCHAR
STARTCHAR C227d
ENCODING 8829
SWIDTH 400 0
DWIDTH 24 0
BBX 24 24 0 -2
BITMAP
000000
000038
3FFFF8
001838
001838
001838
201838
3FFFF8
301830
701800
601800
60180E
7FFFFF
003806
007806
007806
00D806
01980E
0319FC
061878
0C1830
301800
C01800
001000
ENDCHAR
STARTCHAR C227e
ENCODING 8830
SWIDTH 400 0
DWIDTH 24 0
BBX 24 24 0 -2
BITMAP
020700
070700
FF8600
030600
030600
030610
033FF8
7F0638
620638
600638
600638
E30638
FF8638
038638
038E38
038E38
038C38
038C38
039838
031839
073039
FE203F
3C401F
18800E
ENDCHAR
STARTCHAR C2321
ENCODING 8993
SWIDTH 400 0
DWIDTH 24 0
BBX 24 24 0 -2
BITMAP
0201C0
0701C0
FF8180
030180
030180
030180
030180
7F0180
620180
600180
6003C0
E303C0
FF8340
038340
038660
038660
038620
038C30
038C18
031818
07300C
FE600F
3CC007
198003
ENDCHAR
STARTCHAR C2322
ENCODING 8994
SWIDTH 400 0
DWIDTH 24 0
BBX 24 24 0 -2
BITMAP
000040
0003E0
00FFE0
3F1800
001800
001830
3FFFF8
001838
001838
3FFFF8
383830
301800
301804
30380E
7FFFFF
001806
001806
001806
001806
0019FC
001838
001810
001800
001000
ENDCHAR
STARTCHAR C2323
ENCODING 8995
SWIDTH 400 0
DWIDTH 24 0
BBX 24 24 0 -2
BITMAP
001800
003800
007400
00E300
01C1C0
0700F0
0E003F
38006F
E7FFE2
000060
000060
07FFE0
0E0040
0C0000
1C0070
1FFFF8
000030
000030
000030
000060
000060
003FE0
0003C0
000180
ENDCHAR
STARTCHAR C2324
ENCODING 8996
SWIDTH 400 0
DWIDTH 24 0
BBX 24 24 0 -2
BITMAP
000004
00C006
FFE00E
18C01C
18C038
18C070
18C0E0
18C300
199806
19FC0E
199C0C
181818
181830
181860
1819C0
181B07
301807
30180E
30181C
301838
603070
47F0E0
C1E180
80C600
ENDCHAR
STARTCHAR C2325
ENCODING 8997
SWIDTH 400 0
DWIDTH 24 0
BBX 24 24 0 -2
BITMAP
000000
0001C0
7FFFE0
0601C0
060180
060180
060304
06038E
0603FF
060C06
061C06
063086
0EC1C6
0C0306
0C1E06
0C78E6
0DC1E6
1C0786
181C06
10700C
33C01C
3007FC
600038
C00020
ENDCHAR
STARTCHAR C2326
ENCODING 8998
SWIDTH 400 0
DWIDTH 24 0
BBX 24 24 0 -2
BITMAP
1C0000
1C100C
1C1FFE
1C180E
1C180C
1C180C
3E180C
7F180C
7F980C
DD180C
DC180C
9C180C
1C180C
1C180C
1C18FC
1C1818
1C1800
1C1800
1C1801
1C1801
1C1803
1C1FFF
1C1FFF
180FFE
ENDCHAR
STARTCHAR C2327
ENCODING 8999
SWIDTH 400 0
DWIDTH 24 0
BBX 24 24 0 -2
BITMAP
0001F0
000FF8
07FE00
060000
060008
07FFFC
06000C
06000C
06000C
06000C
06000C
07FFFC
0601C0
0601C0
060180
0C0180
0C0180
0C0181
1C0181
180181
180183
3001FF
2001FF
40007E
ENDCHAR
STARTCHAR C2328
ENCODING 9000
SWIDTH 400 0
DWIDTH 24 0
BBX 24 24 0 -2
BITMAP
0001C0
000FE0
00FFE0
1F1800
001800
001808
3FFFFC
003800
001800
001800
003807
FFFFFF
003000
003180
007FC0
0061C0
00C1C0
00C1C1
0181C1
0301C1
0601C3
1C01FF
3000FF
E0003E
ENDCHAR
STARTCHAR C2329
ENCODING 9001
SWIDTH 400 0
DWIDTH 24 0
BBX 24 24 0 -2
BITMAP
0E0000
0E0007
0C3FFF
0C0E00
0C0C00
0C8C00
FFCC00
0C1804
0C1FFE
0C1806
0C0006
0F8006
3E0006
FC0006
EC0006
4C0006
0C0006
0C000E
0C000C
0C000C
0C0018
FC0FF0
3C01E0
1800C0
ENDCHAR
STARTCHAR C232a
ENCODING 9002
SWIDTH 400 0
DWIDTH 24 0
BBX 24 24 0 -2
BITMAP
0E0000
0E0008
0C000E
0C000C
0C100C
0C980C
FFC818
0C0818
0C0C18
0C0C38
0C0430
0F8670
3E0260
FC0360
EC03C0
4C01C0
0C03C0
0C03E0
0C0670
0C0E38
0C1C1C
FC380F
3C7006
18C000
ENDCHAR
STARTCHAR C232b
ENCODING 9003
SWIDTH 400 0
DWIDTH 24 0
BBX 24 24 0 -2
BITMAP
000000
000007
FFFFFF
000000
000000
080030
1FFFF8
1C0038
1C0038
1C0038
1C0038
1C0038
1C0038
1FFFF8
1C0038
1C0038
1C0038
1C0038
1C0038
1C0038
1C0038
1FFFF8
180010
000000
ENDCHAR
STARTCHAR C232c
ENCODING 9004
SWIDTH 400 0
DWIDTH 24 0
BBX 24 24 0 -2
BITMAP
000004
00000E
411FFF
FF800C
E38018
E38030
E38060
E380C0
E38180
E38300
E38600
FF8600
E38C00
E39800
E39800
E39800
E3B000
E3B000
FFB001
C13001
003803
001FFF
000FFF
0003FE
ENDCHAR
STARTCHAR C232d
ENCODING 9005
SWIDTH 400 0
DWIDTH 24 0
BBX 24 24 0 -2
BITMAP
00C000
00C000
018010
1FFFF8
180038
180038
180038
180038
180038
1FFFF8
180038
180038
180038
180038
1FFFF8
180038
180038
180038
180038
180038
180038
1803F8
1800F0
180060
ENDCHAR
STARTCHAR C232e
ENCODING 9006
SWIDTH 400 0
DWIDTH 24 0
BBX 24 24 0 -2
BITMAP
000004
00000E
7FFFFE
007000
007000
007000
007000
007000
0071E0
0071C0
0071C0
0071C0
3FF1C0
0071C0
0071C0
0071C0
0071C0
0071C0
0071C0
0071C0
0071C0
0071C6
FFFFFF
000000
ENDCHAR
STARTCHAR C232f
ENCODING 9007
SWIDTH 400 0
DWIDTH 24 0
BBX 24 24 0 -2
BITMAP
001800
001800
001800
101818
181818
0C1830
061820
061840
023880
003400
006600
00E300
00C380
0181C0
0300E0
060078
0C003F
38000F
E00002
000000
000002
FFFFFF
000000
000000
ENDCHAR
STARTCHAR C2330
ENCODING 9008
SWIDTH 400 0
DWIDTH 24 0
BBX 24 24 0 -2
BITMAP
00E000
67E004
7EC7FE
66C006
66C00C
66C018
66C030
66C060
66C0C0
66C180
66C300
66C601
66CE01
666E01
666FFF
6667FF
663000
663000
661800
461C00
C60F00
C607FF
8601FF
04007C
ENDCHAR
STARTCHAR C2331
ENCODING 9009
SWIDTH 400 0
DWIDTH 24 0
BBX 24 24 0 -2
BITMAP
000000
000006
73FFFF
738000
638000
638000
638000
638000
638000
7F8000
638000
038000
038000
7F8000
638000
638000
638000
638000
630000
630000
630000
C60000
840000
080000
ENDCHAR
STARTCHAR C2332
ENCODING 9010
SWIDTH 400 0
DWIDTH 24 0
BBX 24 24 0 -2
BITMAP
020000
63000C
373FFE
1E180C
1C180C
1C180C
36180C
66180C
C2180C
0318FC
071818
071802
0F9FFF
1B9807
338007
638007
C38007
838007
038007
030006
07000E
7E07FC
1E01F8
0C0070
ENDCHAR
STARTCHAR C2333
ENCODING 9011
SWIDTH 400 0
DWIDTH 24 0
BBX 24 24 0 -2
BITMAP
000000
00000C
3FFFFC
001800
001800
001830
1FFFF8
001800
001800
001806
FFFFFF
00C000
00C000
018008
03FFFC
01000C
00000C
00000C
00001C
000018
000038
001FF0
0003E0
0001C0
ENDCHAR
STARTCHAR C2334
ENCODING 9012
SWIDTH 400 0
DWIDTH 24 0
BBX 24 24 0 -2
BITMAP
0E0070
0E0070
0C0060
0C0060
0FFFE0
0C0060
0C0060
0C0060
0C0060
0C0060
0C0060
0C0060
0FFE60
0C0060
0C0060
0C0060
0C0060
0C0060
0C0060
0C0060
0C0060
0FFFE0
0C0060
0C0000
ENDCHAR
STARTCHAR C2335
ENCODING 9013
SWIDTH 400 0
DWIDTH 24 0
BBX 24 24 0 -2
BITMAP
001800
301818
38181C
301818
301818
301818
301818
3FFFF8
001818
001800
001800
001800
001818
3FFFFC
001800
001800
001800
001800
001800
001800
001800
001806
FFFFFF
000000
ENDCHAR
STARTCHAR C2336
ENCODING 9014
SWIDTH 400 0
DWIDTH 24 0
BBX 24 24 0 -2
BITMAP
000000
00000C
3FFFFC
001800
001800
001800
001800
0C1800
0E1800
0C1800
0C1818
0C1FFC
0C1800
0C1800
0C1800
0C1800
0E1800
1E1800
1B1800
119800
30F800
307FFF
601FFF
C00FFC
ENDCHAR
STARTCHAR C2337
ENCODING 9015
SWIDTH 400 0
DWIDTH 24 0
BBX 24 24 0 -2
BITMAP
018000
018000
030000
220018
3FFFFC
30C30C
30C30C
30C30C
30C30C
31830C
31830C
33030C
3203FC
3401FC
38000C
30000C
30000C
30000C
30000C
30000C
30000C
3001FC
300078
200030
ENDCHAR
STARTCHAR C2338
ENCODING 9016
SWIDTH 400 0
DWIDTH 24 0
BBX 24 24 0 -2
BITMAP
0700E0
0700E0
0660C2
FFE7FF
0600C0
0600C0
000000
000060
3FFFF0
000060
000060
000060
000060
000060
000060
000060
000060
000030
000032
000032
00001E
00001C
00000E
000006
ENDCHAR
STARTCHAR C2339
ENCODING 9017
SWIDTH 400 0
DWIDTH 24 0
BBX 24 24 0 -2
BITMAP
003000
007000
02C0E0
03FFE0
030060
030060
032060
031860
031C60
030E60
030E60
030660
030060
030060
031FE0
3FFC60
7E0060
300060
000060
000060
000060
000FE0
0003C0
000180
ENDCHAR
STARTCHAR C233a
ENCODING 9018
SWIDTH 400 0
DWIDTH 24 0
BBX 24 24 0 -2
BITMAP
003000
007000
02C0E0
03FFE0
030060
030060
030060
030060
030060
030060
030060
030067
03006E
03007C
031FF8
3FFCE0
7E01E0
300760
001C60
007060
01C060
070FE0
3803C0
E00180
ENDCHAR
STARTCHAR C233b
ENCODING 9019
SWIDTH 400 0
DWIDTH 24 0
BBX 24 24 0 -2
BITMAP
020700
030180
0700E0
0E0078
1C001C
38000F
E06003
03F000
3F0000
300000
300000
300000
300000
300000
300000
300000
300000
300000
300000
300000
380000
EFFFFF
C3FFFF
80FFFC
ENDCHAR
STARTCHAR C233c
ENCODING 9020
SWIDTH 400 0
DWIDTH 24 0
BBX 24 24 0 -2
BITMAP
020040
03FFE0
030E00
030E00
030E40
03FFE0
030E00
030E00
030E40
037FE0
030000
030000
030000
030000
030000
030000
030000
030000
030000
030000
030000
030000
030000
030000
ENDCHAR
STARTCHAR C233d
ENCODING 9021
SWIDTH 400 0
DWIDTH 24 0
BBX 24 24 0 -2
BITMAP
0004E0
07FEE0
0060C0
0060C0
0064C0
07FEC0
0060C0
0060C0
0064C0
03FEC0
0000C0
0000C0
0000C0
0000C0
0000C0
0000C0
0000C0
0000C0
0000C0
0000C0
0000C0
0000C0
0000C0
0000C0
ENDCHAR
STARTCHAR C233e
ENCODING 9022
SWIDTH 400 0
DWIDTH 24 0
BBX 24 24 0 -2
BITMAP
000000
00C007
FFC3FF
000000
000000
000000
008200
61C30C
7FC3FE
60C30C
60C30C
60C30C
60C30C
60C30C
60C30C
60C30C
60C30C
60C30C
60C30C
60C30C
60C30C
63C33C
61C31C
618208
ENDCHAR
STARTCHAR C233f
ENCODING 9023
SWIDTH 400 0
DWIDTH 24 0
BBX 24 24 0 -2
BITMAP
000004
00000E
7FFFFE
007000
006000
00C000
018000
0300C0
060060
0C0030
181FF8
3FF81C
30180C
001800
071880
061860
0E1830
0C1838
181818
30180C
60180C
C3F804
00F000
006000
ENDCHAR
STARTCHAR C2340
ENCODING 9024
SWIDTH 400 0
DWIDTH 24 0
BBX 24 24 0 -2
BITMAP
000000
000007
FFFFFF
018300
018300
038300
030301
060303
0C03FF
1801FF
600000
800002
FFFFFF
018380
018300
018300
018300
030300
030300
060301
0C0303
1803FF
3001FF
E000FE
ENDCHAR
STARTCHAR C2341
ENCODING 9025
SWIDTH 400 0
DWIDTH 24 0
BBX 24 24 0 -2
BITMAP
001800
001800
001800
001800
201808
3FFFFC
30180C
30180C
30180C
30180C
3FFFFC
201808
001800
001830
001FF0
001800
001800
001830
001FF0
001800
001800
001800
001800
001000
ENDCHAR
STARTCHAR C2342
ENCODING 9026
SWIDTH 400 0
DWIDTH 24 0
BBX 24 24 0 -2
BITMAP
003000
001800
001804
7FFFFE
600006
600006
600006
600006
630106
7F81FE
038180
038180
038180
038187
FFFFFF
038180
030180
030180
060180
060180
0C0180
180180
300180
600180
ENDCHAR
STARTCHAR C2343
ENCODING 9027
SWIDTH 400 0
DWIDTH 24 0
BBX 24 24 0 -2
BITMAP
006000
006000
00C000
118018
1FFFFC
18C318
18C318
18C318
18C318
18C318
18C318
18C318
FFFFFF
18E718
18C318
18C318
18C318
18C318
18C318
18C318
18C318
18C318
18C3F8
180230
ENDCHAR
STARTCHAR C2344
ENCODING 9028
SWIDTH 400 0
DWIDTH 24 0
BBX 24 24 0 -2
BITMAP
000020
000070
7FFFF8
00E030
00E030
00C030
00C030
00E630
0FFE30
00C030
00C030
00C030
00C130
3FFFB0
01E030
01F030
03F030
07D830
0ECE39
1CC719
38C3DB
70C18F
C0C00E
00C006
ENDCHAR
STARTCHAR C2345
ENCODING 9029
SWIDTH 400 0
DWIDTH 24 0
BBX 24 24 0 -2
BITMAP
000180
7FFFCC
0001CE
0001F8
0001E0
0001F8
0001DC
0000CD
0000E1
000073
00003B
00039F
FFFFC7
00019C
0001B8
0001E0
0001E0
0001B8
0000DC
0000CD
000061
00007B
00003F
00000F
ENDCHAR
STARTCHAR C2346
ENCODING 9030
SWIDTH 400 0
DWIDTH 24 0
BBX 24 24 0 -2
BITMAP
0001F0
0C0FF0
0FFE00
0C0000
0C0000
0C0018
0FFFFC
0C0000
0C0000
0C0000
0FFFFC
07FFFC
000000
061040
071C70
061860
061860
061860
061860
0C1860
0C1860
18187E
30187F
E0101F
ENDCHAR
STARTCHAR C2347
ENCODING 9031
SWIDTH 400 0
DWIDTH 24 0
BBX 24 24 0 -2
BITMAP
000030
1FFFF8
0000F8
000700
001C00
001800
001800
001800
001800
01F800
003800
001000
000000
00C007
FFE7FF
01C00C
020030
060060
060060
060060
060060
3E03E0
1E01E0
0C00C0
ENDCHAR
STARTCHAR C2348
ENCODING 9032
SWIDTH 400 0
DWIDTH 24 0
BBX 24 24 0 -2
BITMAP
000004
00000E
7FFFFE
038000
038000
038000
0380C0
03FFE0
030860
030C60
031860
073060
06E360
0607E0
060CC0
0618C0
0670C0
0DC0C0
0C00C0
0001C0
0001C0
0001C0
0001C7
FFFFFF
ENDCHAR
STARTCHAR C2349
ENCODING 9033
SWIDTH 400 0
DWIDTH 24 0
BBX 24 24 0 -2
BITMAP
001800
001800
001BFC
3FFFFC
001800
101810
1C183C
181838
181838
1FFFF8
103830
001802
001806
001806
001FFE
000FFC
000000
000018
3FFFFC
000000
000000
000000
000007
FFFFFF
ENDCHAR
STARTCHAR C234a
ENCODING 9034
SWIDTH 400 0
DWIDTH 24 0
BBX 24 24 0 -2
BITMAP
00C000
007000
003800
001800
001807
FFFFFF
000000
0701E0
0701C0
0601C0
0601C0
0601C0
0601C0
0601C0
0701C0
0781E0
0CC320
0CC330
186630
186E18
301C1C
70380F
607007
C0C003
ENDCHAR
STARTCHAR C234b
ENCODING 9035
SWIDTH 400 0
DWIDTH 24 0
BBX 24 24 0 -2
BITMAP
001800
001800
003C00
006600
00C300
0181C0
0700F8
0D843F
398E0F
E18E02
030E00
030E00
060E0C
060FFE
0E0E00
1E0E00
360E00
660E00
060E01
060E03
060E02
060FFE
0607FE
0603FC
ENDCHAR
STARTCHAR C234c
ENCODING 9036
SWIDTH 400 0
DWIDTH 24 0
BBX 24 24 0 -2
BITMAP
038600
038300
070182
06FFFF
060000
0C0000
1C0018
1C3FFC
3C001C
3C0030
6C0040
4C0180
8C0180
0C0180
0C0180
0C0180
0C0180
0C0180
0C0180
0C0180
0C0180
0C1F80
0C0F00
0C0200
ENDCHAR
STARTCHAR C234d
ENCODING 9037
SWIDTH 400 0
DWIDTH 24 0
BBX 24 24 0 -2
BITMAP
038000
03800C
07FFFE
061830
061830
0C1830
1C1830
1C1830
3C1830
3C1830
6C1C37
4CFFFF
8C1830
0C1830
0C1830
0C1830
0C1830
0C3030
0C3030
0C3030
0C6030
0C6030
0CC030
0D8030
ENDCHAR
STARTCHAR C234e
ENCODING 9038
SWIDTH 400 0
DWIDTH 24 0
BBX 24 24 0 -2
BITMAP
038E00
038E00
070E00
060E00
060C06
0C0FFF
1C0DC7
1C19CC
3C19C8
3C31C0
6C21C0
4C01C0
8C01C0
0C01E0
0C0320
0C0320
0C0330
0C0630
0C0C18
0C0C0C
0C180E
0C3007
0C6007
0DC000
ENDCHAR
STARTCHAR C234f
ENCODING 9039
SWIDTH 400 0
DWIDTH 24 0
BBX 24 24 0 -2
BITMAP
1C00C0
1C00C0
1801E0
1801B0
180318
19031C
FF860F
19CC07
199B38
19A338
198338
198338
198338
198338
198338
118638
318638
318C38
318839
319011
618003
61FFFF
C0FFFF
807FFE
ENDCHAR
STARTCHAR C2350
ENCODING 9040
SWIDTH 400 0
DWIDTH 24 0
BBX 24 24 0 -2
BITMAP
001800
001800
003800
007400
00E300
01C180
0300E0
060038
1C001F
3701CE
C70700
063C00
07E0E0
0701C0
060E00
067870
0781E0
060F00
067802
078002
060006
07FFFE
03FFFE
00FFFC
ENDCHAR
STARTCHAR C2351
ENCODING 9041
SWIDTH 400 0
DWIDTH 24 0
BBX 24 24 0 -2
BITMAP
001800
003800
007C00
00C600
018300
0301E0
0610F8
0C183F
38380F
E06602
00C300
0181E0
0300FF
0FFF3F
38000F
E00000
0001C0
07FFE0
000180
000180
000300
000600
000C00
001800
ENDCHAR
STARTCHAR C2352
ENCODING 9042
SWIDTH 400 0
DWIDTH 24 0
BBX 24 24 0 -2
BITMAP
006000
003000
001800
001800
000807
FFFFFF
006000
00C000
0180E0
030070
060038
0FFFFC
0FF38C
04E38C
00C300
00C300
00C300
018300
038301
030301
070303
0E03FF
1C01FF
70007E
ENDCHAR
STARTCHAR C2353
ENCODING 9043
SWIDTH 400 0
DWIDTH 24 0
BBX 24 24 0 -2
BITMAP
000004
00000E
7FFFFE
000000
003000
201800
201806
3FFFFF
600007
E00004
C3C388
838380
038300
038300
038300
038300
038300
030300
030301
060301
0C0303
1803FF
3001FF
E0007E
ENDCHAR
STARTCHAR C2354
ENCODING 9044
SWIDTH 400 0
DWIDTH 24 0
BBX 24 24 0 -2
BITMAP
000000
000038
0FFFF8
000038
000038
000038
1FFFF8
002030
003000
001800
001806
FFFFFF
000000
03C380
038380
038300
038300
030300
030301
060301
0C0303
1803FF
3001FF
E0007E
ENDCHAR
STARTCHAR C2355
ENCODING 9045
SWIDTH 400 0
DWIDTH 24 0
BBX 24 24 0 -2
BITMAP
003000
001800
003600
006300
00C1C0
0180F0
07007F
1C001F
700044
C7FFE0
000000
000000
000000
00000C
3FFFFC
018300
018300
018300
038300
030300
060300
0C0300
180300
600300
ENDCHAR
STARTCHAR C2356
ENCODING 9046
SWIDTH 400 0
DWIDTH 24 0
BBX 24 24 0 -2
BITMAP
003000
001800
003600
006300
00C1C0
0180F0
07107F
1C1C1F
701804
C01830
001FF0
001800
001800
003860
1FFFF0
0100E0
0081C0
006300
003C00
007E00
01E780
0781FF
1C003F
F0000E
ENDCHAR
STARTCHAR C2357
ENCODING 9047
SWIDTH 400 0
DWIDTH 24 0
BBX 24 24 0 -2
BITMAP
001800
061880
071860
0E1838
1C1818
381808
201800
003818
1FFFF8
001800
001800
003000
003006
FFFFFF
007400
006200
00C300
00C180
0180C0
030060
060038
0C001F
30000E
E00004
ENDCHAR
STARTCHAR C2358
ENCODING 9048
SWIDTH 400 0
DWIDTH 24 0
BBX 24 24 0 -2
BITMAP
006000
00E000
00C000
218008
33001C
3FFFFC
30000C
30C60C
30E70C
30C60C
30C60C
30C66C
3FFFEC
30C60C
30C60C
30C60C
31860C
3187EC
3303FC
36000C
30000C
3001FC
300078
200030
ENDCHAR
STARTCHAR C2359
ENCODING 9049
SWIDTH 400 0
DWIDTH 24 0
BBX 24 24 0 -2
BITMAP
000020
08C670
1FE7F8
1CC630
1CC630
1CC630
1CC630
1CC634
7FFFFE
1CC630
1CC630
1CC630
1CC630
1CE637
FFFFFF
1CC630
1CC630
1CC630
1CC630
1CC630
1CC630
1FC6F0
1DC670
188660
ENDCHAR
STARTCHAR C235a
ENCODING 9050
SWIDTH 400 0
DWIDTH 24 0
BBX 24 24 0 -2
BITMAP
000000
300038
3FFFFC
30C318
30C318
30C318
30C318
30C318
FFFFFF
30C318
30C318
30C318
30C318
39C71B
FFFFFF
30C318
30C318
30C318
30C318
30C318
30C318
30C378
30C378
308230
ENDCHAR
STARTCHAR C235b
ENCODING 9051
SWIDTH 400 0
DWIDTH 24 0
BBX 24 24 0 -2
BITMAP
000000
200006
3FFFFF
600007
C00004
C00008
000030
1FFFF0
001800
001800
001800
001800
001806
7FFFFE
003000
007400
006600
00E300
01C1C0
0380E0
070078
0E003F
18000E
E00000
ENDCHAR
STARTCHAR C235c
ENCODING 9052
SWIDTH 400 0
DWIDTH 24 0
BBX 24 24 0 -2
BITMAP
000000
00000C
607FFC
3030C0
3830C0
1870C0
0270C0
0660C0
0460C2
0C7FFF
0C40C0
1800C0
1800C0
1006C0
3001C0
F000C0
F000E0
6000F0
3000D8
3000CC
3000C0
3000C0
3000C0
0000C0
ENDCHAR
STARTCHAR C235d
ENCODING 9053
SWIDTH 400 0
DWIDTH 24 0
BBX 24 24 0 -2
BITMAP
000004
00000E
7FFFFE
001C00
003800
007980
00D8E0
039838
07180E
3C1806
E01800
011080
03FFC0
0381C0
0381C0
0381C0
0381C0
0381C0
0301C1
0601C1
0C01C3
1801FF
3000FF
E0003E
ENDCHAR
STARTCHAR C235e
ENCODING 9054
SWIDTH 400 0
DWIDTH 24 0
BBX 24 24 0 -2
BITMAP
100020
180070
1FFFF8
180230
1A0330
198630
18C430
18CDF0
1FFFF0
186030
18C030
18C330
19FFB0
1883B0
180330
180330
180331
180331
180339
300319
30FE1F
601C0F
600807
C00000
ENDCHAR
STARTCHAR C235f
ENCODING 9055
SWIDTH 400 0
DWIDTH 24 0
BBX 24 24 0 -2
BITMAP
060008
06001C
0FFFFC
18010C
33FF8C
200018
0003F8
000030
000020
1FFFF0
1C0030
1C0230
1CFF30
1C0730
1C0E30
1C1C30
1C3030
1CE0B0
19C0B1
198199
33831B
31FF8F
60FF07
C00003
ENDCHAR
STARTCHAR C2360
ENCODING 9056
SWIDTH 400 0
DWIDTH 24 0
BBX 24 24 0 -2
BITMAP
001800
001870
001FFC
3FF800
101810
181838
181838
3FFFF2
101802
001802
001FFE
000FFC
030180
03FFC0
0381C0
0381C0
0381C0
0381C0
0301C1
0601C1
0C01C3
1801FF
3000FF
E0003E
ENDCHAR
STARTCHAR C2361
ENCODING 9057
SWIDTH 400 0
DWIDTH 24 0
BBX 24 24 0 -2
BITMAP
000000
008206
FFC3FF
00C300
00C300
20C308
38C30E
30C30C
30C30C
30C30C
30C70C
30FF0C
30820C
30000C
30000C
30004C
3000EC
37FFEC
30000C
30000C
30000C
7FFFFC
20001C
000008
ENDCHAR
STARTCHAR C2362
ENCODING 9058
SWIDTH 400 0
DWIDTH 24 0
BBX 24 24 0 -2
BITMAP
001800
001800
001800
001800
001818
3FFFFC
001800
60180C
70180E
603C0C
60340C
60760C
60620C
60E30C
60F18C
6198EC
630C7C
660C3C
6C001C
60000C
60000C
60000C
7FFFFC
00000C
ENDCHAR
STARTCHAR C2363
ENCODING 9059
SWIDTH 400 0
DWIDTH 24 0
BBX 24 24 0 -2
BITMAP
00C000
00C300
018180
0300E0
020070
040330
088380
60830C
70830E
60C70C
60460C
606C0C
603C0C
60180C
603C0C
60670C
60C3CC
6181FC
6700CC
6C000C
60000C
60000C
7FFFFC
00000C
ENDCHAR
STARTCHAR C2364
ENCODING 9060
SWIDTH 400 0
DWIDTH 24 0
BBX 24 24 0 -2
BITMAP
000000
007000
00F000
03800C
6E01FE
70000E
60000C
60008C
6001CC
67018C
60C30C
60670C
603E0C
601E0C
60370C
60638C
61C1CC
6700CC
6C000C
60000C
60000C
7FFFFC
60000C
60000C
ENDCHAR
STARTCHAR C2365
ENCODING 9061
SWIDTH 400 0
DWIDTH 24 0
BBX 24 24 0 -2
BITMAP
001000
001C00
001800
001900
001BC0
07FFC0
001800
60180C
70188E
63FFCC
60380C
60180C
60180C
60184C
6FFFEC
60180C
60180C
60180C
60180C
60180C
60100C
60000C
7FFFFC
00000C
ENDCHAR
STARTCHAR C2366
ENCODING 9062
SWIDTH 400 0
DWIDTH 24 0
BBX 24 24 0 -2
BITMAP
000007
0C0007
060006
0601C6
0371C6
FFF1C6
1C01C6
1C01C6
1C21C6
1FF1C6
1C71C6
1C71C6
1C71C6
1C71C6
1C71C6
1871C6
1871C6
387186
307006
306006
60E006
6FC07E
C1803C
800008
ENDCHAR
STARTCHAR C2367
ENCODING 9063
SWIDTH 400 0
DWIDTH 24 0
BBX 24 24 0 -2
BITMAP
000007
007007
3FF006
3061C6
1CC1C6
0F81C6
0781C6
07C1C6
0CE1C6
1871C6
3021C6
4001C6
0001C6
0071C6
3FF9C6
1861C6
0CC1C6
078186
078006
078006
0DC006
18E07E
30703C
E00008
ENDCHAR
STARTCHAR C2368
ENCODING 9064
SWIDTH 400 0
DWIDTH 24 0
BBX 24 24 0 -2
BITMAP
000007
300C07
3FFC06
3061C6
3061C6
3061C6
3061C6
3061C6
3061C6
7FE1C6
20E1C6
00E1C6
01E1C6
0361C6
0361C6
0661C6
0661C6
0C6186
186006
306006
606006
87E07E
03C03C
008008
ENDCHAR
STARTCHAR C2369
ENCODING 9065
SWIDTH 400 0
DWIDTH 24 0
BBX 24 24 0 -2
BITMAP
000007
007007
FFF006
0C70E6
0C70E6
0C70C6
0C70C6
0C70C6
0C70C6
2C70C6
3C70C6
3C78C6
6C7CC6
6C76C6
4C76C6
CC70C6
8C70C6
1C70C6
187006
186006
30E006
37C07E
61803C
C00008
ENDCHAR
STARTCHAR C236a
ENCODING 9066
SWIDTH 400 0
DWIDTH 24 0
BBX 24 24 0 -2
BITMAP
1C0007
1C0007
180006
1818E6
3FFCE6
301CC6
6018C6
6018C6
CE18C6
8E18C6
0C18C6
1C18C6
1918C6
3198C6
7FD8C6
78D8C6
3018C6
0018C6
001806
001806
003006
07F07E
01E03C
00C008
ENDCHAR
STARTCHAR C236b
ENCODING 9067
SWIDTH 400 0
DWIDTH 24 0
BBX 24 24 0 -2
BITMAP
303807
303807
303006
3030E6
3030E6
3030C6
3030C6
3FF0C6
3030C6
3000C6
3000C6
3010C6
3FF8C6
3038C6
3018C6
3018C6
3018C6
3018C6
601806
601806
601806
C0187E
C0183C
801008
ENDCHAR
STARTCHAR C236c
ENCODING 9068
SWIDTH 400 0
DWIDTH 24 0
BBX 24 24 0 -2
BITMAP
1C0100
1C01C0
1C0180
1C0180
1C8180
FFC18C
1C1FFE
1C018C
1C018C
1C018C
1F818C
FFC38C
41830C
41830C
23830C
33060C
160E0C
1E1DFC
0C3878
1E6010
1BC000
30FFFF
607FFF
C01FFC
ENDCHAR
STARTCHAR C236d
ENCODING 9069
SWIDTH 400 0
DWIDTH 24 0
BBX 24 24 0 -2
BITMAP
000004
60000E
7FFFFE
600000
600F00
600E00
600E30
63FFF8
600E00
600E00
600E00
600E0C
6FFFFE
600F00
601980
6038C0
607060
60E03E
61C01E
660004
640000
600000
7FFFFF
000000
ENDCHAR
STARTCHAR C236e
ENCODING 9070
SWIDTH 400 0
DWIDTH 24 0
BBX 24 24 0 -2
BITMAP
000004
60000E
7FFFFE
600008
60001C
67FFFC
600700
600600
600E00
600C00
601C00
603DE0
606C78
60CC1C
670C0C
6C0C00
600C00
600C00
600C00
600C00
600C00
600006
7FFFFF
000000
ENDCHAR
STARTCHAR C236f
ENCODING 9071
SWIDTH 400 0
DWIDTH 24 0
BBX 24 24 0 -2
BITMAP
000004
00000E
FFFFFE
600020
6001F8
637FF8
63E600
630600
63060C
63FFFE
630700
630300
630380
630180
6304C3
637862
63E036
63801C
63000E
600004
700000
3FFFFF
1FFFFF
000000
ENDCHAR
STARTCHAR C2370
ENCODING 9072
SWIDTH 400 0
DWIDTH 24 0
BBX 24 24 0 -2
BITMAP
001000
001C00
001800
001800
301838
0E1870
0718C0
031B00
001800
01DBC0
061860
7C1838
70181C
20180C
001802
FFFFFF
003800
001800
001800
001800
001800
001800
001800
001000
ENDCHAR
STARTCHAR C2371
ENCODING 9073
SWIDTH 400 0
DWIDTH 24 0
BBX 24 24 0 -2
BITMAP
001000
001C00
001800
001808
00381C
3FFFFC
001800
001800
071870
061860
061060
060060
FFC3FE
0E00E0
060060
060060
060060
060060
060061
060001
060003
07FFFF
07FFFF
01FFFE
ENDCHAR
STARTCHAR C2372
ENCODING 9074
SWIDTH 400 0
DWIDTH 24 0
BBX 24 24 0 -2
BITMAP
0001C0
0041C0
FFE1C0
0601C0
0C01C0
0E01C0
1E01C0
3301C0
6301C2
839FFF
0381C0
0381C0
0781C0
0D81C0
1981C0
3181C0
6181C0
C181C0
0181C0
0181C0
0381C0
3F01C0
1E01C0
040180
ENDCHAR
STARTCHAR C2373
ENCODING 9075
SWIDTH 400 0
DWIDTH 24 0
BBX 24 24 0 -2
BITMAP
001800
001800
001800
001830
1FFFF0
1C1830
1C1830
1C1830
1C1830
1FFFF0
1C1830
1C1830
1C1830
1C3830
1FFFF0
081820
001800
001806
FFFFFF
001800
001800
001800
001800
001000
ENDCHAR
STARTCHAR C2374
ENCODING 9076
SWIDTH 400 0
DWIDTH 24 0
BBX 24 24 0 -2
BITMAP
003800
003800
003800
006600
00C1C0
038070
06381C
18380E
E03802
006600
00C300
0181E0
06107F
1C1C1E
E01804
001800
00180C
7FFFFE
001800
001800
001800
001800
001800
001000
ENDCHAR
STARTCHAR C2375
ENCODING 9077
SWIDTH 400 0
DWIDTH 24 0
BBX 24 24 0 -2
BITMAP
001000
001C00
001800
001800
001800
00180C
7FFFFE
001800
001800
0E1870
0E1870
0C1860
0C1860
0C9866
FFDBFF
0C1860
0C1860
0C1860
0C1860
0C1860
0C1860
0FFFE0
0C0060
000000
ENDCHAR
STARTCHAR C2376
ENCODING 9078
SWIDTH 400 0
DWIDTH 24 0
BBX 24 24 0 -2
BITMAP
003800
003800
003000
003018
003FFC
003000
003000
003004
7FFFFE
000000
000000
000006
FFFFFF
003000
003C00
003700
0031C0
003070
003038
003018
003008
003000
003000
003000
ENDCHAR
STARTCHAR C2377
ENCODING 9079
SWIDTH 400 0
DWIDTH 24 0
BBX 24 24 0 -2
BITMAP
003800
003800
003000
003000
003018
003FF8
003000
003000
003000
003006
FFFFFF
00E000
00C000
0181C0
01FFE0
0301C0
078380
0CE700
383E00
603E00
00F3C0
03C0FF
0E003F
F8000C
ENDCHAR
STARTCHAR C2378
ENCODING 9080
SWIDTH 400 0
DWIDTH 24 0
BBX 24 24 0 -2
BITMAP
000E00
000E00
000C0C
000FFE
000C00
000C00
000C00
100C06
1FFFFF
180007
180006
180024
1BFFF0
188070
184070
1860E0
1831C0
181B80
300F00
301FC0
3071F0
60E07F
C3800E
BC0004
ENDCHAR
STARTCHAR C2379
ENCODING 9081
SWIDTH 400 0
DWIDTH 24 0
BBX 24 24 0 -2
BITMAP
000004
E0C60E
FFE7FF
E0C606
E0C606
F0C686
E8C6C6
ECC666
E6C666
E6C636
E2C636
E0C606
E0C606
E0C606
E0C606
FFC6FE
E7C63C
E18608
E00600
E00600
E00600
E00600
E00600
C00600
ENDCHAR
STARTCHAR C237a
ENCODING 9082
SWIDTH 400 0
DWIDTH 24 0
BBX 24 24 0 -2
BITMAP
000000
007004
FFF7FE
30C006
30C006
30C006
30C006
30C006
30C006
30C006
30C006
30C7FE
30C006
30C006
30C006
30C006
30C006
37C006
FCC006
F0C006
60C7FE
00C006
00C004
008000
ENDCHAR
STARTCHAR C237b
ENCODING 9083
SWIDTH 400 0
DWIDTH 24 0
BBX 24 24 0 -2
BITMAP
200000
300007
3FFFFF
300000
304000
307000
306000
30C000
30C000
31C200
318700
31FF00
300300
300600
300602
37FFFF
300C00
601C00
6019C0
603060
406038
C0C01C
83800E
0E0006
ENDCHAR
STARTCHAR C237c
ENCODING 9084
SWIDTH 400 0
DWIDTH 24 0
BBX 24 24 0 -2
BITMAP
200000
300007
3FFFFF
300000
300700
300600
300600
300618
31FFFC
300600
300600
300600
300604
30060E
37FFFE
300F00
300D00
601D80
6018C0
603060
406038
C0C01F
838007
0E0000
ENDCHAR
STARTCHAR C237d
ENCODING 9085
SWIDTH 400 0
DWIDTH 24 0
BBX 24 24 0 -2
BITMAP
200000
300007
3FFFFF
300000
30000C
37FFFE
300C00
300C00
300C00
300C00
310C20
338FF0
338C30
338C30
338C30
338C30
338C30
638C38
638C18
638C19
438C4D
C3FFEF
800007
000006
ENDCHAR
STARTCHAR C237e
ENCODING 9086
SWIDTH 400 0
DWIDTH 24 0
BBX 24 24 0 -2
BITMAP
003800
003800
003000
007006
FFFFFF
00E000
01C000
038060
070030
0E07F8
1FFC1C
1FC00C
0C0004
000000
0E1C3C
0E1C38
1C1830
183060
3060E0
307060
183830
0C1838
060C18
060C18
ENDCHAR
STARTCHAR C2421
ENCODING 9249
SWIDTH 400 0
DWIDTH 24 0
BBX 24 24 0 -2
BITMAP
00E000
00E000
00C000
018000
0300C0
060060
1FFFF0
1F8038
0C0018
000000
230420
3F8FF0
338E30
338E30
338E30
338E30
338E30
33BE30
33EE30
23CC31
638C31
61183F
C0103F
80200E
ENDCHAR
STARTCHAR C2422
ENCODING 9250
SWIDTH 400 0
DWIDTH 24 0
BBX 24 24 0 -2
BITMAP
00C200
01C100
0180C0
030070
060038
0C1818
183808
607800
00E400
01C300
038180
0700E0
0E0078
1C403F
38700F
E0E002
00C000
018000
0300C0
060060
0C0FF0
1FFC38
1F0018
0C0000
ENDCHAR
STARTCHAR C2423
ENCODING 9251
SWIDTH 400 0
DWIDTH 24 0
BBX 24 24 0 -2
BITMAP
060000
060000
060000
0C0018
0FFFFC
181800
181800
301800
601800
C01800
001800
001806
7FFFFF
004000
007000
00E000
00C000
018080
0300C0
060060
0C0FF0
1FFC18
1F0018
0C0008
ENDCHAR
STARTCHAR C2424
ENCODING 9252
SWIDTH 400 0
DWIDTH 24 0
BBX 24 24 0 -2
BITMAP
300004
30000E
3007FF
300006
300006
30C006
FFE006
70E7FE
30C006
30C000
30C000
30C00E
30CFFF
37C20E
33820C
31031C
300118
3001B0
3040E0
3041F0
30C3B8
3FC71F
3FCE0F
0FB806
ENDCHAR
STARTCHAR C2425
ENCODING 9253
SWIDTH 400 0
DWIDTH 24 0
BBX 24 24 0 -2
BITMAP
000008
30001C
3FFFFC
30180C
30180C
30180C
3FFFFC
38001C
300008
300030
31FFF8
304038
304030
302060
3030C0
3010C0
301980
300F00
300F00
601B80
6030E0
C0607F
81C01F
0F0007
ENDCHAR
STARTCHAR C2426
ENCODING 9254
SWIDTH 400 0
DWIDTH 24 0
BBX 24 24 0 -2
BITMAP
000030
0FFFF0
020070
0100E0
00C1C0
006700
003E00
007F00
00F3F0
03C0FF
1E303E
F83984
0030E0
003060
00300E
7FFFFE
006400
006E00
00CE00
018E01
030E01
060FFF
1807FF
E001FE
ENDCHAR
STARTCHAR C2427
ENCODING 9255
SWIDTH 400 0
DWIDTH 24 0
BBX 24 24 0 -2
BITMAP
000030
0FFFF0
020070
0100E0
00C1C0
006700
003E00
007F00
00F3F0
03C0FF
1E203E
F87004
00C600
018E00
03FC00
0078C0
00E060
0387F0
1FFC18
0C1808
041800
001800
001800
001800
ENDCHAR
STARTCHAR C2428
ENCODING 9256
SWIDTH 400 0
DWIDTH 24 0
BBX 24 24 0 -2
BITMAP
001800
001800
001800
001800
001818
3FFFFC
001800
001800
001800
001800
003807
FFFFFF
000000
000000
0C0070
0FFFF8
0C0030
0C0030
0C0030
0C0030
0C0030
0FFFF0
0C0030
0C0020
ENDCHAR
STARTCHAR C2429
ENCODING 9257
SWIDTH 400 0
DWIDTH 24 0
BBX 24 24 0 -2
BITMAP
000000
000038
3FFFFC
006018
006018
00C018
00C018
018038
0303F0
060060
0C0000
3C0030
07FFF8
060038
060038
060038
060038
060038
07FFF8
060030
040000
000006
FFFFFF
000000
ENDCHAR
STARTCHAR C242a
ENCODING 9258
SWIDTH 400 0
DWIDTH 24 0
BBX 24 24 0 -2
BITMAP
000000
0C0060
0FFFF0
0C0060
0C0060
0C0060
0C0060
0C0060
0C0060
0FFFE0
0C0000
000020
080030
060060
0300C0
018180
01C100
00C200
000400
1C0000
FF8000
C1FFFF
003FFF
000FFC
ENDCHAR
STARTCHAR C242b
ENCODING 9259
SWIDTH 400 0
DWIDTH 24 0
BBX 24 24 0 -2
BITMAP
0C0060
0FFFF0
0C0070
0C0060
0C0060
0C0060
0FFFE0
0C0060
000000
000018
3FFFFC
001800
001800
001800
001806
FFFFFF
001800
001800
001800
001800
001800
01F800
007800
003000
ENDCHAR
STARTCHAR C242c
ENCODING 9260
SWIDTH 400 0
DWIDTH 24 0
BBX 24 24 0 -2
BITMAP
000060
0FFFF0
0C0070
0C0060
0C0060
0FFFE0
080000
000020
1FFFF0
00C000
00C000
00C006
FFFFFF
030000
030010
07FFF8
060038
000038
000038
000030
000070
000FE0
0003E0
0000C0
ENDCHAR
STARTCHAR C242d
ENCODING 9261
SWIDTH 400 0
DWIDTH 24 0
BBX 24 24 0 -2
BITMAP
000E00
000E00
000C00
C60C00
FF0C00
E70C20
E67FF0
E60C30
E60C30
E60C30
E66C30
E61C30
E60E30
E60F30
E619B0
E618B0
E61830
FE1830
E63030
403031
006031
00403F
00803F
01000E
ENDCHAR
STARTCHAR C242e
ENCODING 9262
SWIDTH 400 0
DWIDTH 24 0
BBX 24 24 0 -2
BITMAP
000040
0001F0
003FF0
3FF000
007000
007000
006000
006006
FFFFFF
00C000
00C000
018000
018000
038038
07FFF8
0F8038
1F8038
3B8038
738038
C38038
038038
03FFF8
038030
030000
ENDCHAR
STARTCHAR C242f
ENCODING 9263
SWIDTH 400 0
DWIDTH 24 0
BBX 24 24 0 -2
BITMAP
000000
60000C
7FFFFE
60000C
60200C
60380C
60180C
600C6C
6FFFEC
63800C
63800C
63800C
63800C
63800C
63800C
63800C
63800C
61FFCC
60FFCC
60000C
60000C
7FFFFC
60000C
600000
ENDCHAR
STARTCHAR C2430
ENCODING 9264
SWIDTH 400 0
DWIDTH 24 0
BBX 24 24 0 -2
BITMAP
000000
60000C
7FFFFE
60000C
60000C
60008C
67FFCC
60000C
60000C
60000C
60004C
6FFFEC
60000C
60000C
60000C
60000C
60008C
67FFCC
60000C
60000C
60000C
7FFFFC
60000C
600000
ENDCHAR
STARTCHAR C2431
ENCODING 9265
SWIDTH 400 0
DWIDTH 24 0
BBX 24 24 0 -2
BITMAP
000000
60000C
7FFFFE
60700C
60700C
60700C
60708C
67FFCC
60700C
60700C
60702C
6FFFFC
60700C
60700C
60702C
60706C
60704C
607FEC
603FEC
60000C
60000C
7FFFFC
60000C
600000
ENDCHAR
STARTCHAR C2432
ENCODING 9266
SWIDTH 400 0
DWIDTH 24 0
BBX 24 24 0 -2
BITMAP
000000
60000C
7FFFFE
60100C
601C0C
60180C
60180C
60180C
61180C
63DA0C
63990C
63198C
6318CC
66186C
66186C
6C186C
68180C
78180C
60180C
60180C
60100C
7FFFFC
60000C
600000
ENDCHAR
STARTCHAR C2433
ENCODING 9267
SWIDTH 400 0
DWIDTH 24 0
BBX 24 24 0 -2
BITMAP
0381C0
0381C0
0301C0
6301C0
3301C0
1B01C0
1F01C0
0F01C0
0301C0
0301C4
033FFE
0301C0
0301C0
0301C0
0301C0
0F01C0
3B01C0
F301C0
E301C0
4301C0
0301C0
0301C6
037FFF
030000
ENDCHAR
STARTCHAR C2434
ENCODING 9268
SWIDTH 400 0
DWIDTH 24 0
BBX 24 24 0 -2
BITMAP
000300
1E0300
1C0300
1C0308
1C033C
1C03FC
FF8F80
1C3F00
1C0300
1C0300
1C0300
1C0302
1C7FFF
1C0700
1C0300
1C0300
1C0300
1F8300
1E0301
F00301
E00303
4003FF
0003FF
0000FE
ENDCHAR
STARTCHAR C2435
ENCODING 9269
SWIDTH 400 0
DWIDTH 24 0
BBX 24 24 0 -2
BITMAP
000000
000007
FFFFFF
000800
000C00
03C600
038300
030100
030180
0600C0
061060
0C1C30
18181C
10180F
2018C7
47FFE2
001800
001800
001800
001800
001800
00180C
7FFFFE
000000
ENDCHAR
STARTCHAR C2436
ENCODING 9270
SWIDTH 400 0
DWIDTH 24 0
BBX 24 24 0 -2
BITMAP
00C000
00C000
018080
03FFC0
0301E0
0703C0
0DC700
187E00
603F00
00E7FF
0780FF
3E1C3C
E01800
001820
0FFFF0
001800
001800
001810
3FFFF8
003800
001800
001800
001800
001000
ENDCHAR
STARTCHAR C2437
ENCODING 9271
SWIDTH 400 0
DWIDTH 24 0
BBX 24 24 0 -2
BITMAP
00C000
00C000
018080
03FFC0
0301E0
0703C0
0DC700
187E00
603F00
00E7FF
0780FF
3E003C
E7FFC0
0001C0
000300
000C00
00180C
7FFFFE
001800
001800
001800
00F800
007800
003000
ENDCHAR
STARTCHAR C2438
ENCODING 9272
SWIDTH 400 0
DWIDTH 24 0
BBX 24 24 0 -2
BITMAP
001800
001800
001810
3FFFF8
003800
001800
001800
003807
FFFFFF
00E000
00C000
00C060
21FFF0
1B80E0
0F00C0
0F8180
1CC300
707600
001C00
003F00
00C3E0
0300FF
1C003F
F0000F
ENDCHAR
STARTCHAR C2439
ENCODING 9273
SWIDTH 400 0
DWIDTH 24 0
BBX 24 24 0 -2
BITMAP
01C000
01C000
0180E0
7FFFE0
018060
03C060
033061
061861
0C0C63
18047F
60E03F
80E060
00FFF0
3180F0
1F00C0
070180
0D8300
386600
603E00
003F00
00E3E0
0380FF
0C003F
F0000F
ENDCHAR
STARTCHAR C243a
ENCODING 9274
SWIDTH 400 0
DWIDTH 24 0
BBX 24 24 0 -2
BITMAP
000000
000038
1FFFFC
003018
003018
003018
003018
003018
003018
1FFFF8
000018
000000
000000
000018
3FFFFC
00301C
003018
003018
003018
003018
003018
003018
3FFFF8
000018
ENDCHAR
STARTCHAR C243b
ENCODING 9275
SWIDTH 400 0
DWIDTH 24 0
BBX 24 24 0 -2
BITMAP
000000
060000
070000
060C00
07FE00
0C1E00
181800
3C3000
636000
C1C300
018300
030604
060FFE
180C0E
60180E
00381C
006E38
018370
0601E0
0001C0
000700
001C00
007000
07C000
ENDCHAR
STARTCHAR C243c
ENCODING 9276
SWIDTH 400 0
DWIDTH 24 0
BBX 24 24 0 -2
BITMAP
003000
003000
007004
7FFFFE
00C180
018080
030060
060030
0C001C
1FFFEF
3000E7
E00060
0FFFE0
0C0040
0C0010
1FFFF8
180038
000038
000038
000038
000030
000FF0
0003E0
0001C0
ENDCHAR
STARTCHAR C243d
ENCODING 9277
SWIDTH 400 0
DWIDTH 24 0
BBX 24 24 0 -2
BITMAP
003000
003000
007004
7FFFFE
00C180
018080
030060
060030
0C1C1C
18180F
301807
F01830
1FFFF0
181800
181800
181800
181800
18180C
3FFFFE
001800
001800
001800
001800
001000
ENDCHAR
STARTCHAR C243e
ENCODING 9278
SWIDTH 400 0
DWIDTH 24 0
BBX 24 24 0 -2
BITMAP
003000
003000
007004
7FFFFE
00C180
018080
030060
060030
0C101C
181C0F
381807
FE1838
1C1830
1C1830
1C1830
1C1830
1FFFF0
003030
003000
006000
00C000
018000
070000
3C0000
ENDCHAR
STARTCHAR C243f
ENCODING 9279
SWIDTH 400 0
DWIDTH 24 0
BBX 24 24 0 -2
BITMAP
001800
001800
001804
7FFFFE
007C00
00E600
01C380
0381E0
07187F
0C381F
307406
E0E700
01D380
039CE0
06183F
18181F
601806
801800
001800
001800
001800
001800
001800
001000
ENDCHAR
STARTCHAR C2440
ENCODING 9280
SWIDTH 400 0
DWIDTH 24 0
BBX 24 24 0 -2
BITMAP
006000
00E000
00C000
218008
33001C
3FFFFC
30100C
301C0C
30180C
30180C
3038CC
37FFCC
303C0C
30340C
30660C
30620C
30C30C
3181EC
3300EC
36006C
34000C
30000C
30000C
200008
ENDCHAR
STARTCHAR C2441
ENCODING 9281
SWIDTH 400 0
DWIDTH 24 0
BBX 24 24 0 -2
BITMAP
000004
38000E
381FFE
300300
310300
338300
FFC302
FBBFFF
338600
338600
338E00
338E0E
730FFF
630006
670006
E60006
3E0006
0E0006
1F000E
13800C
21C01C
40C3F8
8000F0
000060
ENDCHAR
STARTCHAR C2442
ENCODING 9282
SWIDTH 400 0
DWIDTH 24 0
BBX 24 24 0 -2
BITMAP
001000
38180C
381FFE
30180C
31180C
33980C
FFD80C
FB980C
33980C
33980C
339FFC
33980C
73180C
631800
671800
E61800
3E1800
0E1800
1F1801
139801
21D803
40DFFF
801FFF
0007FE
ENDCHAR
STARTCHAR C2443
ENCODING 9283
SWIDTH 400 0
DWIDTH 24 0
BBX 24 24 0 -2
BITMAP
000E00
380E00
380E00
300E00
320E00
330E10
FFFFF8
FB0E38
330E38
330E38
330E38
330E38
730F38
660DB8
660DB8
E60DF8
3C18B8
1E1838
1F1838
333039
21B039
40603F
80C01F
018006
ENDCHAR
STARTCHAR C2444
ENCODING 9284
SWIDTH 400 0
DWIDTH 24 0
BBX 24 24 0 -2
BITMAP
1C0000
1C000C
1C1FFE
1C001C
1C0030
1D0060
FF01C0
1C01C0
1C01C0
1C01C0
1C01C6
1F7FFF
1C01C0
FC01C0
FC01C0
5C01C0
1C01C0
1C01C0
1C01C0
1C01C0
1C01C0
FC0FC0
380780
300300
ENDCHAR
STARTCHAR C2445
ENCODING 9285
SWIDTH 400 0
DWIDTH 24 0
BBX 24 24 0 -2
BITMAP
008700
01C700
7FC600
018600
030600
0E0E38
0C0E30
0C0E37
0C7FFF
0C0C30
0DD830
1F1830
FC1860
EC1860
0C3060
0C7060
0C7CC0
0C07C0
0C01C0
0C0370
0C061C
FC180E
3C7006
19C003
ENDCHAR
STARTCHAR C2446
ENCODING 9286
SWIDTH 400 0
DWIDTH 24 0
BBX 24 24 0 -2
BITMAP
003000
001800
201802
3FFFFF
600007
E00006
C0000C
003000
001800
000C00
000C07
FFFFFF
060000
060000
060000
060000
060000
060000
060000
060000
060000
07FFF8
07FFFC
01FFFC
ENDCHAR
STARTCHAR C2447
ENCODING 9287
SWIDTH 400 0
DWIDTH 24 0
BBX 24 24 0 -2
BITMAP
003000
001800
201802
3FFFFF
600007
E00006
C0003C
1FFFF8
006000
006004
00E00E
7FFFFE
00C000
018020
01FFF0
010030
000030
000030
000030
000030
000070
001FE0
0003C0
000180
ENDCHAR
STARTCHAR C2448
ENCODING 9288
SWIDTH 400 0
DWIDTH 24 0
BBX 24 24 0 -2
BITMAP
003000
001800
201802
3FFFFF
600007
E00006
C0003C
1FFFF8
000000
000004
00000E
7FFFFE
00C000
00C020
01FFF0
010030
000030
000030
000030
000030
000070
001FE0
0003C0
000180
ENDCHAR
STARTCHAR C2449
ENCODING 9289
SWIDTH 400 0
DWIDTH 24 0
BBX 24 24 0 -2
BITMAP
003000
001800
201802
3FFFFF
600007
E01006
C01C0C
0718E0
0718C0
0618C0
0618C0
0618C0
0618C0
0618C0
0618C0
0618C0
0618C0
0C18C0
0C18C0
1818FF
30187F
401800
801800
001000
ENDCHAR
STARTCHAR C244a
ENCODING 9290
SWIDTH 400 0
DWIDTH 24 0
BBX 24 24 0 -2
BITMAP
003000
001800
201802
3FFFFF
600007
E00006
C0000C
038300
03FF80
038300
038300
038300
03830C
7FFFFE
038300
038300
030300
030301
030301
060301
0C0303
1803FF
3001FF
E0007E
ENDCHAR
STARTCHAR C244b
ENCODING 9291
SWIDTH 400 0
DWIDTH 24 0
BBX 24 24 0 -2
BITMAP
001800
001800
061800
0719C0
061860
0C1838
18181C
30180C
601804
001800
001800
001018
3FFFFC
000018
000018
000018
000018
0FFFF8
000018
000018
000018
000018
3FFFF8
000018
ENDCHAR
STARTCHAR C244c
ENCODING 9292
SWIDTH 400 0
DWIDTH 24 0
BBX 24 24 0 -2
BITMAP
001800
001800
061800
0719C0
061860
0C1838
18181C
30180C
601804
001800
001800
301018
3FFFFC
300018
300018
300018
3001D8
33FFD8
300018
300018
300018
3003F8
300078
300030
ENDCHAR
STARTCHAR C244d
ENCODING 9293
SWIDTH 400 0
DWIDTH 24 0
BBX 24 24 0 -2
BITMAP
000000
30000C
3FFFFE
30000C
30000C
30000C
30000C
38000C
3FFFFC
30000C
300000
30001C
31FFFC
30000C
30000C
30000C
30000C
31FFFC
30000C
60000C
60000C
C0000C
80001F
07FFFF
ENDCHAR
STARTCHAR C244e
ENCODING 9294
SWIDTH 400 0
DWIDTH 24 0
BBX 24 24 0 -2
BITMAP
000000
30000C
3FFFFE
30000C
30000C
30000C
3FFFFC
300000
300008
30FFFC
30001C
30000C
30800C
30FFFC
30C008
318006
31FFFE
300006
300006
600006
60000E
C001FC
800078
000030
ENDCHAR
STARTCHAR C244f
ENCODING 9295
SWIDTH 400 0
DWIDTH 24 0
BBX 24 24 0 -2
BITMAP
200000
30000C
3FFFFE
30000C
30000C
30000C
3FFFFC
30020C
300380
300300
300300
33030E
33FFFF
338306
338306
338306
338306
638306
63837E
63833C
C38308
C10300
800300
000200
ENDCHAR
STARTCHAR C2450
ENCODING 9296
SWIDTH 400 0
DWIDTH 24 0
BBX 24 24 0 -2
BITMAP
200000
30000C
3FFFFE
30000C
30000C
30000C
30000C
3FFFFC
30000C
300840
31CE70
318C60
318C60
318C60
318C60
318C60
318C60
618C60
618C61
630C61
C30C63
C60C7F
840C7F
08081C
ENDCHAR
STARTCHAR C2451
ENCODING 9297
SWIDTH 400 0
DWIDTH 24 0
BBX 24 24 0 -2
BITMAP
38001C
38001C
300018
3FFFF8
300018
300018
300010
000000
30001C
3FFFFC
30000C
30000C
30000C
3FFFFC
300008
300000
300000
300000
600000
600000
600000
C00000
800000
800000
ENDCHAR
STARTCHAR C2452
ENCODING 9298
SWIDTH 400 0
DWIDTH 24 0
BBX 24 24 0 -2
BITMAP
001800
301818
38181C
301818
383818
3FFFF8
006010
00C000
238002
3FFFFF
600007
E00086
C7FFCC
0003C0
000700
001C00
007000
01C000
030002
060002
0C0006
0FFFFE
07FFFE
03FFFC
ENDCHAR
STARTCHAR C2453
ENCODING 9299
SWIDTH 400 0
DWIDTH 24 0
BBX 24 24 0 -2
BITMAP
040000
0701E0
0601C0
0601C0
4649C8
E66DCC
E649CC
E649CC
E649CC
E649CC
E649CC
E649CC
E649CC
FFDFFC
0649C8
0601C0
0601C0
0C01C1
0C01C1
0C01C1
1801C3
1001FF
2000FF
40003E
ENDCHAR
STARTCHAR C2454
ENCODING 9300
SWIDTH 400 0
DWIDTH 24 0
BBX 24 24 0 -2
BITMAP
001800
301818
38181C
301818
383818
3FFFF8
006010
00C000
039800
0E3800
006100
00C380
038700
030E00
00DC00
007800
007080
00E0E0
01C070
038038
0E3FFC
3FE00C
1C000C
080000
ENDCHAR
STARTCHAR C2455
ENCODING 9301
SWIDTH 400 0
DWIDTH 24 0
BBX 24 24 0 -2
BITMAP
000000
1E0180
1C01C0
1C00C0
1C0042
5D3FFF
DDCC00
DD8C00
DD8C00
DD8C00
DD8C00
DD8C00
DD8C00
DD8C00
DD8C00
DD8C00
DD8C00
DD8C00
FF8C00
018C00
000C00
000FFE
0007FE
000000
ENDCHAR
STARTCHAR C2456
ENCODING 9302
SWIDTH 400 0
DWIDTH 24 0
BBX 24 24 0 -2
BITMAP
0001C0
1E01C0
1C01C0
1C01C2
1C01FF
5D01C0
DDC1C0
DD81C0
DD81CE
DD9FFF
DD800C
DD8018
DD8030
DD8060
DD80C0
DD8180
DD8300
DD8600
FF8C01
019801
003003
003FFF
001FFF
000FFE
ENDCHAR
STARTCHAR C2457
ENCODING 9303
SWIDTH 400 0
DWIDTH 24 0
BBX 24 24 0 -2
BITMAP
000E00
1E0E00
1C0E00
1C0E00
1C0E00
5D0E10
DDBFF8
DD8E38
DD8E38
DD8E38
DDBE38
DD9E38
DD8F38
DD8FB8
DD8DF8
DD8CB8
DD9838
DD9838
FF9838
013039
003039
00603F
00C01F
01800E
ENDCHAR
STARTCHAR C2458
ENCODING 9304
SWIDTH 400 0
DWIDTH 24 0
BBX 24 24 0 -2
BITMAP
001800
301818
38181C
301818
301818
301818
3FFFF8
002018
007000
006000
00C100
018380
030700
038E00
00FC00
003800
007000
00E0E0
01C070
038038
0E3FFC
3FF80C
1C000C
0C0000
ENDCHAR
STARTCHAR C2459
ENCODING 9305
SWIDTH 400 0
DWIDTH 24 0
BBX 24 24 0 -2
BITMAP
000000
03C000
038000
0300C0
03FFE0
0700E0
060180
0C3300
181E00
100780
2001C0
001060
001C00
001800
301810
38181C
301818
301818
301818
301818
301818
3FFFF8
300018
000000
ENDCHAR
STARTCHAR C245a
ENCODING 9306
SWIDTH 400 0
DWIDTH 24 0
BBX 24 24 0 -2
BITMAP
000060
380060
380060
300060
300060
310060
FF8064
39CF67
318E66
318E66
318E66
F18E66
718E66
398E66
3D8E66
3F8E66
378E66
31BE66
31EE66
21CE66
618E66
400FFE
C00C06
800004
ENDCHAR
STARTCHAR C245b
ENCODING 9307
SWIDTH 400 0
DWIDTH 24 0
BBX 24 24 0 -2
BITMAP
003000
001800
000806
FFFFFF
1C0000
1C0000
1C0000
1C0000
1C0000
0FFFF8
07FFFC
000000
000000
0E1C3C
0C1C38
0C1838
0C1838
0C1838
0C1838
0C1838
181838
181838
301838
E00030
ENDCHAR
STARTCHAR C245c
ENCODING 9308
SWIDTH 400 0
DWIDTH 24 0
BBX 24 24 0 -2
BITMAP
000000
1E0F00
1C0E00
1C0C00
1C0E00
1C1980
1C30E0
1C6070
1DC038
1F0010
1C000C
1FFFFC
000808
0E0C0C
0C1C18
181810
303020
606040
202060
101030
080818
040C0C
060606
020606
ENDCHAR
STARTCHAR C245d
ENCODING 9309
SWIDTH 400 0
DWIDTH 24 0
BBX 24 24 0 -2
BITMAP
0007F8
30FFFC
3FE000
300000
300000
31001C
33FFFC
33860C
33860C
33860C
33860C
33860C
33860C
33FFFC
338008
338000
338000
338000
338002
238002
638006
43FFFE
81FFFE
00FFFC
ENDCHAR
STARTCHAR C245e
ENCODING 9310
SWIDTH 400 0
DWIDTH 24 0
BBX 24 24 0 -2
BITMAP
007000
007000
006000
00C006
FFFFFF
01C380
018780
030E00
073F80
0EE300
1D8300
39030C
E1FFFE
01830C
01830C
01830C
01830C
01830C
01830C
01837C
018338
010310
000300
000200
ENDCHAR
STARTCHAR C245f
ENCODING 9311
SWIDTH 400 0
DWIDTH 24 0
BBX 24 24 0 -2
BITMAP
1C0000
1C0180
1C01C0
1C00C0
5F8042
FFDFFF
DD8E00
DD8E00
DD8E00
DD8E00
DD8E00
DD8E00
DD8E00
DD8E00
DD8E00
DD8E00
DD8E00
DF8E00
5D0E00
1C0E00
1C0E00
1C07FE
1C03FE
180000
ENDCHAR
STARTCHAR C2460
ENCODING 9312
SWIDTH 400 0
DWIDTH 24 0
BBX 24 24 0 -2
BITMAP
1C0000
1C0000
1C000C
1C1FFE
5F8000
FFC000
DD8000
DD8000
DD8000
DD8000
DD8000
DD800C
DD87FC
DD8000
DD8000
DD8000
DD8000
DF8000
5D0000
1C0000
1C0002
1C1FFF
1C0000
180000
ENDCHAR
STARTCHAR C2461
ENCODING 9313
SWIDTH 400 0
DWIDTH 24 0
BBX 24 24 0 -2
BITMAP
00C000
01C000
0180E0
03FFE0
0781C0
0CC380
186700
603E00
007F80
01E3FF
07807F
3E1C1E
F01800
001820
1FFFF0
1C1830
1C1830
1C1830
1C1830
1C1870
1C1BF0
181860
001800
001000
ENDCHAR
STARTCHAR C2462
ENCODING 9314
SWIDTH 400 0
DWIDTH 24 0
BBX 24 24 0 -2
BITMAP
001800
000C00
200C06
3FFFFF
300000
300C00
300600
300700
30030E
37FFFE
30C000
30C000
30C000
30C000
30C000
30C000
30C000
60C000
60C000
60C000
60C000
C0FFFC
807FFC
000000
ENDCHAR
STARTCHAR C2463
ENCODING 9315
SWIDTH 400 0
DWIDTH 24 0
BBX 24 24 0 -2
BITMAP
001800
000C00
200C06
3FFFFF
300000
300000
300018
33FFFC
300E00
300E00
300E00
300E00
300E06
3FFFFE
300E00
300E00
300E00
600E00
600E00
600E00
600E00
C00E00
800E00
000C00
ENDCHAR
STARTCHAR C2464
ENCODING 9316
SWIDTH 400 0
DWIDTH 24 0
BBX 24 24 0 -2
BITMAP
001800
000C00
200C06
3FFFFF
300000
300E40
300C70
300C30
300C18
300C04
300C0E
37FFFE
300C00
300C00
300E00
300600
300300
600300
600181
6000C3
600072
C0003E
80001E
000006
ENDCHAR
STARTCHAR C2465
ENCODING 9317
SWIDTH 400 0
DWIDTH 24 0
BBX 24 24 0 -2
BITMAP
001800
000C00
300C06
3FFFFF
300000
300E00
300C00
300C38
300DFC
307F00
37CC00
300C00
300C00
300C04
37FFFE
300C00
300C00
600C00
600C01
600C03
600C02
C00FFE
800FFE
0003FC
ENDCHAR
STARTCHAR C2466
ENCODING 9318
SWIDTH 400 0
DWIDTH 24 0
BBX 24 24 0 -2
BITMAP
001800
000C00
200C06
3FFFFF
300000
300F00
300E00
300C00
301800
303040
306060
30C0C0
30F180
301B00
300600
300C00
301860
603030
606018
60C00C
63FFFE
C3FC07
818003
008000
ENDCHAR
STARTCHAR C2467
ENCODING 9319
SWIDTH 400 0
DWIDTH 24 0
BBX 24 24 0 -2
BITMAP
040040
070070
060060
060060
060060
060060
060066
FFFFFF
060060
060360
068360
066660
063660
061C60
061C60
063660
066360
06C360
070060
060060
060060
07FFE0
0600E0
040040
ENDCHAR
STARTCHAR C2468
ENCODING 9320
SWIDTH 400 0
DWIDTH 24 0
BBX 24 24 0 -2
BITMAP
020000
07000C
FF9FFE
030300
030300
030300
030300
7F0387
627FFF
600300
600600
E30600
FF8E0C
038FFE
03800E
03800C
03800C
03800C
03800C
03000C
070018
FE03F8
3C00F0
180060
ENDCHAR
STARTCHAR C2469
ENCODING 9321
SWIDTH 400 0
DWIDTH 24 0
BBX 24 24 0 -2
BITMAP
000000
000038
3FFFF8
001838
001838
001838
201838
3FFFF8
300030
700000
600000
60000E
7FFFFF
007806
007806
00D806
019806
03180E
0619FC
0C1878
181830
301800
C01800
001000
ENDCHAR
STARTCHAR C246a
ENCODING 9322
SWIDTH 400 0
DWIDTH 24 0
BBX 24 24 0 -2
BITMAP
020000
070080
FF80C0
030040
030760
030660
030660
7F0620
620630
600630
600630
E30E38
FF8C18
038C18
039C0C
03980C
03980C
03B006
03E007
034003
070000
FE0006
3CFFFF
180000
ENDCHAR
STARTCHAR C246b
ENCODING 9323
SWIDTH 400 0
DWIDTH 24 0
BBX 24 24 0 -2
BITMAP
001800
001800
001810
1FFFF8
003838
001838
101838
1FFFF0
181800
30180C
3FFFFE
00380E
003C0C
00660C
00E37C
01C198
0380C0
070070
0E001F
30000E
E00000
000000
FFFFFF
000000
ENDCHAR
STARTCHAR C246c
ENCODING 9324
SWIDTH 400 0
DWIDTH 24 0
BBX 24 24 0 -2
BITMAP
000030
1FFFF0
000030
000030
000030
0FFFF0
000030
000030
000030
1FFFF0
000030
000020
000018
1FFFFC
000018
000018
000018
0FFFF8
000018
000018
000018
000018
3FFFF8
000018
ENDCHAR
STARTCHAR C246d
ENCODING 9325
SWIDTH 400 0
DWIDTH 24 0
BBX 24 24 0 -2
BITMAP
000300
000300
000300
000300
038300
FF863C
038638
03863F
03FFFF
038E38
038C38
038C38
7F8C30
038C30
039870
039860
03BE60
0393C0
0381E0
FF8338
03061C
000C0E
001807
00E003
ENDCHAR
STARTCHAR C246e
ENCODING 9326
SWIDTH 400 0
DWIDTH 24 0
BBX 24 24 0 -2
BITMAP
001000
001C00
031880
071860
061838
0C181C
18180E
301806
401800
001830
3FFFF0
000030
000030
000030
000032
FFFFFF
000030
000030
000030
000030
000030
1FFFF0
000030
000030
ENDCHAR
STARTCHAR C246f
ENCODING 9327
SWIDTH 400 0
DWIDTH 24 0
BBX 24 24 0 -2
BITMAP
000000
000008
3FFFFC
006000
006030
006078
0060E0
006180
006E00
00601C
00603C
006070
0061C0
006300
006C0E
00601E
006038
0060E0
006380
007C00
006002
FFFFFF
000000
000000
ENDCHAR
STARTCHAR C2470
ENCODING 9328
SWIDTH 400 0
DWIDTH 24 0
BBX 24 24 0 -2
BITMAP
000000
00000E
00001C
003038
7FF870
0600E0
060180
060600
06000E
06000E
06001C
060038
060070
0600C0
060300
060407
060007
06000E
07F81C
1E0038
F80070
6000C0
000300
000E00
ENDCHAR
STARTCHAR C2471
ENCODING 9329
SWIDTH 400 0
DWIDTH 24 0
BBX 24 24 0 -2
BITMAP
001800
003800
003800
006400
00C200
018180
0300C0
060060
0C003C
18001F
3C0067
E700E0
060180
060300
060630
061C60
0630C0
060380
060E38
061870
0620C0
060380
060E00
047800
ENDCHAR
STARTCHAR C2472
ENCODING 9330
SWIDTH 400 0
DWIDTH 24 0
BBX 24 24 0 -2
BITMAP
1C0000
1C000C
1C1FFC
1C0000
1C0000
1C0000
3E0002
7F7FFF
7F8E00
DD0C00
DC0C00
9C180E
1C1FFF
1C0006
1C0006
1C0006
1C0006
1C0006
1C000E
1C000C
1C000C
1C03FC
1C00F8
180070
ENDCHAR
STARTCHAR C2473
ENCODING 9331
SWIDTH 400 0
DWIDTH 24 0
BBX 24 24 0 -2
BITMAP
1C0004
1C000E
1C1FFF
1C0006
1C0006
1C0006
3E0006
7F1FFE
7F9804
DD1800
DC1800
9C1806
1C3FFF
1C0007
1C0007
1C0007
1C0007
1C0007
1C0007
1C0006
1C000E
1C0FFC
1C01F8
180070
ENDCHAR
STARTCHAR C2474
ENCODING 9332
SWIDTH 400 0
DWIDTH 24 0
BBX 24 24 0 -2
BITMAP
1C01C0
1C01C0
1C01C0
1C01C0
1C01C0
1C01C0
3E01C0
7F1DD0
7F9DD8
DD19C8
DC19CC
9C19C4
1C39C6
1C31C6
1C71C7
1C61C3
1CC1C3
1D81C1
1C01C0
1C01C0
1C01C0
1C0FC0
1C0780
180300
ENDCHAR
STARTCHAR C2475
ENCODING 9333
SWIDTH 400 0
DWIDTH 24 0
BBX 24 24 0 -2
BITMAP
1C0038
1C00FC
1C03E0
1C1F00
1C0300
1C0300
3E0300
7F0300
7F8300
DD0304
DC070E
9C7FFE
1C0300
1C0300
1C0300
1C0300
1C0300
1C0300
1C0301
1C0301
1C0303
1C03FF
1C03FF
1801FE
ENDCHAR
STARTCHAR C2476
ENCODING 9334
SWIDTH 400 0
DWIDTH 24 0
BBX 24 24 0 -2
BITMAP
000300
000300
004330
3FE318
00630C
00630C
006300
006306
FFFFFF
006300
006300
006308
00630E
3FE31C
006318
0041B0
0001E0
0001C1
0001C1
0003E1
000633
000C1F
00300F
01C007
ENDCHAR
STARTCHAR C2477
ENCODING 9335
SWIDTH 400 0
DWIDTH 24 0
BBX 24 24 0 -2
BITMAP
0001F0
301FF8
3FFC00
300008
38001C
3FFFFC
30000C
30000C
30000C
3FFFFC
300608
300700
300600
300600
30060C
33FFFE
300600
300600
300600
600600
600600
C00600
800600
000600
ENDCHAR
STARTCHAR C2478
ENCODING 9336
SWIDTH 400 0
DWIDTH 24 0
BBX 24 24 0 -2
BITMAP
0001F0
301FF8
3FFC00
300008
38001C
3FFFFC
30000C
30000C
30000C
3FFFFC
300008
308000
30E000
30C038
30C0FC
30FF00
30C000
30C000
30C001
60C003
60C002
C0FFFE
80FFFE
003FFC
ENDCHAR
STARTCHAR C2479
ENCODING 9337
SWIDTH 400 0
DWIDTH 24 0
BBX 24 24 0 -2
BITMAP
0E0380
0E0380
0C0318
0C030C
0C030C
0C8304
FFC302
0C3FFF
0C0300
0C0300
0C0300
0F8300
3E0180
FC0180
EC0180
4C01C0
0C00C0
0C00E0
0C0061
0C0071
0C003B
FC001F
3C000F
180007
ENDCHAR
STARTCHAR C247a
ENCODING 9338
SWIDTH 400 0
DWIDTH 24 0
BBX 24 24 0 -2
BITMAP
006000
003000
001802
FFFFFF
000000
000000
000000
1C0038
1FFFF8
1C0038
1C0038
1C0038
1C0038
1C0038
1FFFF8
1C0038
1C0038
1C0038
1C0038
1C0038
1C0038
1FFFF8
1C0030
180000
ENDCHAR
STARTCHAR C247b
ENCODING 9339
SWIDTH 400 0
DWIDTH 24 0
BBX 24 24 0 -2
BITMAP
000020
1C0070
1FFFF8
1C0030
1C0030
1C0030
1C0030
1FFFF0
1C0030
1C0030
1C0030
1C0030
1FFFF0
080020
000000
000000
000007
FFFFFF
000000
000000
000000
000018
3FFFFC
000000
ENDCHAR
STARTCHAR C247c
ENCODING 9340
SWIDTH 400 0
DWIDTH 24 0
BBX 24 24 0 -2
BITMAP
0001C0
0001C0
410180
FF8180
E38180
E38180
E38180
E38180
E38180
E38180
E383C0
FF83C0
E38340
E38340
E38660
E38660
E38C20
E38C30
FF9818
C11818
00300C
00600F
00C007
038003
ENDCHAR
STARTCHAR C247d
ENCODING 9341
SWIDTH 400 0
DWIDTH 24 0
BBX 24 24 0 -2
BITMAP
0001C0
6381C0
7F81C0
6381C0
6381C0
6381C0
6381C0
6381C0
7F81C0
6381C0
6381C0
6381C0
6381E0
7F8320
638320
638330
638630
638618
638C18
638C0C
E3980E
DFB00F
876007
87C003
ENDCHAR
STARTCHAR C247e
ENCODING 9342
SWIDTH 400 0
DWIDTH 24 0
BBX 24 24 0 -2
BITMAP
000000
100038
1FFFF8
180038
180038
180038
180038
180038
180038
180038
180038
181038
101C10
001800
001806
FFFFFF
001800
021800
0718E0
0C1838
18181C
70180E
C01806
001000
ENDCHAR
STARTCHAR C2521
ENCODING 9505
SWIDTH 400 0
DWIDTH 24 0
BBX 24 24 0 -2
BITMAP
000000
000038
1FFFFC
000070
0001C0
018700
00FC00
001800
000F00
000780
000380
001D00
001800
001806
FFFFFF
001800
001800
0718C0
0E1870
1C181C
30180E
E01806
001800
001000
ENDCHAR
STARTCHAR C2522
ENCODING 9506
SWIDTH 400 0
DWIDTH 24 0
BBX 24 24 0 -2
BITMAP
0E0060
0E0060
0C1860
0C1C60
0C9860
FFD860
0C1860
0C1860
1C1860
1E1860
1F1860
3D9860
3D9860
3C1862
6C1FFF
6C1860
CC0060
8C0060
0C0060
0C0061
0C0061
0C007F
0C007F
0C003E
ENDCHAR
STARTCHAR C2523
ENCODING 9507
SWIDTH 400 0
DWIDTH 24 0
BBX 24 24 0 -2
BITMAP
001800
001800
601800
301800
381806
183FFF
023187
02218C
066188
064180
048180
0C0380
1803C0
180340
300360
F00660
F00620
600C30
301818
30301C
30600E
30C00F
318007
060003
ENDCHAR
STARTCHAR C2524
ENCODING 9508
SWIDTH 400 0
DWIDTH 24 0
BBX 24 24 0 -2
BITMAP
000E00
E38E00
FF8E00
E38E00
E38C00
E38C06
E38FFF
E399C6
E391CC
E3A1C8
E381C0
E381C0
E381C0
E381C0
E38320
E38320
E38330
FF8630
EF0E18
E60C0C
E0180E
E0300F
E06007
C1C003
ENDCHAR
STARTCHAR C2525
ENCODING 9509
SWIDTH 400 0
DWIDTH 24 0
BBX 24 24 0 -2
BITMAP
000000
000007
FFFFFF
000000
000000
00000C
3FFFFE
000C00
000C00
000C00
000C00
000C00
060C00
060C18
060FFC
060C00
060C00
060C00
060C00
060C00
060C00
060C06
FFFFFF
000000
ENDCHAR
STARTCHAR C2526
ENCODING 9510
SWIDTH 400 0
DWIDTH 24 0
BBX 24 24 0 -2
BITMAP
001C00
001C00
0E1810
0E1FF8
0C1C00
0C1800
0C1800
0C1806
FFFFFF
000000
1E0000
1C0000
1C0000
1C0018
1FFFFC
1C0000
1C0000
1C0000
1C0004
1C0004
1C000C
0FFFFC
07FFFC
000000
ENDCHAR
STARTCHAR C2527
ENCODING 9511
SWIDTH 400 0
DWIDTH 24 0
BBX 24 24 0 -2
BITMAP
0001C0
00C1C0
7FC180
1C0180
1C0180
1C8182
1FCFFF
19C187
30C187
30C187
218187
718387
DF8307
8F0307
070307
060307
060607
0C0607
0C0C07
181806
38180E
3031FC
606078
01C030
ENDCHAR
STARTCHAR C2528
ENCODING 9512
SWIDTH 400 0
DWIDTH 24 0
BBX 24 24 0 -2
BITMAP
000000
00C418
7FCFFC
1C0E1C
1C0E18
1C8E18
1FCE18
19CE18
30CE18
30CE18
218E18
718E18
DF8E18
8F0E18
070E18
060C18
060C18
0C1C18
0C1818
183019
383019
30601F
60C00F
038006
ENDCHAR
STARTCHAR C2529
ENCODING 9513
SWIDTH 400 0
DWIDTH 24 0
BBX 24 24 0 -2
BITMAP
1C0000
1C0008
1FFFFC
180000
300000
3FFFF8
300000
600000
5FFFF0
800030
000030
03C030
00F030
003830
001830
000030
000030
000330
001E38
007819
0FC01D
0F000F
060007
000003
ENDCHAR
STARTCHAR C252a
ENCODING 9514
SWIDTH 400 0
DWIDTH 24 0
BBX 24 24 0 -2
BITMAP
1C0000
1C0008
1FFFFC
180000
300000
3FFFF8
300000
600000
5FFFF0
800030
000030
000630
7FFF30
030630
030630
030630
060630
060630
060638
0C0619
0C0E1D
18FC0F
307807
E01003
ENDCHAR
STARTCHAR C252b
ENCODING 9515
SWIDTH 400 0
DWIDTH 24 0
BBX 24 24 0 -2
BITMAP
003000
001800
001806
FFFFFF
000000
001C00
001C00
001800
00181C
019838
7FDC70
00DEC0
00DB80
019900
019980
0398C0
031860
071870
0E183C
1C181F
38180F
E1F802
007800
003000
ENDCHAR
STARTCHAR C252c
ENCODING 9516
SWIDTH 400 0
DWIDTH 24 0
BBX 24 24 0 -2
BITMAP
200000
300007
3FFFFF
300200
300380
300300
300300
300306
30330F
37FB9C
3033B0
303360
303340
307360
306320
306330
20C318
60C31C
61830E
63030F
460307
DC7F02
801E00
000C00
ENDCHAR
STARTCHAR C252d
ENCODING 9517
SWIDTH 400 0
DWIDTH 24 0
BBX 24 24 0 -2
BITMAP
000380
180380
0C0300
0C0306
0003FE
010300
810300
E2030C
727FFE
36001E
060038
040070
0C00C0
080300
180600
180C00
301800
F03000
306001
30C001
38C003
38FFFF
387FFF
103FFE
ENDCHAR
STARTCHAR C252e
ENCODING 9518
SWIDTH 400 0
DWIDTH 24 0
BBX 24 24 0 -2
BITMAP
000000
180038
0C7FFC
0C1818
001818
011818
811818
E21818
721E18
361B98
0619D8
0418D8
0C1818
081818
181818
181818
301818
F01818
303018
303019
386019
38C01F
39800F
170006
ENDCHAR
STARTCHAR C252f
ENCODING 9519
SWIDTH 400 0
DWIDTH 24 0
BBX 24 24 0 -2
BITMAP
0001C0
1801C0
0C0180
0C0184
0001BE
0107FE
813D80
E20180
720180
360180
060180
040182
0C7FFF
080180
180180
180180
300180
F00180
300180
300181
380181
3801FF
3801FF
10007E
ENDCHAR
STARTCHAR C2530
ENCODING 9520
SWIDTH 400 0
DWIDTH 24 0
BBX 24 24 0 -2
BITMAP
000700
180700
0C4600
0C2606
002FFE
011C06
811C06
E2180C
721C0C
36240C
06460C
040218
0C0338
080130
1801E0
1800E0
3001E0
F003E0
300730
300E38
381C1C
38380F
386007
118003
ENDCHAR
STARTCHAR C2531
ENCODING 9521
SWIDTH 400 0
DWIDTH 24 0
BBX 24 24 0 -2
BITMAP
000E00
180E00
0C0C3C
0C0C38
001830
011830
811830
E23060
723060
367060
067FC0
0400C0
0C01C0
0801C0
180320
180320
300630
F00E30
300C18
30180C
38300E
38600F
38C007
170003
ENDCHAR
STARTCHAR C2532
ENCODING 9522
SWIDTH 400 0
DWIDTH 24 0
BBX 24 24 0 -2
BITMAP
000020
000070
1FFFF8
0300E0
0181C0
006700
003C00
007E00
01C3F0
0700FF
38101F
E01C06
001800
101838
0E3060
0638C0
026C00
00E600
01C300
0381C0
0700F0
0E003F
18000F
E00007
ENDCHAR
STARTCHAR C2533
ENCODING 9523
SWIDTH 400 0
DWIDTH 24 0
BBX 24 24 0 -2
BITMAP
007000
007000
00E000
01C000
0380C0
070060
0E07F0
1FFF38
1FC018
0C1008
001C00
001800
101818
1C1838
0E3860
063480
006200
00E300
01C180
0380E0
070070
0E003F
18000F
E00007
ENDCHAR
STARTCHAR C2534
ENCODING 9524
SWIDTH 400 0
DWIDTH 24 0
BBX 24 24 0 -2
BITMAP
000000
006000
003800
003C00
003C00
007600
006300
00C180
00C1C0
0180E0
030070
060038
0C001C
18000F
700007
C00002
000000
000000
200008
21820C
21C306
60C387
C0C183
C04003
ENDCHAR
STARTCHAR C2535
ENCODING 9525
SWIDTH 400 0
DWIDTH 24 0
BBX 24 24 0 -2
BITMAP
01C004
71C00E
618FFF
618406
618406
618606
61860C
61820C
7F820C
41830C
018318
018118
7F81B8
6180F0
6180F0
618060
6180E0
6180F0
6181B8
618318
61861C
C18C0F
C19807
81B003
ENDCHAR
STARTCHAR C2536
ENCODING 9526
SWIDTH 400 0
DWIDTH 24 0
BBX 24 24 0 -2
BITMAP
060000
060006
763FFF
6600C0
6600C0
66C0C0
7FC0C0
6600C0
C600C0
C600C0
8600C0
0600C0
07C0C0
0E00C0
FE00C0
F600C0
4600C0
0600C0
0600C0
0600C0
0600C0
060FC0
0603C0
040180
ENDCHAR
STARTCHAR C2537
ENCODING 9527
SWIDTH 400 0
DWIDTH 24 0
BBX 24 24 0 -2
BITMAP
0201C0
6301C0
3701C0
1E01C4
1C01FE
1C07FE
363DC0
6601C0
C201C0
0301C0
0701C0
0701C2
0FBFFF
1B81C0
3381C0
6381C0
C381C0
8381C0
0381C0
0301C1
0701C1
7E01FF
1E00FF
0C007E
ENDCHAR
STARTCHAR C2538
ENCODING 9528
SWIDTH 400 0
DWIDTH 24 0
BBX 24 24 0 -2
BITMAP
000000
000007
FFFFFF
001800
001800
001800
00180C
7FFFFE
001800
001800
0718E0
0718C0
0618C0
0618C0
0618C0
0618C0
0618C0
0C18FC
18187E
301800
401800
001006
FFFFFF
000000
ENDCHAR
STARTCHAR C2539
ENCODING 9529
SWIDTH 400 0
DWIDTH 24 0
BBX 24 24 0 -2
BITMAP
000000
000007
FFFFFF
001000
001C00
381800
381800
30180C
3FFFFE
301800
301800
601800
C01800
001800
001818
3FFFFC
001800
001800
001800
001800
001800
001806
FFFFFF
000000
ENDCHAR
STARTCHAR C253a
ENCODING 9530
SWIDTH 400 0
DWIDTH 24 0
BBX 24 24 0 -2
BITMAP
001000
381C1C
381818
301818
301818
301FF8
301818
301818
301818
3FFFF8
383818
301818
301818
301818
301818
3FFFF8
301818
301818
301818
301818
601818
601818
C01818
801018
ENDCHAR
STARTCHAR C253b
ENCODING 9531
SWIDTH 400 0
DWIDTH 24 0
BBX 24 24 0 -2
BITMAP
000000
000038
1FFFF8
000000
000000
00000E
7FFFFF
00180C
001808
001810
0C1800
0E1800
0C1808
0C1C1C
0C1FFC
0C1800
0C1800
0E1800
1B1800
199800
30F800
307FFF
601FFF
C00FFC
ENDCHAR
STARTCHAR C253c
ENCODING 9532
SWIDTH 400 0
DWIDTH 24 0
BBX 24 24 0 -2
BITMAP
00C000
00C000
098070
1FFFF8
1C0030
1C0030
1C0030
1FFFF0
1C0030
1C0030
1C0030
1FFFF0
181820
001800
001800
001800
001800
001800
001800
001800
001800
001800
001800
001000
ENDCHAR
STARTCHAR C253d
ENCODING 9533
SWIDTH 400 0
DWIDTH 24 0
BBX 24 24 0 -2
BITMAP
00C000
00C000
098030
1FFFF8
1C0038
1C0038
1C0038
1FFFF8
1C0038
1C0038
1C0038
1FFFF8
181810
001800
001800
001800
001800
001800
001800
001801
001803
001FFE
001FFE
000FFC
ENDCHAR
STARTCHAR C253e
ENCODING 9534
SWIDTH 400 0
DWIDTH 24 0
BBX 24 24 0 -2
BITMAP
000000
000007
FFFFFF
300000
300000
300000
300006
3FFFFF
300000
300000
300000
300008
33FFFC
33801C
33800C
33800C
33800C
33800C
73800C
63800C
63800C
C3FFFC
C3801C
830008
ENDCHAR
STARTCHAR C253f
ENCODING 9535
SWIDTH 400 0
DWIDTH 24 0
BBX 24 24 0 -2
BITMAP
000000
000007
FFFFFF
006E00
006600
00C600
00C300
018300
038300
030380
060180
0C0180
1801D8
6FFFFC
8C000C
0C000C
0C000C
0C000C
0C000C
0C000C
0C000C
0FFFFC
0C001C
0C0008
ENDCHAR
STARTCHAR C2540
ENCODING 9536
SWIDTH 400 0
DWIDTH 24 0
BBX 24 24 0 -2
BITMAP
180000
0C0004
0C1FFE
000006
03800C
7FC018
038030
030060
0600C0
0E0180
0C0300
1F0600
3D8C00
2CCC00
4C1800
8C1800
0C1800
0C1800
0C1801
0C1801
0C1803
0C1FFF
0C0FFF
0C03FE
ENDCHAR
STARTCHAR C2541
ENCODING 9537
SWIDTH 400 0
DWIDTH 24 0
BBX 24 24 0 -2
BITMAP
0003F0
003FF8
3FF800
001800
001800
001800
001804
00380E
7FFFFE
007C00
007E00
00DB00
019980
0318C0
061870
0C181F
18180F
701807
C01800
001800
00180C
3FFFFE
000000
000000
ENDCHAR
STARTCHAR C2542
ENCODING 9538
SWIDTH 400 0
DWIDTH 24 0
BBX 24 24 0 -2
BITMAP
060000
060000
060000
0E0018
0FFFFC
1C0C00
180C00
300C00
200C00
400C00
000C07
7FFFFF
000C00
000C00
1E0C00
1C0C18
1C0FFC
1C0C00
1C0C00
1C0C00
1C0C00
1C0C06
1FFFFF
000000
ENDCHAR
STARTCHAR C2543
ENCODING 9539
SWIDTH 400 0
DWIDTH 24 0
BBX 24 24 0 -2
BITMAP
000000
60000C
7FFFFE
60000C
60000C
60004C
6FEFEC
6C6CEC
646C6C
6664EC
62C4CC
63C7CC
61C38C
61C38C
63E38C
6676CC
6C3C7C
78383C
60600C
60000C
60000C
6000FC
60003C
600018
ENDCHAR
STARTCHAR C2544
ENCODING 9540
SWIDTH 400 0
DWIDTH 24 0
BBX 24 24 0 -2
BITMAP
000000
30000C
3FFFFE
30C30C
30C30C
30C30C
30C30C
30C30C
30C30C
30C30C
3FC3FC
30C30C
00C300
00C300
00C300
018300
018300
038300
030301
060301
060303
0C03FF
1801FF
7000FE
ENDCHAR
STARTCHAR C2545
ENCODING 9541
SWIDTH 400 0
DWIDTH 24 0
BBX 24 24 0 -2
BITMAP
000018
3FFFFC
300318
31C798
307E18
303C18
306718
318398
3201F8
000030
100000
1C0000
180000
180018
1FFFFC
180000
180000
180000
180004
180004
18000C
1FFFFC
0FFFFC
000000
ENDCHAR
STARTCHAR C2546
ENCODING 9542
SWIDTH 400 0
DWIDTH 24 0
BBX 24 24 0 -2
BITMAP
003800
003800
003000
00300C
0031DC
1FFFF8
003070
0030C0
003382
FFFFFF
000E00
003800
006008
00E01C
03FFFC
0E0300
180300
700300
C00300
000300
000300
007F00
001E00
000C00
ENDCHAR
STARTCHAR C2547
ENCODING 9543
SWIDTH 400 0
DWIDTH 24 0
BBX 24 24 0 -2
BITMAP
200000
30000C
3FFFFE
301C0C
30180C
30380C
30360C
30630C
30E18C
31C0CC
339C6C
371C0C
3C180C
301C0C
30370C
30638C
30C1CC
3180EC
33006C
3C000C
30000C
3000FC
30003C
200018
ENDCHAR
STARTCHAR C2548
ENCODING 9544
SWIDTH 400 0
DWIDTH 24 0
BBX 24 24 0 -2
BITMAP
020000
670006
7FBFFF
6300C0
6300C0
6300C0
7300C0
7F00C0
6F00C0
6300C0
6300C0
6300C0
6300C0
6F00C0
7B00C0
7300C0
6300C0
6300C0
6300C0
6300C0
E300C0
DF0FC0
8E03C0
840180
ENDCHAR
STARTCHAR C2549
ENCODING 9545
SWIDTH 400 0
DWIDTH 24 0
BBX 24 24 0 -2
BITMAP
00C000
00C000
018000
0300C0
060060
0C0FF0
1FFE38
1C0018
000000
040060
07FFF0
060070
067860
061C60
060460
060060
0603E0
0DFE60
0DE060
0CC060
0C0060
1807E0
3001E0
6000C0
ENDCHAR
STARTCHAR C254a
ENCODING 9546
SWIDTH 400 0
DWIDTH 24 0
BBX 24 24 0 -2
BITMAP
001800
001800
201808
38180E
30180C
303C0C
30760C
30630C
30C38C
3181EC
3300CC
34004C
30018C
33FF8C
30000C
30000C
30000C
3000CC
37FFEC
30000C
30000C
7FFFFC
20001C
000008
ENDCHAR
STARTCHAR C254b
ENCODING 9547
SWIDTH 400 0
DWIDTH 24 0
BBX 24 24 0 -2
BITMAP
000200
70E30E
60C30E
60C30C
60C30C
60C30C
60C30C
60C30C
60C30C
7FC7FC
60C00C
60000C
60000C
60000C
60C00C
7FC3FC
60000C
60000C
60000C
60000C
60000C
7FFFFC
60000C
600000
ENDCHAR
STARTCHAR C254c
ENCODING 9548
SWIDTH 400 0
DWIDTH 24 0
BBX 24 24 0 -2
BITMAP
0700E0
0700E0
0600C2
FFE7FF
0700C0
0600C0
0600C0
000000
000000
000006
FFFFFF
060000
060000
060000
060000
060000
060000
060000
060000
060000
060000
07FFFC
03FFFC
000000
ENDCHAR
STARTCHAR C254d
ENCODING 9549
SWIDTH 400 0
DWIDTH 24 0
BBX 24 24 0 -2
BITMAP
0700E0
0700E0
0660C2
FFE7FF
0600C0
0600C0
000018
1FFFFC
000078
0000E0
000300
000E00
000C00
000C00
000C00
000C00
000C00
000C00
000C00
000C00
000C00
01FC00
007C00
001800
ENDCHAR
STARTCHAR C254e
ENCODING 9550
SWIDTH 400 0
DWIDTH 24 0
BBX 24 24 0 -2
BITMAP
0700E0
0700E0
0660C2
FFE7FF
0600C0
0600C0
000006
FFFFFF
060000
060000
060000
060000
060000
060000
060000
060000
060000
0C0000
0C0000
180000
180000
100000
200000
400000
ENDCHAR
STARTCHAR C254f
ENCODING 9551
SWIDTH 400 0
DWIDTH 24 0
BBX 24 24 0 -2
BITMAP
0700E0
0700E0
0660C2
FFE7FF
0600C0
0600C0
000018
1FFFFC
00000C
00018C
00030C
001E0C
00780C
00C00C
0F800C
7E000C
38000C
30001C
000018
000018
000038
000FF0
0003E0
0000C0
ENDCHAR
STARTCHAR C2550
ENCODING 9552
SWIDTH 400 0
DWIDTH 24 0
BBX 24 24 0 -2
BITMAP
0700E0
0700E0
0660C2
FFE7FF
0600C0
0600C0
060880
200E00
380C00
300C00
300C00
300C00
300C00
300C00
300C00
300C00
300C00
300C00
304C02
31CC02
3E0C06
380FFE
300FFE
0003FC
ENDCHAR
STARTCHAR C2551
ENCODING 9553
SWIDTH 400 0
DWIDTH 24 0
BBX 24 24 0 -2
BITMAP
0700E0
0700E0
0660C2
FFE7FF
0600C0
0600C0
003800
003800
003000
003000
003000
003800
007800
006800
006C00
006600
00C300
018180
0300C0
060060
0C003C
18001F
30000E
600000
ENDCHAR
STARTCHAR C2552
ENCODING 9554
SWIDTH 400 0
DWIDTH 24 0
BBX 24 24 0 -2
BITMAP
0700E0
0700E0
0600C2
FFE7FF
0700C0
0600C0
0600C0
000008
3FFFFC
001800
001800
001800
001800
001C07
FFFFFF
001800
001800
001800
001800
001800
001800
01F800
007800
003000
ENDCHAR
STARTCHAR C2553
ENCODING 9555
SWIDTH 400 0
DWIDTH 24 0
BBX 24 24 0 -2
BITMAP
003000
001800
001800
001804
00080E
7FFFFE
007800
006800
00EC00
00C40C
00C41C
018638
030260
0703C0
0F0380
1B0180
3301C0
6300E0
830070
030038
03001F
03000F
030006
030000
ENDCHAR
STARTCHAR C2554
ENCODING 9556
SWIDTH 400 0
DWIDTH 24 0
BBX 24 24 0 -2
BITMAP
000004
00000E
3FFFFE
003800
007000
00E000
01E000
03103C
0E1878
780CE0
000F80
001E00
003E00
007700
00E780
0386C0
060660
3C0638
F0061F
00060F
000E06
03FC00
007800
003000
ENDCHAR
STARTCHAR C2555
ENCODING 9557
SWIDTH 400 0
DWIDTH 24 0
BBX 24 24 0 -2
BITMAP
007000
007000
0660E0
07FFE0
060060
060060
07FFE0
0700E0
060060
060060
0700E0
07FFE0
060060
060060
0603E0
07FE60
3FC060
3E0060
180060
000060
000060
000FE0
0003C0
000180
ENDCHAR
STARTCHAR C2556
ENCODING 9558
SWIDTH 400 0
DWIDTH 24 0
BBX 24 24 0 -2
BITMAP
0003F0
003FF8
3FFC00
300000
300000
30000C
3FFFFE
300C00
300C00
300C00
310C38
338FF8
338C38
338C38
338C38
338C38
338C38
338C38
338C38
238CF9
63FFF9
C0003F
80001F
00000E
ENDCHAR
STARTCHAR C2557
ENCODING 9559
SWIDTH 400 0
DWIDTH 24 0
BBX 24 24 0 -2
BITMAP
000000
000038
307FF8
180038
0C0038
000039
000019
0C0019
FE000F
1E0007
180033
38FFF8
360038
7F0038
260039
060039
0C0019
0C001F
18000F
380007
7E0000
E7FFFF
00FFFF
001FFC
ENDCHAR
STARTCHAR C2558
ENCODING 9560
SWIDTH 400 0
DWIDTH 24 0
BBX 24 24 0 -2
BITMAP
000008
00001C
60FFFC
300C0C
300C0C
100C0C
000C0C
180C0C
FC0C0C
1C0C0C
300C0C
300C0C
740C1C
7E0CFC
0C0C38
0C0C10
0C0C00
180C00
180C00
300800
7E0000
CFFFFF
00FFFC
003FF8
ENDCHAR
STARTCHAR C2559
ENCODING 9561
SWIDTH 400 0
DWIDTH 24 0
BBX 24 24 0 -2
BITMAP
000E00
000E00
600E00
300E20
300E70
107FF8
000E30
180E30
FC0E30
1C0E30
300E30
300E30
740C30
7E0C30
0C1830
0C1833
0C3032
18603E
18C01E
300000
7E0000
CFFFFF
00FFFC
003FF8
ENDCHAR
STARTCHAR C255a
ENCODING 9562
SWIDTH 400 0
DWIDTH 24 0
BBX 24 24 0 -2
BITMAP
000000
0031C7
3FF1FF
0001C6
0001CC
0001CC
0009D8
FFFDD0
3001D0
3001C8
3001C4
6039C6
7FF9C7
0019C3
0019C3
0019C3
0019C3
0019FF
0039DE
0031CC
0071C0
1FE1C0
03C1C0
018180
ENDCHAR
STARTCHAR C255b
ENCODING 9563
SWIDTH 400 0
DWIDTH 24 0
BBX 24 24 0 -2
BITMAP
000004
00730E
FFF3FF
00730C
00730C
007308
007318
E07310
E07310
E07308
FFE304
E00306
E00307
E00303
E00303
E00303
E00303
E03307
E0E3FE
E7831C
FE0308
F80300
600300
200300
ENDCHAR
STARTCHAR C255c
ENCODING 9564
SWIDTH 400 0
DWIDTH 24 0
BBX 24 24 0 -2
BITMAP
038000
0381C7
0301FF
0379C6
03FDCC
7F81CC
0301D8
0301D0
0301D0
0301C8
0309C4
FFFDC6
0301C7
0301C3
0301C3
0301C3
0301C3
0301FF
0301DE
030DCC
03F1C0
03C1C0
0381C0
000180
ENDCHAR
STARTCHAR C255d
ENCODING 9565
SWIDTH 400 0
DWIDTH 24 0
BBX 24 24 0 -2
BITMAP
020180
E700C0
FFB0C2
E33FFF
E63000
E63000
E43000
EC3000
EC3000
E43000
E63000
E33000
E33000
E3B000
E3B000
E3B000
E3B000
FF7000
E67000
E06000
E06000
E04000
E0C000
C08000
ENDCHAR
STARTCHAR C255e
ENCODING 9566
SWIDTH 400 0
DWIDTH 24 0
BBX 24 24 0 -2
BITMAP
200000
300007
3FFFFF
300200
30E380
30E300
30C306
3CC3FE
36C660
36C660
36CC60
32C860
30C060
30C060
30C060
30C060
20C060
60C060
61C060
618060
438060
C303E0
8601E0
0C00C0
ENDCHAR
STARTCHAR C255f
ENCODING 9567
SWIDTH 400 0
DWIDTH 24 0
BBX 24 24 0 -2
BITMAP
000000
000004
7FFFFE
001000
001C00
071800
071800
061820
07FFF0
0E1800
0C1800
181800
301804
20380E
7FFFFE
00C600
00C600
00C600
01C601
038601
070603
0E07FF
1803FF
E001FC
ENDCHAR
STARTCHAR C2560
ENCODING 9568
SWIDTH 400 0
DWIDTH 24 0
BBX 24 24 0 -2
BITMAP
001800
001800
001800
001800
201808
3FFFFC
30180C
30180C
30180C
30180C
3FFFFC
201808
001820
001870
001FF8
000030
000030
001030
001FF0
001800
001800
001800
001800
001000
ENDCHAR
STARTCHAR C2561
ENCODING 9569
SWIDTH 400 0
DWIDTH 24 0
BBX 24 24 0 -2
BITMAP
0003F0
003FF8
3FF800
001800
001800
061860
061860
0E38E7
FFFFFF
061860
061860
041840
001818
3FFFFC
001800
001800
001800
001806
FFFFFF
001800
001800
001800
001800
001000
ENDCHAR
STARTCHAR C2562
ENCODING 9570
SWIDTH 400 0
DWIDTH 24 0
BBX 24 24 0 -2
BITMAP
0001F8
301FFC
3FFC00
300F00
300E00
300E18
33FFFC
300E00
300E00
33FFFE
300E0C
300E0C
300E7C
300E1C
300E08
33FFF8
330E18
330E18
330E18
630E38
630EF8
C30E30
800E00
000C00
ENDCHAR
STARTCHAR C2563
ENCODING 9571
SWIDTH 400 0
DWIDTH 24 0
BBX 24 24 0 -2
BITMAP
000000
007006
FFF7FF
1B8060
1B8060
1B8860
1B9860
339060
21F860
40F060
800060
002060
FFF060
1C0060
1C0060
186060
3FE060
106060
006060
006060
006060
07E3E0
03C1E0
018040
ENDCHAR
STARTCHAR C2564
ENCODING 9572
SWIDTH 400 0
DWIDTH 24 0
BBX 24 24 0 -2
BITMAP
100008
18001C
1FFFFC
181C0C
181C0C
18188C
19FFCC
181C0C
18180C
18180C
181C6C
1BFFEC
18010C
18038C
18FFCC
18030C
180C0C
38180C
30180C
30180C
30180C
60F8FC
C07878
801030
ENDCHAR
STARTCHAR C2565
ENCODING 9573
SWIDTH 400 0
DWIDTH 24 0
BBX 24 24 0 -2
BITMAP
000008
00001C
3FFFFC
000000
000000
30001C
3FFFFC
30000C
31030C
31FF8C
31830C
31830C
31FF0C
31830C
31800C
31800C
31C01C
31FFF8
307FF0
300000
300000
300006
FFFFFF
000000
ENDCHAR
STARTCHAR C2566
ENCODING 9574
SWIDTH 400 0
DWIDTH 24 0
BBX 24 24 0 -2
BITMAP
000008
00001C
3FFFFC
000000
000000
30001C
3FFFFC
30000C
31030C
31FF8C
31830C
31830C
31FF0C
31830C
31800C
31800C
31FF0C
30FF0C
30007C
300018
300000
000002
FFFFFF
000000
ENDCHAR
STARTCHAR C2567
ENCODING 9575
SWIDTH 400 0
DWIDTH 24 0
BBX 24 24 0 -2
BITMAP
000000
000008
3FFFFC
000000
000000
080010
1E3FF8
1C3038
1C3038
1C3038
1C3038
1C3038
1C3FF8
1C3038
1C3038
1C3038
1C3038
1C3038
1C3FF8
1C3030
180000
000000
000007
FFFFFF
ENDCHAR
STARTCHAR C2568
ENCODING 9576
SWIDTH 400 0
DWIDTH 24 0
BBX 24 24 0 -2
BITMAP
000008
00001C
3FFFFC
040000
0701E0
0601C0
0E31C0
0FF9C0
1C31E0
1831F0
3831CC
2661C6
41E1C3
00C1C0
0181C0
0301C0
0601C0
0C01C0
1801C0
6001C0
800180
000006
FFFFFF
000000
ENDCHAR
STARTCHAR C2569
ENCODING 9577
SWIDTH 400 0
DWIDTH 24 0
BBX 24 24 0 -2
BITMAP
00C300
00C300
38C30E
30C30C
30C30C
30C30C
7FC3FC
21C31C
00C308
00C300
00C300
009E00
001800
001800
003800
003C00
006600
00C300
018180
0300E0
060038
0C001F
300007
E00000
ENDCHAR
STARTCHAR C256a
ENCODING 9578
SWIDTH 400 0
DWIDTH 24 0
BBX 24 24 0 -2
BITMAP
038000
038038
071FF8
060000
060000
0C0000
1C0006
1CFFFF
3C0000
3C0000
6C0000
4C200C
8C3FFE
0C300E
0C300C
0C300C
0C300C
0C300C
0C300C
0C300C
0C300C
0C3FFC
0C300C
0C3000
ENDCHAR
STARTCHAR C256b
ENCODING 9579
SWIDTH 400 0
DWIDTH 24 0
BBX 24 24 0 -2
BITMAP
070000
070038
067FF8
060038
0C0038
0C0038
1C003A
1DFFFF
3C0200
7C0380
7C0300
DCC310
1CFFF8
1CE71C
1CC318
1CC318
1CC318
1CC318
1CC3F8
1CC330
1C0320
1C0300
1C0300
180200
ENDCHAR
STARTCHAR C256c
ENCODING 9580
SWIDTH 400 0
DWIDTH 24 0
BBX 24 24 0 -2
BITMAP
0381C0
0381CC
070186
060186
060180
0CFFFF
1C0180
1C0180
3C0180
3C0198
6C3FFC
4C081C
8C0C18
0C0418
0C0630
0C0230
0C0360
0C01C0
0C01C0
0C03E0
0C0630
0C0C1F
0C300F
0DC004
ENDCHAR
STARTCHAR C256d
ENCODING 9581
SWIDTH 400 0
DWIDTH 24 0
BBX 24 24 0 -2
BITMAP
038380
038390
07031C
06030E
060306
0C0300
1CFFFE
1C0380
3C0300
3C0780
7C07C0
5C0FC0
9C0F60
1C1B20
1C1B30
1C3318
1C331C
1C630F
1CC307
1D8302
1C0300
1C0300
1C0300
180300
ENDCHAR
STARTCHAR C256e
ENCODING 9582
SWIDTH 400 0
DWIDTH 24 0
BBX 24 24 0 -2
BITMAP
038380
038380
070300
060300
060300
0C0304
1CFFFE
1C0380
3C0380
3C07C0
7C07C0
5C0FE0
9C0F60
1C1B20
1C1B30
1C3318
1C331C
1C630F
1CC307
1D8302
1C0300
1C0300
1C0307
18FFFF
ENDCHAR
STARTCHAR C256f
ENCODING 9583
SWIDTH 400 0
DWIDTH 24 0
BBX 24 24 0 -2
BITMAP
038380
038380
070300
060306
06FFFF
0C0340
1C0640
1C0E20
3C1C38
3C381F
6C760F
4CC706
8D0608
0C061C
0C7FFC
0C060C
0C060C
0C0E0C
0C0C0C
0C180C
0C3018
0C63F8
0CC0F0
0D8060
ENDCHAR
STARTCHAR C2570
ENCODING 9584
SWIDTH 400 0
DWIDTH 24 0
BBX 24 24 0 -2
BITMAP
038008
03B01C
073FFC
06300C
06300C
0C300C
1C300C
1C300C
3C300C
3C300C
6C301C
4C3FFC
8C3008
0C0000
0C0000
0C0008
0C001C
0C3FFC
0C0000
0C0000
0C0000
0C0006
0DFFFF
0C0000
ENDCHAR
STARTCHAR C2571
ENCODING 9585
SWIDTH 400 0
DWIDTH 24 0
BBX 24 24 0 -2
BITMAP
039800
039800
071800
063800
063007
0C3FFF
1C6300
1C4300
3CC300
3C8300
7C0300
5C0304
9C03FE
1C0300
1C0300
1C0300
1C0300
1C0300
1C0300
1C0300
1C0300
1C0306
1CFFFF
180000
ENDCHAR
STARTCHAR C2572
ENCODING 9586
SWIDTH 400 0
DWIDTH 24 0
BBX 24 24 0 -2
BITMAP
039800
039800
071800
063000
063006
0C7FFF
1C6180
1CC180
3C8180
3C0180
7C0180
5C3990
9C3998
1C318C
1C718E
1C6186
1CC187
1C8187
1D0182
1C0180
1C0180
1C1F80
1C0F00
180200
ENDCHAR
STARTCHAR C2573
ENCODING 9587
SWIDTH 400 0
DWIDTH 24 0
BBX 24 24 0 -2
BITMAP
038008
03803E
0733FE
063E00
063000
0C3000
1C3006
1C3FFF
3C3000
3C3000
6C3380
4C3380
8C3300
0C3386
0C33FE
0C3300
0C3300
0C7300
0C7300
0C6301
0C6301
0CC3FF
0C81FF
0C007E
ENDCHAR
STARTCHAR C2574
ENCODING 9588
SWIDTH 400 0
DWIDTH 24 0
BBX 24 24 0 -2
BITMAP
000E00
018300
0181C0
030070
06003F
38700F
E06002
00C0C0
018060
070FF0
0FF818
0F8018
061C00
041C00
071810
061FF8
0FFC38
3E1870
061861
061843
060002
07FFFE
07FFFE
01FFFC
ENDCHAR
STARTCHAR C2575
ENCODING 9589
SWIDTH 400 0
DWIDTH 24 0
BBX 24 24 0 -2
BITMAP
003000
001800
001802
FFFFFF
000000
000040
07FFE0
0600E0
060060
060060
060060
060060
07FFE0
01C380
018300
018300
018300
018300
030301
030301
060303
0C03FF
3003FF
E000FE
ENDCHAR
STARTCHAR C2576
ENCODING 9590
SWIDTH 400 0
DWIDTH 24 0
BBX 24 24 0 -2
BITMAP
000000
0100E0
01C0C0
00E180
106308
1FFFFC
18000C
18000C
18000C
18000C
1FFFFC
180008
1871C0
1871C0
1861C0
1861C0
1861C0
38E1C0
30C1C1
30C1C1
6181C3
4301FF
8600FF
1C003E
ENDCHAR
STARTCHAR C2577
ENCODING 9591
SWIDTH 400 0
DWIDTH 24 0
BBX 24 24 0 -2
BITMAP
01C000
01C000
038180
07FFC0
0C0180
180308
7FFFFC
1C001C
1C000C
1C000C
1C001C
1FFFFC
1C0008
1C79E0
1C71C0
1C71C0
1C71C0
1861C0
1861C1
30C1C1
3181C3
6301FF
4600FF
0C003E
ENDCHAR
STARTCHAR C2578
ENCODING 9592
SWIDTH 400 0
DWIDTH 24 0
BBX 24 24 0 -2
BITMAP
000180
040FC0
07FFC0
060000
060000
060060
07FFF0
060000
060020
07FFF0
060000
060000
060006
FFFFFF
010300
03C380
038300
038300
030300
060301
0C0303
1803FF
3001FF
E000FE
ENDCHAR
STARTCHAR C2579
ENCODING 9593
SWIDTH 400 0
DWIDTH 24 0
BBX 24 24 0 -2
BITMAP
003000
001800
003600
006300
00C1C0
0180F0
07FFFF
1C101F
701C04
C01800
001830
001FF0
001800
001860
1FFFF0
0300F0
0181C0
00C300
007E00
003E00
00E780
0381FF
1E003F
F0000E
ENDCHAR
STARTCHAR C257a
ENCODING 9594
SWIDTH 400 0
DWIDTH 24 0
BBX 24 24 0 -2
BITMAP
0700E0
0700E0
0600C0
0600C6
FFFFFF
0600C0
0600C0
0600C0
0600C0
07FFC0
0600C0
000000
000006
7FFFFE
000800
000400
018200
01C300
038180
0300E0
060070
0C003F
30000E
E00000
ENDCHAR
STARTCHAR C257b
ENCODING 9595
SWIDTH 400 0
DWIDTH 24 0
BBX 24 24 0 -2
BITMAP
00C000
00C000
008000
010030
1FFFF0
1C0030
1C0030
1C0030
1C0030
1FFFF0
1C0030
1C0030
1C0030
1C0030
1FFFF0
080020
020000
0380E0
070070
060038
0C001C
18000E
300007
600000
ENDCHAR
STARTCHAR C257c
ENCODING 9596
SWIDTH 400 0
DWIDTH 24 0
BBX 24 24 0 -2
BITMAP
0003E0
041FF0
07F800
060000
060000
06001C
07FFFC
0601C0
0601C0
0601C0
0601C0
0601C0
0601C6
FFFFFF
000800
000400
018200
01C300
038180
0300E0
060070
0C003F
30000E
E00000
ENDCHAR
STARTCHAR C257d
ENCODING 9597
SWIDTH 400 0
DWIDTH 24 0
BBX 24 24 0 -2
BITMAP
000600
01C300
018180
0300C0
060060
0C003C
18701F
307007
E06000
004020
1C8070
1FFFF8
1C0030
1C0030
1C0030
1C0030
1FFFF0
1C0030
1C0030
1C0030
1C0030
1C0030
1FFFF0
180030
ENDCHAR
STARTCHAR C257e
ENCODING 9598
SWIDTH 400 0
DWIDTH 24 0
BBX 24 24 0 -2
BITMAP
000600
01C300
018180
0300C0
060060
0C003C
18001F
300007
E00000
180030
1FFFF8
180038
1801B8
1983B8
18E638
183C38
183C38
183738
1863B8
18C1B8
1F00F8
180038
1FFFF8
180030
ENDCHAR
STARTCHAR C2621
ENCODING 9761
SWIDTH 400 0
DWIDTH 24 0
BBX 24 24 0 -2
BITMAP
000000
60000C
7FFFFE
60400C
60700C
60300C
60184C
6018EC
67FFEC
60000C
61010C
63FF8C
63818C
63818C
63818C
63818C
63818C
63FF8C
63018C
60000C
60000C
6000FC
60003C
600018
ENDCHAR
STARTCHAR C2622
ENCODING 9762
SWIDTH 400 0
DWIDTH 24 0
BBX 24 24 0 -2
BITMAP
001800
001800
001800
201808
30381C
3FFFFC
30180C
3618CC
3318CC
31998C
30D90C
301A0C
30180C
30380C
307B0C
31D9CC
3F18EC
3E186C
36180C
30180C
30180C
3018FC
301878
201030
ENDCHAR
STARTCHAR C2623
ENCODING 9763
SWIDTH 400 0
DWIDTH 24 0
BBX 24 24 0 -2
BITMAP
000000
60000C
7FFFFE
60180C
60180C
62188C
6399EC
6319CC
6319CC
6319CC
67FF8C
62180C
60180C
6618CC
6718EC
6618CC
6618CC
6618CC
67FFCC
6600CC
60000C
6000FC
60003C
600018
ENDCHAR
STARTCHAR C2624
ENCODING 9764
SWIDTH 400 0
DWIDTH 24 0
BBX 24 24 0 -2
BITMAP
000380
000380
600380
3007C0
380E60
181C30
02181C
02302F
067FF7
06C002
041800
0C1C00
181800
181808
301FFC
F01800
F01800
601800
301800
301804
30180C
301FFC
300FFC
0003F8
ENDCHAR
STARTCHAR C2625
ENCODING 9765
SWIDTH 400 0
DWIDTH 24 0
BBX 24 24 0 -2
BITMAP
001800
60180C
70180E
6418EC
6618EC
6318CC
61998C
61990C
609A0C
7FFFFC
60000C
020080
03FFC0
0301C0
0301C0
0301C0
0301C0
0301C0
0601C1
0601C1
0C01C3
1801FF
3000FF
E0003E
ENDCHAR
STARTCHAR C2626
ENCODING 9766
SWIDTH 400 0
DWIDTH 24 0
BBX 24 24 0 -2
BITMAP
180030
1FFFF0
180030
181830
181830
181830
181930
1BFFB0
181830
181830
181830
1819B0
1FFFB0
183030
183030
186030
18C230
18C331
318FB9
33F999
33C19B
61800F
600007
C00003
ENDCHAR
STARTCHAR C2627
ENCODING 9767
SWIDTH 400 0
DWIDTH 24 0
BBX 24 24 0 -2
BITMAP
300030
3FFFF0
300030
303830
303830
313230
33B330
33B330
33B330
33B330
33FF30
303230
303030
323330
3333B0
333330
333330
333331
333339
37FF19
62031B
60000F
C00007
800003
ENDCHAR
STARTCHAR C2628
ENCODING 9768
SWIDTH 400 0
DWIDTH 24 0
BBX 24 24 0 -2
BITMAP
000020
000070
1FFFF0
001800
001800
0618C0
07FFE0
6618CC
7630CE
663CCC
6636CC
6666CC
6663CC
66C3CC
6780CC
6600CC
6600CC
660FCC
66038C
66010C
60000C
60000C
7FFFFC
00000C
ENDCHAR
STARTCHAR C2629
ENCODING 9769
SWIDTH 400 0
DWIDTH 24 0
BBX 24 24 0 -2
BITMAP
038007
038007
030006
030CE6
FFFCE6
0600C6
06C0C6
0C60C6
1C30C6
1818C6
360CC6
670CC6
C600C6
0600C6
0600C6
0E00C6
0CC0C6
1C60C6
183006
303006
7FF006
78307E
20003C
000008
ENDCHAR
STARTCHAR C262a
ENCODING 9770
SWIDTH 400 0
DWIDTH 24 0
BBX 24 24 0 -2
BITMAP
038007
038007
078006
0EC1C6
0C61C6
183186
101986
205986
5FE986
800186
100186
1C0186
180186
182186
1FF186
180186
180186
180186
180006
181006
181006
1FF07E
1FF03C
07E008
ENDCHAR
STARTCHAR C262b
ENCODING 9771
SWIDTH 400 0
DWIDTH 24 0
BBX 24 24 0 -2
BITMAP
040007
070007
060006
0C00E6
0C20E6
1830C6
1030C6
33F8C6
FE18C6
7010C6
0000C6
1DDCC6
19DCC6
3198C6
3330C6
6220C6
C660C6
8440C6
462006
233006
339806
19987E
1CCC3C
0CCC08
ENDCHAR
STARTCHAR C262c
ENCODING 9772
SWIDTH 400 0
DWIDTH 24 0
BBX 24 24 0 -2
BITMAP
200007
380007
300006
3008E6
34DCE6
3EFEC6
66CCC6
66CCC6
66CCC6
66CCC6
E6CCC6
D6CCC6
9CCCC6
0CFCC6
0CD8C6
18C0C6
18C0C6
18C0C6
30C606
30C406
60FC06
407C7E
80003C
000008
ENDCHAR
STARTCHAR C262d
ENCODING 9773
SWIDTH 400 0
DWIDTH 24 0
BBX 24 24 0 -2
BITMAP
0C01C0
0601C0
0601C0
0231C0
FFF9C0
0601C4
0E0FFE
0C01C6
18E1C6
30E1C6
60C1C6
38C1C6
0FC186
03E186
036186
036306
066306
0C660E
186CFC
307819
607003
807FFF
007FFF
001FFE
ENDCHAR
STARTCHAR C262e
ENCODING 9774
SWIDTH 400 0
DWIDTH 24 0
BBX 24 24 0 -2
BITMAP
01C700
01C700
018618
7FFFFC
018618
3FFFF8
318604
31860E
7FFFFF
030606
06060E
0C063C
180408
607800
007008
3FFFFC
00601C
00E00C
01C00C
03800C
070018
0E03F8
1800F0
E00060
ENDCHAR
STARTCHAR C262f
ENCODING 9775
SWIDTH 400 0
DWIDTH 24 0
BBX 24 24 0 -2
BITMAP
000E00
020E00
0F0C00
780C00
181806
181FFF
181B37
181B37
181337
193337
FFA337
180367
180667
180667
180C67
180CC7
1818C7
18D187
1F2307
1C4307
180606
080CFE
00303C
000018
ENDCHAR
STARTCHAR C2630
ENCODING 9776
SWIDTH 400 0
DWIDTH 24 0
BBX 24 24 0 -2
BITMAP
001C00
701C00
601800
601806
601FFE
6019C0
6031C0
6231C0
7F61C0
6041C0
6001C0
6001C2
607FFF
600180
600180
6001A0
600330
638318
7E060C
700C0E
601C06
203807
007003
00C003
ENDCHAR
STARTCHAR C2631
ENCODING 9777
SWIDTH 400 0
DWIDTH 24 0
BBX 24 24 0 -2
BITMAP
1C0000
1C0000
180010
1FFFF8
180000
180000
180000
180000
1FFFFC
0FFFFE
000000
060080
0700E0
0600C0
0600C6
FFFFFF
0600C0
0600C0
07FFC0
0700C0
0600C0
0600C0
07FFC0
060000
ENDCHAR
STARTCHAR C2632
ENCODING 9778
SWIDTH 400 0
DWIDTH 24 0
BBX 24 24 0 -2
BITMAP
1C0000
1C0000
180010
1FFFF8
180000
180000
180000
1C0000
1FFFFE
07FFFE
000000
070000
060000
0C0038
0FFFF8
181800
201804
7FFFFE
003400
006300
00C1E0
038078
06000E
780007
ENDCHAR
STARTCHAR C2633
ENCODING 9779
SWIDTH 400 0
DWIDTH 24 0
BBX 24 24 0 -2
BITMAP
001800
003800
003C00
006600
00D300
019CC0
031878
0618FF
381FCF
E01802
001800
001818
3FFFFC
0C0000
0E0000
0C0000
0C0038
0FFFF8
0C0004
0C0004
0C000C
0FFFFC
07FFFC
03FFF8
ENDCHAR
STARTCHAR C2634
ENCODING 9780
SWIDTH 400 0
DWIDTH 24 0
BBX 24 24 0 -2
BITMAP
000004
60000E
7FFFFE
600E00
600E00
600E00
600E00
600E0C
67FFFC
600E00
600E00
600E60
60FFF0
60C070
60C060
60C060
60C060
60C060
60C060
60FFE0
608060
600006
7FFFFF
000000
ENDCHAR
STARTCHAR C2635
ENCODING 9781
SWIDTH 400 0
DWIDTH 24 0
BBX 24 24 0 -2
BITMAP
000004
60000E
7FFFFE
600000
600700
60E600
60C600
60C608
61FFFC
618600
630600
660600
640610
61FFF8
600600
600600
600600
600600
600606
67FFFE
600000
600002
7FFFFF
000000
ENDCHAR
STARTCHAR C2636
ENCODING 9782
SWIDTH 400 0
DWIDTH 24 0
BBX 24 24 0 -2
BITMAP
000004
00000E
FFFFFE
600004
60000E
67FFFE
600600
600600
63061C
63FFFC
63060C
630F8C
630CCC
63186C
63306C
63600C
63C00C
6300FC
630078
620010
700000
3FFFFF
1FFFFF
000000
ENDCHAR
STARTCHAR C2637
ENCODING 9783
SWIDTH 400 0
DWIDTH 24 0
BBX 24 24 0 -2
BITMAP
000004
00000E
FFFFFE
600E00
600E00
610E20
61CE38
618E30
618E30
618E30
61FFF0
600E20
600E00
638E3C
638E38
638E38
638E38
638E38
63FFF8
600010
700000
3FFFFF
1FFFFF
000000
ENDCHAR
STARTCHAR C2638
ENCODING 9784
SWIDTH 400 0
DWIDTH 24 0
BBX 24 24 0 -2
BITMAP
000004
00000E
FFFFFE
608040
60E070
60C060
60CC60
60FC60
618C70
618C78
630C6C
67D866
66F867
6C7862
603060
606060
60C060
618060
630060
6C0040
700000
3FFFFF
1FFFFF
000000
ENDCHAR
STARTCHAR C2639
ENCODING 9785
SWIDTH 400 0
DWIDTH 24 0
BBX 24 24 0 -2
BITMAP
0700E0
0700E0
8600C0
6600C0
3600C0
3600C0
1600C0
0600C0
0600C6
FFFFFF
0600C0
0600C0
0600C0
0600C0
0600C0
0700C0
0798D8
0CCCCE
0CCCC7
0CC6C3
1840C0
1000C0
2000C0
4000C0
ENDCHAR
STARTCHAR C263a
ENCODING 9786
SWIDTH 400 0
DWIDTH 24 0
BBX 24 24 0 -2
BITMAP
000000
000038
3FFFF8
001800
001820
0C1870
0718E0
033300
003C00
006700
00C1E0
038078
0E101E
301C07
C01800
001800
003807
FFFFFF
001800
001800
001800
001800
001800
001000
ENDCHAR
STARTCHAR C263b
ENCODING 9787
SWIDTH 400 0
DWIDTH 24 0
BBX 24 24 0 -2
BITMAP
000000
009860
7FDFF0
0C1860
0C1860
0C1860
0C1860
0C1861
1FD861
F83873
E0707F
00E03F
019800
001800
001800
001800
003807
FFFFFF
001800
001800
001800
001800
001800
001000
ENDCHAR
STARTCHAR C263c
ENCODING 9788
SWIDTH 400 0
DWIDTH 24 0
BBX 24 24 0 -2
BITMAP
001800
001800
001804
001FFE
001800
001800
001800
60380C
7FFFFE
60700C
60730C
6063AC
6FFFFC
60E38C
60C30C
60C30C
61860C
61F60C
601E0C
601F0C
60318C
60E0CC
63804C
66000C
ENDCHAR
STARTCHAR C263d
ENCODING 9789
SWIDTH 400 0
DWIDTH 24 0
BBX 24 24 0 -2
BITMAP
200000
300007
3FFFFF
300000
300F00
300E00
300E00
300E38
33FFF8
300E00
300E00
300E00
300E06
3FFFFE
300C00
301800
301800
6030E0
606070
60C038
41FFFC
C1F80C
80C00C
000000
ENDCHAR
STARTCHAR C263e
ENCODING 9790
SWIDTH 400 0
DWIDTH 24 0
BBX 24 24 0 -2
BITMAP
200000
300007
3FFFFF
300000
300700
300600
300608
33C60E
33860C
33860C
33860C
33FFFC
310608
300600
33860E
33060E
33060C
63060C
63FFFC
62060C
400600
C00600
800600
000600
ENDCHAR
STARTCHAR C263f
ENCODING 9791
SWIDTH 400 0
DWIDTH 24 0
BBX 24 24 0 -2
BITMAP
200000
300007
3FFFFF
30E000
30E000
30C000
30C030
30FFF8
318600
330600
320600
300600
300604
30060E
37FFFE
300D00
300D80
6018C0
6038C0
607060
40E038
C1C01F
83800E
0E0004
ENDCHAR
STARTCHAR C2640
ENCODING 9792
SWIDTH 400 0
DWIDTH 24 0
BBX 24 24 0 -2
BITMAP
00E000
00E000
00C000
018000
0300C0
060060
1FFFF0
1F8038
0C0018
200006
7FFFFF
601C07
C01824
883878
1FFFF8
1C1830
1C1830
1C1830
1C1830
1C1870
1C1BF0
181860
001800
001000
ENDCHAR
STARTCHAR C2641
ENCODING 9793
SWIDTH 400 0
DWIDTH 24 0
BBX 24 24 0 -2
BITMAP
00E000
00E000
00C000
018000
0300C0
060060
1FFFF0
1F9038
0C1C18
101800
1C183C
181838
181838
183838
1FFFF8
001810
001800
001870
0FFFF0
001800
001800
001800
003807
FFFFFF
ENDCHAR
STARTCHAR C2642
ENCODING 9794
SWIDTH 400 0
DWIDTH 24 0
BBX 24 24 0 -2
BITMAP
003800
003800
003004
7FFFFE
406608
70C31C
1981B0
0F00C0
060070
0C003F
18004F
7FFFE7
C200E0
0200C0
0101C0
008180
004300
003E00
003C00
007F00
01C3C0
0700FF
1C003F
F0000C
ENDCHAR
STARTCHAR C2643
ENCODING 9795
SWIDTH 400 0
DWIDTH 24 0
BBX 24 24 0 -2
BITMAP
001800
001800
301818
3FFFFC
301818
301818
3FFFF8
301818
301818
3FFFF8
001800
001820
3FFFF0
040070
0200E0
0101C0
00C380
006700
003C00
007E00
00E780
0381FF
1E007F
F0001C
ENDCHAR
STARTCHAR C2644
ENCODING 9796
SWIDTH 400 0
DWIDTH 24 0
BBX 24 24 0 -2
BITMAP
004000
60E00C
7FFFFE
60620E
60620C
60620C
60620C
60620C
7FE20C
5C4318
1C0318
1C4138
FFE130
1C61B0
1C60E0
1860E0
1860E0
1861E0
3061B0
306318
20E61E
6FCC0F
C79807
833000
ENDCHAR
STARTCHAR C2645
ENCODING 9797
SWIDTH 400 0
DWIDTH 24 0
BBX 24 24 0 -2
BITMAP
000000
0C0060
0FFFF0
0C0060
0C0060
0C0060
0C0060
0C0060
0FFFE0
080000
000020
3FFFF0
000030
000030
000030
000030
000037
FFFFFF
030080
070060
060038
0C001C
18000E
600006
ENDCHAR
STARTCHAR C2646
ENCODING 9798
SWIDTH 400 0
DWIDTH 24 0
BBX 24 24 0 -2
BITMAP
001008
00181C
001FFC
C6180C
FF180C
E7180C
E6180C
E6381F
E67FFF
E6180C
E6180C
E6180C
E6180C
E6381F
E67FFF
E6180C
E6180C
FE180C
E6180C
40180C
00180C
0018FC
001878
001030
ENDCHAR
STARTCHAR C2647
ENCODING 9799
SWIDTH 400 0
DWIDTH 24 0
BBX 24 24 0 -2
BITMAP
000000
000007
007FFF
C30600
FF0600
E30600
E30E08
E30E1C
E30FFC
E30C0C
E30C0C
E30C0C
E30C1C
E31818
E31818
E31FF8
E31838
FF0038
E20038
400030
000030
000032
007FFF
000000
ENDCHAR
STARTCHAR C2648
ENCODING 9800
SWIDTH 400 0
DWIDTH 24 0
BBX 24 24 0 -2
BITMAP
000020
0C0070
0FFFF8
0C0030
0C0030
0C0030
0C0030
0C0030
0FFFF0
080000
000006
FFFFFF
306300
306300
30E300
30C300
318380
3301FC
3600FC
3C0000
300000
3FFFFC
3FFFFE
0FFFFE
ENDCHAR
STARTCHAR C2649
ENCODING 9801
SWIDTH 400 0
DWIDTH 24 0
BBX 24 24 0 -2
BITMAP
000020
0C0070
0FFFF8
0C0030
0C0030
0C0030
0FFFF0
0C0020
000000
000000
000007
FFFFFF
071CE0
0618C0
0618C0
0618C0
0618C0
0618C0
0618C1
0C18C1
0C18C3
1818FF
30187F
E0103E
ENDCHAR
STARTCHAR C264a
ENCODING 9802
SWIDTH 400 0
DWIDTH 24 0
BBX 24 24 0 -2
BITMAP
000000
0601C0
07FFE0
0600C0
0600C0
0600C0
0600C0
0600C0
0600C0
07FFC0
0600C0
000000
000000
60000C
7FFFFE
60180C
60180C
60180C
60180C
60180C
60180C
7FFFFC
60000C
600000
ENDCHAR
STARTCHAR C264b
ENCODING 9803
SWIDTH 400 0
DWIDTH 24 0
BBX 24 24 0 -2
BITMAP
0001C0
0001C0
0001C0
C601C0
FF01C0
E701C0
E639C0
E639C0
E631C0
E631C6
E631FE
E631C0
E631C0
E631C0
E631C0
E631C0
E631C0
FE71C0
E671C0
4071C0
00EDC0
00C7FF
0183FF
0300FC
ENDCHAR
STARTCHAR C264c
ENCODING 9804
SWIDTH 400 0
DWIDTH 24 0
BBX 24 24 0 -2
BITMAP
000E00
000E00
001C02
C61FFF
FF1800
E73000
E62004
E65FFE
E60000
E60008
E6001C
E61FFC
E60038
E60060
E601C0
E60300
E60E00
FE1C00
E63801
403001
007003
007FFF
003FFF
000FFE
ENDCHAR
STARTCHAR C264d
ENCODING 9805
SWIDTH 400 0
DWIDTH 24 0
BBX 24 24 0 -2
BITMAP
000020
000070
007FF8
C60E30
FF0E30
E70E30
E60E30
E60FB0
E67FB0
E60E30
E60E30
E60E30
E60E30
E67FB0
E60E30
E60E30
E60C30
FE1C30
E61830
401831
003031
00603F
00C03F
03800E
ENDCHAR
STARTCHAR C264e
ENCODING 9806
SWIDTH 400 0
DWIDTH 24 0
BBX 24 24 0 -2
BITMAP
000000
000060
007FF0
C61860
FF1860
E71860
E61860
E618C0
E618DC
E618FC
E6180C
E63C1C
E63418
E63638
E67230
E66370
E661E0
FE61C0
E6C1E0
40C330
01861C
010C0F
021806
007000
ENDCHAR
STARTCHAR C264f
ENCODING 9807
SWIDTH 400 0
DWIDTH 24 0
BBX 24 24 0 -2
BITMAP
0C0060
0600E0
01E380
003E00
003E00
007380
01C0E0
072038
3C7018
707000
006004
7FFFFE
00C000
00C000
018020
03FFF0
038030
078030
0F8030
1B8030
338030
438030
03FFF0
030030
ENDCHAR
STARTCHAR C2650
ENCODING 9808
SWIDTH 400 0
DWIDTH 24 0
BBX 24 24 0 -2
BITMAP
070000
070000
060018
07FFFC
0C7318
186318
306318
00C618
018618
030C18
061838
3833F0
00C0E0
030040
000060
0FFFF0
0C0070
0C0060
0C0060
0C0060
0C0060
0C0060
0FFFE0
0C0060
ENDCHAR
STARTCHAR C2651
ENCODING 9809
SWIDTH 400 0
DWIDTH 24 0
BBX 24 24 0 -2
BITMAP
000000
60000C
7FFFFE
60400C
60700C
60380C
60186C
6FFFFC
60380C
60380C
60300C
60700C
60600C
60C00C
60C10C
61808C
6300CC
661FEC
6FE06C
67002C
62000C
7FFFFC
60000C
600000
ENDCHAR
STARTCHAR C2652
ENCODING 9810
SWIDTH 400 0
DWIDTH 24 0
BBX 24 24 0 -2
BITMAP
000000
60000C
7FFFFE
60004C
60C0EC
6FEFEC
68E86C
64C46C
64C46C
66C6EC
63C2CC
6382CC
63838C
63C38C
6343CC
6267CC
663E6C
6C1C3C
68381C
60200C
60000C
7FFFFC
60000C
600000
ENDCHAR
STARTCHAR C2653
ENCODING 9811
SWIDTH 400 0
DWIDTH 24 0
BBX 24 24 0 -2
BITMAP
000000
60000C
7FFFFE
60010C
61038C
63FFCC
63818C
63818C
63818C
63FF8C
63800C
63800C
63800C
61FFCC
60FFEC
60000C
60000C
60006C
6FFFFC
60000C
60000C
7FFFFC
60000C
600000
ENDCHAR
STARTCHAR C2654
ENCODING 9812
SWIDTH 400 0
DWIDTH 24 0
BBX 24 24 0 -2
BITMAP
000000
60000C
7FFFFE
60000C
60010C
67FF8C
60618C
60618C
60618C
60618C
6061AC
6FFFFC
60618C
60618C
60618C
60618C
60618C
60618C
67FF8C
60010C
60000C
7FFFFC
60000C
600000
ENDCHAR
STARTCHAR C2655
ENCODING 9813
SWIDTH 400 0
DWIDTH 24 0
BBX 24 24 0 -2
BITMAP
000000
60000C
7FFFFE
60000C
6600CC
67FFEC
6618EC
6618CC
6618CC
6618CC
6738CC
67FFCC
66008C
66000C
66002C
66002C
66006C
67FFEC
63FFEC
60000C
60000C
7FFFFC
60000C
600000
ENDCHAR
STARTCHAR C2656
ENCODING 9814
SWIDTH 400 0
DWIDTH 24 0
BBX 24 24 0 -2
BITMAP
000000
60000C
7FFFFE
60000C
60006C
6FFFEC
60180C
60184C
671FEC
67180C
66180C
66184C
67FFEC
6600EC
60006C
60006C
6000EC
6000CC
603F8C
60030C
60000C
7FFFFC
60000C
600000
ENDCHAR
STARTCHAR C2657
ENCODING 9815
SWIDTH 400 0
DWIDTH 24 0
BBX 24 24 0 -2
BITMAP
000000
60000C
7FFFFE
6000CC
6FFFEC
60200C
60380C
60700C
60E38C
61C38C
63870C
63C60C
60FC0C
60380C
60330C
60618C
60C0CC
61BFEC
67E06C
63002C
60000C
7FFFFC
60000C
600000
ENDCHAR
STARTCHAR C2658
ENCODING 9816
SWIDTH 400 0
DWIDTH 24 0
BBX 24 24 0 -2
BITMAP
000000
60000C
7FFFFE
60000C
60000C
63018C
63FFCC
6301CC
6301CC
6301CC
6301CC
6301CC
6301CC
63FFCC
63018C
60000C
60000C
6000EC
6FFFEC
60000C
60000C
7FFFFC
60000C
600000
ENDCHAR
STARTCHAR C2659
ENCODING 9817
SWIDTH 400 0
DWIDTH 24 0
BBX 24 24 0 -2
BITMAP
000000
60000C
7FFFFE
60100C
607B8C
67FB8C
60C30C
60C30C
60C30C
60C32C
6FFFFC
60C30C
60C30C
60C30C
60C30C
61830C
61830C
63830C
63030C
66030C
60000C
7FFFFC
60000C
600000
ENDCHAR
STARTCHAR C265a
ENCODING 9818
SWIDTH 400 0
DWIDTH 24 0
BBX 24 24 0 -2
BITMAP
000000
60000C
7FFFFE
60000C
60030C
663F8C
67F80C
66180C
66180C
6618CC
67FFEC
660C0C
660C0C
660C0C
66060C
66162C
66732C
67C1EC
6700EC
62006C
60000C
7FFFFC
60000C
600000
ENDCHAR
STARTCHAR C265b
ENCODING 9819
SWIDTH 400 0
DWIDTH 24 0
BBX 24 24 0 -2
BITMAP
000000
60000C
7FFFFE
60100C
600C0C
60E60C
60C30C
61838C
6181CC
6301FC
67FFFC
6C633C
68630C
60630C
60C30C
60C30C
61830C
633F0C
661E0C
6C040C
60000C
7FFFFC
60000C
600000
ENDCHAR
STARTCHAR C265c
ENCODING 9820
SWIDTH 400 0
DWIDTH 24 0
BBX 24 24 0 -2
BITMAP
000000
60000C
7FFFFE
60100C
600C0C
60E60C
60C30C
61838C
6181CC
6370FC
66707C
6C703C
68600C
60C30C
61818C
6180CC
631FEC
67F06C
63806C
60000C
60000C
7FFFFC
60000C
600000
ENDCHAR
STARTCHAR C265d
ENCODING 9821
SWIDTH 400 0
DWIDTH 24 0
BBX 24 24 0 -2
BITMAP
000000
1E0004
1C3FFE
1C01C0
1C01C0
1C01C0
FF81C0
1C01C0
1C01C0
1C01C0
1C01C0
1C01CC
1C3FFE
1C01C0
1C01C0
1C01C0
1C01C0
1F81C0
1E01C0
F001C0
E001C0
4001C2
007FFF
000000
ENDCHAR
STARTCHAR C265e
ENCODING 9822
SWIDTH 400 0
DWIDTH 24 0
BBX 24 24 0 -2
BITMAP
000000
000060
07FFE0
000000
00000C
7FFFFE
018180
018180
018180
038180
030180
070180
0E0180
1C0100
101C00
001800
001820
0FFFF0
001800
001800
001800
001800
003807
FFFFFF
ENDCHAR
STARTCHAR C265f
ENCODING 9823
SWIDTH 400 0
DWIDTH 24 0
BBX 24 24 0 -2
BITMAP
000008
1E001C
1C1FFC
1C000C
1C000C
1C180C
FF9FFC
1C1800
1C1800
1C180C
1C3FFE
1C100E
1C000C
1C000C
1C000C
1C000C
1C001C
1F8018
1E07F0
F00060
E00000
400006
007FFF
000000
ENDCHAR
STARTCHAR C2660
ENCODING 9824
SWIDTH 400 0
DWIDTH 24 0
BBX 24 24 0 -2
BITMAP
000000
1E0007
1C7FFF
1C00C0
1C00C0
1C0180
FF8300
1C0600
1C0C0E
1C180C
1C3818
1C1C30
1C0760
1C01E0
1C01C0
1C0180
1C0300
1F8610
1E0C08
F01804
E030FE
407F87
003003
001000
ENDCHAR
STARTCHAR C2661
ENCODING 9825
SWIDTH 400 0
DWIDTH 24 0
BBX 24 24 0 -2
BITMAP
001800
001800
001800
001800
0E1870
0C1870
0C1860
0D987C
3F99FC
0C1860
0C1860
0C1860
0C1860
0C1860
7FDBFE
001800
001800
001800
001801
001801
001803
001FFF
001FFF
0007FE
ENDCHAR
STARTCHAR C2662
ENCODING 9826
SWIDTH 400 0
DWIDTH 24 0
BBX 24 24 0 -2
BITMAP
003800
1E3800
1C300C
1C3FFE
1C3000
1C6000
FF6010
1CFFF8
1C0000
1C0000
1C0030
1CFFF8
1C0038
1C0038
1C0038
1C0038
1C0038
1F8038
1E0018
F00019
E0001D
40000F
000007
000003
ENDCHAR
STARTCHAR C2663
ENCODING 9827
SWIDTH 400 0
DWIDTH 24 0
BBX 24 24 0 -2
BITMAP
000000
1E1838
1C1FFC
1C1818
1C1818
1C1818
FF9818
1C7FFE
1C1818
1C1818
1C1818
1C181A
1C7FFF
1C1C18
1C1818
1C1818
1C1818
1F9818
1E1818
F03018
E03018
4061F8
00C078
018030
ENDCHAR
STARTCHAR C2664
ENCODING 9828
SWIDTH 400 0
DWIDTH 24 0
BBX 24 24 0 -2
BITMAP
001800
1E1800
1C1800
1C3806
1C3FFF
1C3007
FFE007
1C4007
1C00E7
1C3FE7
1C1067
1C0CC7
1C0787
1C0387
1C0787
1C0CE7
1C1877
1FB037
1E6006
F00006
E0000E
4001FC
000078
000030
ENDCHAR
STARTCHAR C2665
ENCODING 9829
SWIDTH 400 0
DWIDTH 24 0
BBX 24 24 0 -2
BITMAP
001800
001800
001870
0C1870
1E1860
3B1860
319860
60D878
60D8CC
FFF98E
001906
001A07
001C02
001800
00181C
3FFFFC
001800
001800
001800
001800
001800
001806
FFFFFF
000000
ENDCHAR
STARTCHAR C2666
ENCODING 9830
SWIDTH 400 0
DWIDTH 24 0
BBX 24 24 0 -2
BITMAP
001000
001C00
1C183C
181838
181838
181838
1FFFF8
103830
001800
001800
001804
7FFFFE
001000
001C00
001800
001830
3FFFF8
001800
001800
001800
001800
001806
FFFFFF
000000
ENDCHAR
STARTCHAR C2667
ENCODING 9831
SWIDTH 400 0
DWIDTH 24 0
BBX 24 24 0 -2
BITMAP
01C008
01C01C
418FFC
318618
198238
1D8330
0D81B0
0181E0
0380E0
0301F0
060338
0C061F
180C0F
303006
401000
001C00
001800
001818
3FFFFC
001800
001800
001800
003807
FFFFFF
ENDCHAR
STARTCHAR C2668
ENCODING 9832
SWIDTH 400 0
DWIDTH 24 0
BBX 24 24 0 -2
BITMAP
060000
060000
0C001C
0FFFFC
18000C
30030C
67FF0C
00000C
00030C
07FF0C
00000C
000018
0007F8
0001F0
001060
001C00
001800
001818
3FFFFC
001800
001800
001800
003807
FFFFFF
ENDCHAR
STARTCHAR C2669
ENCODING 9833
SWIDTH 400 0
DWIDTH 24 0
BBX 24 24 0 -2
BITMAP
21C0E0
39C0E0
3180C0
3180C0
3180C0
3180C0
3180C0
3180C0
7F80CC
219FFC
0180C0
0180C0
2180C0
3F80C0
3180C0
3180C0
3180C0
3180C0
7180C0
6180C0
6180C0
C180C2
81BFFF
018000
ENDCHAR
STARTCHAR C266a
ENCODING 9834
SWIDTH 400 0
DWIDTH 24 0
BBX 24 24 0 -2
BITMAP
0600E0
0600E0
0600C0
0600C0
0EC0C0
3FC0C0
0600C0
0600C0
0600C6
065FFE
7FE0C0
0600C0
0600C0
0600C0
0600C0
FFE0C0
0E00C0
0600C0
0600C0
0600C0
0600C0
0600C2
063FFF
040000
ENDCHAR
STARTCHAR C266b
ENCODING 9835
SWIDTH 400 0
DWIDTH 24 0
BBX 24 24 0 -2
BITMAP
003000
001800
00080C
7FFFFE
0C0000
0C0000
0C0000
0C0000
0E0000
0FFFF8
07FFF8
000000
000030
0FFFF0
001800
001800
001800
001806
FFFFFF
001800
001800
001800
003838
1FFFF8
ENDCHAR
STARTCHAR C266c
ENCODING 9836
SWIDTH 400 0
DWIDTH 24 0
BBX 24 24 0 -2
BITMAP
00C000
00C000
018080
03FFC0
0301E0
0703C0
0DC700
187E00
603F00
00E7FF
0780FF
3E103C
E01C00
0E1800
0C1860
1FFFF0
181800
301800
201804
7FFFFE
001800
001800
001800
001000
ENDCHAR
STARTCHAR C266d
ENCODING 9837
SWIDTH 400 0
DWIDTH 24 0
BBX 24 24 0 -2
BITMAP
00E000
00E000
00C000
01C030
01FFF8
030038
078070
0CE060
1838C0
301D80
000F00
000600
000C00
003800
00E000
038000
1C0000
300000
200008
21820C
21C306
60C387
C0C183
C04003
ENDCHAR
STARTCHAR C266e
ENCODING 9838
SWIDTH 400 0
DWIDTH 24 0
BBX 24 24 0 -2
BITMAP
100000
1C0038
183FF8
180E38
180E38
330E38
3F8EF8
33BFF8
338E38
338E38
630E38
7B0E38
CF3FF8
860E38
060E38
060C38
0C0C38
0C1C38
181838
101839
303039
60603F
C0C01F
838006
ENDCHAR
STARTCHAR C266f
ENCODING 9839
SWIDTH 400 0
DWIDTH 24 0
BBX 24 24 0 -2
BITMAP
003000
003000
007004
7FFFFE
00C180
018080
030060
060030
0C039C
19838F
30E307
E07300
042300
060300
038300
018300
000318
3FFFFC
000300
000300
000300
000300
000300
000300
ENDCHAR
STARTCHAR C2670
ENCODING 9840
SWIDTH 400 0
DWIDTH 24 0
BBX 24 24 0 -2
BITMAP
003000
003000
007004
7FFFFE
00C180
018080
030060
060030
0C001C
18002F
380077
EFFFF0
003800
007000
00C380
038780
070E00
03FC00
0078C0
00C060
078030
1FFFF8
3FC018
1C0008
ENDCHAR
STARTCHAR C2671
ENCODING 9841
SWIDTH 400 0
DWIDTH 24 0
BBX 24 24 0 -2
BITMAP
000000
00C00C
FFEFFE
61C41C
318618
1B0330
0E01E0
0F01E0
1B83B0
31C71F
60DC0F
809006
00C000
00C1C0
0181C6
FFFFFF
030180
070300
060700
0FCE00
047F00
0073E0
038078
7E003C
ENDCHAR
STARTCHAR C2672
ENCODING 9842
SWIDTH 400 0
DWIDTH 24 0
BBX 24 24 0 -2
BITMAP
000000
000038
1FFFF8
000000
000007
FFFFFF
01C000
038030
0E001C
3FFFFE
3FC006
188000
00C000
00C1C0
0181C6
FFFFFF
030180
070300
060700
0FCE00
047F00
0073E0
038078
7E003C
ENDCHAR
STARTCHAR C2673
ENCODING 9843
SWIDTH 400 0
DWIDTH 24 0
BBX 24 24 0 -2
BITMAP
000000
000007
FFFFFF
001C00
301818
38181C
301818
301818
301818
301818
3FFFF8
008018
00C000
00C1C0
0181C6
FFFFFF
030180
070300
060700
0FCE00
047F00
0073E0
038078
7E003C
ENDCHAR
STARTCHAR C2674
ENCODING 9844
SWIDTH 400 0
DWIDTH 24 0
BBX 24 24 0 -2
BITMAP
00001E
38107E
381FE0
301860
311860
339860
FFD860
FB9860
339862
339FFF
339860
339860
731860
631860
671860
E61860
3E1830
0E1830
1F1838
139819
21DB9D
40DF0F
801C07
000803
ENDCHAR
STARTCHAR C2675
ENCODING 9845
SWIDTH 400 0
DWIDTH 24 0
BBX 24 24 0 -2
BITMAP
0001C0
3801C0
380380
3007C0
320660
330C30
FF881C
FB100F
332807
334E02
330C0C
331FFE
73180E
66300C
66200C
E6400C
3C000C
1E000C
1F000C
33000C
21800C
4001FC
800078
000030
ENDCHAR
STARTCHAR C2676
ENCODING 9846
SWIDTH 400 0
DWIDTH 24 0
BBX 24 24 0 -2
BITMAP
000004
03800E
7FCFFF
31801C
318038
318060
318060
318060
F18060
718060
318062
399FFF
3D8060
378060
378060
318060
318060
318060
318060
318060
318060
3187E0
FFE3C0
000180
ENDCHAR
STARTCHAR C2677
ENCODING 9847
SWIDTH 400 0
DWIDTH 24 0
BBX 24 24 0 -2
BITMAP
001800
001800
001820
1FFFF0
003800
001800
001800
38181C
381018
300318
31FF98
300718
300C18
301818
301818
3018D8
37FFF8
301818
301818
301818
301818
31F818
30F018
306018
ENDCHAR
STARTCHAR C2678
ENCODING 9848
SWIDTH 400 0
DWIDTH 24 0
BBX 24 24 0 -2
BITMAP
000180
038180
7F8380
030340
060760
0C0630
1C0C38
1C181C
1C100F
1C2827
1FCE3A
1E0C30
FC0C30
FC0C30
1C0C30
1C0C30
1C1830
1C1830
1C1830
1C1030
1C3030
FC6030
38C030
318030
ENDCHAR
STARTCHAR C2679
ENCODING 9849
SWIDTH 400 0
DWIDTH 24 0
BBX 24 24 0 -2
BITMAP
003000
001800
201802
3FFFFF
608007
E0E006
C0C00C
00C040
00FFE0
018000
018000
030020
03FFF0
020030
000030
000030
000037
FFFFFF
000030
000030
000070
001FE0
0003C0
000180
ENDCHAR
STARTCHAR C267a
ENCODING 9850
SWIDTH 400 0
DWIDTH 24 0
BBX 24 24 0 -2
BITMAP
003000
001800
201802
3FFFFF
600007
E00006
C0600C
003000
001804
7FFFFE
01C000
00C000
00C020
00C070
01FFF8
018030
018030
038030
030030
060030
0C0070
180FE0
3003C0
E00180
ENDCHAR
STARTCHAR C267b
ENCODING 9851
SWIDTH 400 0
DWIDTH 24 0
BBX 24 24 0 -2
BITMAP
003000
001800
201802
3FFFFF
600007
E00006
C0000C
000038
3FFFF8
001800
0C1820
0E1FF0
0C1800
0C1800
0C1810
0FFFF8
0C0038
000038
000038
000038
000038
0007F0
0001E0
000040
ENDCHAR
STARTCHAR C267c
ENCODING 9852
SWIDTH 400 0
DWIDTH 24 0
BBX 24 24 0 -2
BITMAP
003000
201806
3FFFFF
600007
E60004
C700C8
860FE0
077800
07C00C
06000C
070018
03FFFC
01FFF8
040000
070000
060000
060038
07FFF8
060000
060004
06000C
07FFFC
07FFFC
01FFF8
ENDCHAR
STARTCHAR C267d
ENCODING 9853
SWIDTH 400 0
DWIDTH 24 0
BBX 24 24 0 -2
BITMAP
003000
001800
201802
3FFFFF
600007
E0E006
C0E00C
00E1C0
1FFFE0
01C0C1
0180C1
0300C3
0600FF
1C007F
F0003E
07FFE0
0300E0
0181C0
00C380
007E00
003E00
01F7FF
0780FF
FC001E
ENDCHAR
STARTCHAR C267e
ENCODING 9854
SWIDTH 400 0
DWIDTH 24 0
BBX 24 24 0 -2
BITMAP
003000
001800
201802
3FFFFF
600007
E00006
C00E0C
008300
01C180
0180C0
030060
060038
0C00DF
3FFFEE
E0C0C0
00C0C0
00C0C0
0180C0
0180C0
0300C0
0601C0
0C1F80
180F00
600200
ENDCHAR
STARTCHAR C2721
ENCODING 10017
SWIDTH 400 0
DWIDTH 24 0
BBX 24 24 0 -2
BITMAP
001800
001800
00180C
3FFFFC
001800
003030
0FFFF0
006000
006002
FFFFFF
00C0C0
0180E0
0300C4
0600CE
1DFFFE
3000C0
C0C0C0
0078C0
0018C0
0008C0
0000C0
000FC0
0003C0
000180
ENDCHAR
STARTCHAR C2722
ENCODING 10018
SWIDTH 400 0
DWIDTH 24 0
BBX 24 24 0 -2
BITMAP
001800
001800
081830
041870
061860
0318C0
211886
7FFFFF
600007
C70006
C7000C
860000
060020
070070
07FFF0
060000
060000
060000
060004
06000C
060008
07FFF8
03FFFC
00FFF8
ENDCHAR
STARTCHAR C2723
ENCODING 10019
SWIDTH 400 0
DWIDTH 24 0
BBX 24 24 0 -2
BITMAP
001800
001800
071840
071870
0E1838
0C189C
1819EE
301B86
601E00
007C00
00E000
079000
7C1C00
001800
00180E
7FFFFE
003400
007600
006300
00C180
0180E0
07007F
1C003F
F0000C
ENDCHAR
STARTCHAR C2724
ENCODING 10020
SWIDTH 400 0
DWIDTH 24 0
BBX 24 24 0 -2
BITMAP
001800
001800
071840
071870
0E1838
0C189C
1819EE
301B86
601E00
007C00
00E000
079000
7C1C00
001800
041900
0718C0
0E1860
0C1838
18181C
30180C
601804
03F800
00F000
006000
ENDCHAR
STARTCHAR C2725
ENCODING 10021
SWIDTH 400 0
DWIDTH 24 0
BBX 24 24 0 -2
BITMAP
1C0040
1C0220
1C03B0
1C0710
1C0618
1C4C0E
FFE807
1F9203
1F830C
1F87FE
1F860E
1F8C0C
1F980C
1BB00C
1B800C
1B800C
33800C
33801C
3383F9
338031
638023
63FFFF
C1FFFF
80FFFE
ENDCHAR
STARTCHAR C2726
ENCODING 10022
SWIDTH 400 0
DWIDTH 24 0
BBX 24 24 0 -2
BITMAP
000004
60700E
7FFBFF
603006
603006
603006
603006
7FF006
6037FE
600006
600000
600004
6007FE
6001C6
6001C6
6001C6
600186
600186
600306
E00306
C0060E
C00CFC
801878
00E030
ENDCHAR
STARTCHAR C2727
ENCODING 10023
SWIDTH 400 0
DWIDTH 24 0
BBX 24 24 0 -2
BITMAP
200000
30000C
3FFFFE
30000C
30000C
30000C
3FFFFC
30040C
300700
300700
300604
37FFFE
300600
300600
300630
33FFF8
30C070
6060E0
601980
600F00
C01F80
C078FF
80C03F
0F800C
ENDCHAR
STARTCHAR C2728
ENCODING 10024
SWIDTH 400 0
DWIDTH 24 0
BBX 24 24 0 -2
BITMAP
200000
30000C
3FFFFE
30000C
30000C
30000C
3FFFFC
30000C
301CE0
37FEE0
3018C0
3010C0
3060C0
3060C0
306EC0
30F8C0
3FE0C0
6E60C0
6660C0
6060C1
C060C3
C3E0FF
81E07F
00C03E
ENDCHAR
STARTCHAR C2729
ENCODING 10025
SWIDTH 400 0
DWIDTH 24 0
BBX 24 24 0 -2
BITMAP
200000
30000C
3FFFFE
30000C
30000C
30000C
30000C
3FFFFC
30000C
300000
310008
33FFFC
33800C
33800C
33800C
33800C
33801C
63FFFC
63800C
63800C
C3800C
C3800C
83FFFC
030008
ENDCHAR
STARTCHAR C272a
ENCODING 10026
SWIDTH 400 0
DWIDTH 24 0
BBX 24 24 0 -2
BITMAP
200000
300038
3FFFF8
300E00
33CC70
338C70
338C60
33FFE0
300C00
370C38
370C38
360C38
360C38
37FFF0
300000
300006
7FFFFE
200006
000006
000006
000006
0003FE
00007C
000018
ENDCHAR
STARTCHAR C272b
ENCODING 10027
SWIDTH 400 0
DWIDTH 24 0
BBX 24 24 0 -2
BITMAP
000000
007380
3FFB80
00E300
018300
030300
07FB00
FF0300
F30301
430301
030301
070383
7F03FF
0E00FF
041C00
001800
301818
38181C
301818
301818
301818
301818
3FFFF8
000018
ENDCHAR
STARTCHAR C272c
ENCODING 10028
SWIDTH 400 0
DWIDTH 24 0
BBX 24 24 0 -2
BITMAP
001800
301818
38181C
301818
301818
301818
3FFFF8
001018
001C00
001800
003838
1FFFF8
001800
001820
1FFFF0
001800
001800
001806
FFFFFF
001800
001800
001800
001800
001000
ENDCHAR
STARTCHAR C272d
ENCODING 10029
SWIDTH 400 0
DWIDTH 24 0
BBX 24 24 0 -2
BITMAP
000000
1E0007
1C1FFF
1C0060
1C00E0
5D00C0
DDC180
DD8300
DD8606
DD8C0E
DD980C
DD8E18
DD8330
DD81E0
DD80C0
DD8180
DD8300
DD8308
FF860C
018C06
0018FF
003F83
001803
000001
ENDCHAR
STARTCHAR C272e
ENCODING 10030
SWIDTH 400 0
DWIDTH 24 0
BBX 24 24 0 -2
BITMAP
0001C0
1E01C0
1C0180
1C0180
1C0180
5D0182
DDDFFF
DD8380
DD8300
DD8320
DD8330
DD8670
DD8660
DD8660
DD8CC0
DD8CC0
DD9980
DD9990
FFB308
01B304
006606
00CFFF
000F03
000600
ENDCHAR
STARTCHAR C272f
ENCODING 10031
SWIDTH 400 0
DWIDTH 24 0
BBX 24 24 0 -2
BITMAP
0000E0
1E00E0
1C00C0
1C00C0
1C00C0
5D00C0
DDC6C6
DDBFCE
DD86F8
DD86F0
DD86E0
DD86F0
DD8ED0
DD8ED8
DD8CD8
DD8CC8
DD98CC
DD98C6
FFB0C6
01B0C7
0060C3
004FC0
0003C0
000180
ENDCHAR
STARTCHAR C2730
ENCODING 10032
SWIDTH 400 0
DWIDTH 24 0
BBX 24 24 0 -2
BITMAP
001800
301818
38181C
301818
383818
3FFFF8
000010
0E0000
0C0000
1C0000
180020
3FFFF0
103030
003030
003030
003030
007037
FFFFFF
00C100
0180E0
030038
06000E
1C0006
F00003
ENDCHAR
STARTCHAR C2731
ENCODING 10033
SWIDTH 400 0
DWIDTH 24 0
BBX 24 24 0 -2
BITMAP
001800
301818
38181C
301818
301818
301818
3FFFF8
000018
060080
0701E0
0601C0
0601C0
0601C0
0601C0
0701C0
0781C0
0C81E0
0CC320
1CC330
186618
386C1C
70180F
603007
C0C003
ENDCHAR
STARTCHAR C2732
ENCODING 10034
SWIDTH 400 0
DWIDTH 24 0
BBX 24 24 0 -2
BITMAP
0600E0
0600E0
7600C0
6600C0
6600C0
66C0C0
7FC0C4
661CC7
C61CC6
C618C6
8618C6
0618C6
07D8C6
0E18C6
FE18C6
F618C6
4618C6
0618C6
0618C6
0618C6
0618C6
061FFE
061806
040004
ENDCHAR
STARTCHAR C2733
ENCODING 10035
SWIDTH 400 0
DWIDTH 24 0
BBX 24 24 0 -2
BITMAP
000E00
1E0E00
1C0E00
1C0C06
1C0FFF
5D1807
DDD807
DDB007
DD8387
DD8307
DD8307
DD8607
DD8C47
DD8827
DD9FF7
DD9C37
DD8807
DD8007
FF8007
018006
00000E
0001FC
000078
000030
ENDCHAR
STARTCHAR C2734
ENCODING 10036
SWIDTH 400 0
DWIDTH 24 0
BBX 24 24 0 -2
BITMAP
200800
338C60
3F8FF0
338C60
338C60
338C60
338C60
338C60
33EC61
33D861
619861
603073
C0607F
80C01F
001C00
001800
301818
38181C
301818
301818
301818
301818
3FFFF8
000018
ENDCHAR
STARTCHAR C2735
ENCODING 10037
SWIDTH 400 0
DWIDTH 24 0
BBX 24 24 0 -2
BITMAP
000000
63830C
7FC3FE
61830C
61830C
61830C
61FF0C
61830C
60000C
60000C
60000C
6001FC
600018
600000
001C00
001800
301818
38181C
301818
301818
301818
301818
3FFFF8
000018
ENDCHAR
STARTCHAR C2736
ENCODING 10038
SWIDTH 400 0
DWIDTH 24 0
BBX 24 24 0 -2
BITMAP
000000
000000
7039C6
3831C6
1C318C
00618C
00630C
00C318
088610
FD0C20
1D8C20
1CC610
1C6308
1C618C
1C3186
1831C6
1818C7
3018C7
301842
600000
FE0000
CFFFFF
01FFFF
007FFC
ENDCHAR
STARTCHAR C2737
ENCODING 10039
SWIDTH 400 0
DWIDTH 24 0
BBX 24 24 0 -2
BITMAP
000000
00000C
3FFFFC
001800
30183C
0E1870
0618E0
021880
001806
FFFFFF
001C00
001870
0018E0
0019C0
001F00
001C00
003800
00F800
039800
1C1800
F01800
03F800
00F000
006000
ENDCHAR
STARTCHAR C2738
ENCODING 10040
SWIDTH 400 0
DWIDTH 24 0
BBX 24 24 0 -2
BITMAP
000020
000070
1FFFF8
006030
006036
FFFFFF
006030
006030
00C030
3FFFF0
018400
018E00
030E00
060E38
0FFFFC
1B0E18
630E18
830E18
030E18
030E38
030FF8
020E30
000E00
000C00
ENDCHAR
STARTCHAR C2739
ENCODING 10041
SWIDTH 400 0
DWIDTH 24 0
BBX 24 24 0 -2
BITMAP
000000
000007
FFFFFF
003820
007070
01FFF8
0700E0
1D8380
206E00
007800
01F000
0F1C00
701800
001820
1FFFF0
1C1830
1C1830
1C1830
1C1830
1C1870
1C1BF0
181860
001800
001000
ENDCHAR
STARTCHAR C273a
ENCODING 10042
SWIDTH 400 0
DWIDTH 24 0
BBX 24 24 0 -2
BITMAP
000000
000007
FFFFFF
006000
00C300
018780
01CE00
007800
007080
00C0C0
0380E0
0FFFE0
0FF060
061C00
001820
1FFFF0
1C3830
1C1830
1C1830
1C1870
1C1BF0
181860
001800
001000
ENDCHAR
STARTCHAR C273b
ENCODING 10043
SWIDTH 400 0
DWIDTH 24 0
BBX 24 24 0 -2
BITMAP
1C0060
1C3860
1C3060
1C3060
1C3060
FFB060
DDB060
DDB060
DDB262
DDBF7F
DDB060
DDB060
DDB060
DDB060
DDB060
DDB060
DDB060
DFB060
5D3061
1C3361
1C3663
1C3C7F
1C387F
18303E
ENDCHAR
STARTCHAR C273c
ENCODING 10044
SWIDTH 400 0
DWIDTH 24 0
BBX 24 24 0 -2
BITMAP
1C0000
1C1804
1C1FFE
1C1806
5F9806
FFD806
DD9806
DD9806
DD9806
DD9806
DD9806
DD9FFE
DD9806
DD9806
DD9806
DD9806
DD9806
DF9806
5D1806
1C1806
1C1FFE
1C1806
1C1804
180000
ENDCHAR
STARTCHAR C273d
ENCODING 10045
SWIDTH 400 0
DWIDTH 24 0
BBX 24 24 0 -2
BITMAP
1C01C0
1C01C0
1C0180
1C0180
5F8186
FFC1FF
DD8180
DD8180
DD8180
DD818C
DDBFFE
DD980C
DD880C
DD8818
DD8C18
DD8630
DD8360
DF83C0
5D01C0
1C03E0
1C0638
1C1C1F
1C700F
19C007
ENDCHAR
STARTCHAR C273e
ENCODING 10046
SWIDTH 400 0
DWIDTH 24 0
BBX 24 24 0 -2
BITMAP
0003F8
203FFC
3FF800
301C00
301800
301806
3FFFFF
301800
301804
3FFFFE
301C06
301806
3318C6
33FFE6
331866
331866
331866
331866
331BE6
6318C6
62181E
40180C
C01800
801800
ENDCHAR
STARTCHAR C273f
ENCODING 10047
SWIDTH 400 0
DWIDTH 24 0
BBX 24 24 0 -2
BITMAP
001800
003800
003C00
006600
00C300
0380F0
06007F
1E01CE
F18184
00C300
004600
001C00
181830
1FFFF8
181838
181838
181838
181838
181BF8
1818F0
181860
001800
001800
001000
ENDCHAR
STARTCHAR C2740
ENCODING 10048
SWIDTH 400 0
DWIDTH 24 0
BBX 24 24 0 -2
BITMAP
001800
003800
003C00
006600
00C300
0380F0
07FFFF
1C000E
F00004
000010
3FFFF8
001C00
001800
101830
1FFFF8
181838
181838
181838
181838
181BF0
181870
101860
001800
001000
ENDCHAR
STARTCHAR C2741
ENCODING 10049
SWIDTH 400 0
DWIDTH 24 0
BBX 24 24 0 -2
BITMAP
000E00
01C300
018180
0300E0
0C003F
3FFFEF
E06066
00C060
00C060
0180E0
031FE0
0E03C0
381880
001800
101830
1FFFF8
181838
181838
181838
181838
1819F0
181860
001800
001000
ENDCHAR
STARTCHAR C2742
ENCODING 10050
SWIDTH 400 0
DWIDTH 24 0
BBX 24 24 0 -2
BITMAP
000000
018006
7FBFFF
0C00C0
0C00C0
CCC0C0
6CC0C0
2C80C0
3D80C0
3F00C0
0C00C0
0C80C0
FFC0C0
0C00C0
0C00C0
0C00C0
0C00C0
0C00C0
0C00C0
0C00C0
0C00C0
0C0FC0
0C03C0
0C0180
ENDCHAR
STARTCHAR C2743
ENCODING 10051
SWIDTH 400 0
DWIDTH 24 0
BBX 24 24 0 -2
BITMAP
001800
000C00
200C06
3FFFFF
300000
300000
30001C
30201C
3C3038
361830
330C60
338C60
3186C0
308180
300300
300600
300C00
601800
603000
606000
61FC00
C70FFF
8303FE
000000
ENDCHAR
STARTCHAR C2744
ENCODING 10052
SWIDTH 400 0
DWIDTH 24 0
BBX 24 24 0 -2
BITMAP
001800
000C00
200C06
3FFFFF
300000
300008
33FFFC
3060C0
3060C0
3060C0
3060C0
3060C0
3060C4
3060CE
37FFFE
3060C0
3060C0
60C0C0
60C0C0
60C0C0
6180C0
C300C0
8600C0
0C00C0
ENDCHAR
STARTCHAR C2745
ENCODING 10053
SWIDTH 400 0
DWIDTH 24 0
BBX 24 24 0 -2
BITMAP
001800
000C00
200C06
3FFFFF
30C000
30E000
30C000
30C008
30FFFC
318E1C
318E18
330E30
320E20
340E00
300E00
300F00
301900
603980
6030C0
606060
60C030
C1801F
86000F
1C0006
ENDCHAR
STARTCHAR C2746
ENCODING 10054
SWIDTH 400 0
DWIDTH 24 0
BBX 24 24 0 -2
BITMAP
001800
000C00
200C06
3FFFFF
300000
30780C
3073FE
30620E
30E20C
30C20C
30C30C
31C10C
33C118
36C198
3CC1B0
30C0E0
30C0E0
60C0E0
60C1B0
60C198
60C31C
C0C60F
80CC07
00B803
ENDCHAR
STARTCHAR C2747
ENCODING 10055
SWIDTH 400 0
DWIDTH 24 0
BBX 24 24 0 -2
BITMAP
001800
000C00
200C06
3FFFFF
300000
3101F8
33FFFC
338600
338600
338600
338600
33860C
33FFFE
338300
338300
338300
338180
638180
6380C1
638C63
63F032
C3C01E
81800E
000006
ENDCHAR
STARTCHAR C2748
ENCODING 10056
SWIDTH 400 0
DWIDTH 24 0
BBX 24 24 0 -2
BITMAP
001800
000C00
200C06
3FFFFF
300000
310004
31FFFE
318000
318000
318000
318038
31FFF8
319038
318830
318870
318C60
3186C0
618380
630380
6306C0
660C70
CC383F
88600F
038006
ENDCHAR
STARTCHAR C2749
ENCODING 10057
SWIDTH 400 0
DWIDTH 24 0
BBX 24 24 0 -2
BITMAP
070000
070000
0600E0
07FFE0
060000
0C00E0
0FFFE0
000060
3FFF60
000060
0000E0
000FC0
000080
018080
01C1C0
0181C0
0181C7
FFFFFF
0181C0
0181C0
0301C0
0601C0
0C01C0
380180
ENDCHAR
STARTCHAR C274a
ENCODING 10058
SWIDTH 400 0
DWIDTH 24 0
BBX 24 24 0 -2
BITMAP
070000
070000
0600E0
07FFE0
060000
0C00E0
0FFFE0
000064
7FFFFE
000060
0000E0
000FC0
000180
018180
01C1C0
0181C0
0181C7
FFFFFF
0181C0
0181C0
0301C0
0601C0
0C01C0
380180
ENDCHAR
STARTCHAR C274b
ENCODING 10059
SWIDTH 400 0
DWIDTH 24 0
BBX 24 24 0 -2
BITMAP
000000
003000
00180C
3FFFFE
000000
010000
01C380
038060
070038
0E001C
1C000C
700004
000000
01C1E0
0181C0
0181C0
0181C7
FFFFFF
0181C0
0181C0
0301C0
0601C0
0C01C0
380180
ENDCHAR
STARTCHAR C274c
ENCODING 10060
SWIDTH 400 0
DWIDTH 24 0
BBX 24 24 0 -2
BITMAP
000100
03C1C0
038180
038180
038180
03818C
7FFFFE
038180
038180
038180
030180
000100
020000
0380E0
0300C0
0300C0
0300C7
FFC7FF
0300C0
0600C0
0600C0
0C00C0
1800C0
3000C0
ENDCHAR
STARTCHAR C274d
ENCODING 10061
SWIDTH 400 0
DWIDTH 24 0
BBX 24 24 0 -2
BITMAP
004000
0071C0
0060C0
00604C
3FFFFE
007040
0030E0
001BC0
000F04
007F84
01E1FC
0F807C
78000C
018080
01C1C0
0181C0
0181C7
FFFFFF
0181C0
0181C0
0301C0
0601C0
0C01C0
380180
ENDCHAR
STARTCHAR C274e
ENCODING 10062
SWIDTH 400 0
DWIDTH 24 0
BBX 24 24 0 -2
BITMAP
000020
1C0070
1FFFF8
1C1830
1C1830
1C3830
1C3630
1C6330
1CC1B0
1F80B0
1C0070
1C07F0
180060
0180C0
01C1C0
0181C0
0181C7
FFFFFF
0181C0
0181C0
0301C0
0601C0
0C01C0
380180
ENDCHAR
STARTCHAR C274f
ENCODING 10063
SWIDTH 400 0
DWIDTH 24 0
BBX 24 24 0 -2
BITMAP
0001C0
0001C0
0039DC
1FF9CE
0001C6
0001C2
FFFFFF
0001C0
00C1C0
00E1C0
00C1C0
00C1C0
70C1C0
70C0C0
60E0C0
6198C0
638C60
630660
660671
6C0031
600239
7FFF1F
60000F
000007
ENDCHAR
STARTCHAR C2750
ENCODING 10064
SWIDTH 400 0
DWIDTH 24 0
BBX 24 24 0 -2
BITMAP
003980
0038E0
003062
FFFFFF
001800
000C01
000703
0003C6
0000FE
00003E
0C0040
0FFFE0
0C0060
0C0060
0FFFE0
0C0060
0C0060
0FFFE0
0C0060
0C0060
180060
100FE0
2003C0
400180
ENDCHAR
STARTCHAR C2751
ENCODING 10065
SWIDTH 400 0
DWIDTH 24 0
BBX 24 24 0 -2
BITMAP
020000
070007
FFFFFF
030600
030600
030600
030E08
7F0E1C
620FFC
600C0C
600C0C
E30C0C
FF8C1C
039818
039818
039FF8
039838
038038
038038
030030
070030
FE0032
3C7FFF
180000
ENDCHAR
STARTCHAR C2752
ENCODING 10066
SWIDTH 400 0
DWIDTH 24 0
BBX 24 24 0 -2
BITMAP
020000
070007
FFBFFF
030060
0300E0
0300C0
030180
7F0300
620606
601C0E
60180C
E31C18
FF8730
0381E0
0380C0
038180
038300
038308
03860C
030C06
0718FF
FE3F83
3C1803
180001
ENDCHAR
STARTCHAR C2753
ENCODING 10067
SWIDTH 400 0
DWIDTH 24 0
BBX 24 24 0 -2
BITMAP
0201C0
0701C0
FF8390
03073C
030C38
031C70
030760
7F01C0
620190
600308
600604
E30C06
FFBFFF
03BEC3
03B8C3
0380C0
0380C0
0380C0
0380C0
0300C0
0700C0
FE00C0
3C00C0
1800C0
ENDCHAR
STARTCHAR C2754
ENCODING 10068
SWIDTH 400 0
DWIDTH 24 0
BBX 24 24 0 -2
BITMAP
100000
1CE00E
18E01C
18C038
18C070
18C0E0
7FF980
18E600
18C00E
18C00E
18C01C
18C038
18C870
FFFCC0
18C380
18C607
18C007
18C00E
30C01C
30C038
30C070
60C0E0
C0C180
80C600
ENDCHAR
STARTCHAR C2755
ENCODING 10069
SWIDTH 400 0
DWIDTH 24 0
BBX 24 24 0 -2
BITMAP
061008
06181C
0C1FFC
0C180C
18180C
30180C
63980C
43B81C
077FFE
06180C
0C180C
1C180C
1C180C
3CFFFF
6C180C
CC180C
0C180C
0C180C
0C180C
0C180C
0C180C
0C187C
0C181C
0C1018
ENDCHAR
STARTCHAR C2756
ENCODING 10070
SWIDTH 400 0
DWIDTH 24 0
BBX 24 24 0 -2
BITMAP
060060
060060
0C0060
0C0060
180060
300060
638060
439860
071C60
061866
0C187E
1C1860
1C1860
3C1860
6C1860
CC1860
0C1860
0C1860
0C1860
0C1860
0C1860
0C1862
0CFFFF
0C0000
ENDCHAR
STARTCHAR C2757
ENCODING 10071
SWIDTH 400 0
DWIDTH 24 0
BBX 24 24 0 -2
BITMAP
060600
060300
0C0100
0C0186
187FFF
3071C7
63F1C7
43F1E7
0771E7
067367
0C7337
1C7237
1C763F
3C741F
6C7C1F
CC7807
0C7007
0C7007
0C7007
0C7007
0C7007
0C707F
0C701E
0C600C
ENDCHAR
STARTCHAR C2758
ENCODING 10072
SWIDTH 400 0
DWIDTH 24 0
BBX 24 24 0 -2
BITMAP
061C38
061C38
041830
0C1830
181830
301830
631830
471830
061830
0E1830
1C1830
1C1C38
3C1E78
3C1A78
5C1A78
9C3368
1C33EC
1C31EC
1C70CC
1C60C4
1CE186
1CC186
1D8303
1B0603
ENDCHAR
STARTCHAR C2759
ENCODING 10073
SWIDTH 400 0
DWIDTH 24 0
BBX 24 24 0 -2
BITMAP
061C00
061C00
0C1800
0C1806
181FFF
301007
63B007
43A007
076047
065FE7
0C0007
1C0007
1C0007
3C0007
6C0067
CC1FE7
0C0007
0C0007
0C0006
0C0006
0C000E
0C01FC
0C0078
0C0030
ENDCHAR
STARTCHAR C275a
ENCODING 10074
SWIDTH 400 0
DWIDTH 24 0
BBX 24 24 0 -2
BITMAP
0600E0
0618E0
0C1CC0
0C18C0
1818C0
3018C6
639FFE
4398C0
0730C0
0620C0
0C40C0
1C00C0
1C00C6
3C7FFF
6C00C0
CC00C0
0C00C0
0C00C0
0C00C0
0C00C0
0C00C0
0C00C0
0C00C0
0C00C0
ENDCHAR
STARTCHAR C275b
ENCODING 10075
SWIDTH 400 0
DWIDTH 24 0
BBX 24 24 0 -2
BITMAP
061000
061807
0C1FFF
0C1800
181800
301800
63980C
439FFE
071A0E
061A0C
0C1B0C
1C190C
1C191C
3C1998
6C30B8
CC30F0
0C3060
0C70E0
0C60F0
0C4198
0CC31E
0D860F
0D0C07
0C3000
ENDCHAR
STARTCHAR C275c
ENCODING 10076
SWIDTH 400 0
DWIDTH 24 0
BBX 24 24 0 -2
BITMAP
001000
001800
03CC00
038600
138018
13804C
33804E
738046
61FFC0
00FFC0
00E000
00E000
01C000
018060
1FFFF0
0700E0
07C1C0
0C6380
183F00
603F00
0073E0
01C0FF
07003E
7C000C
ENDCHAR
STARTCHAR C275d
ENCODING 10077
SWIDTH 400 0
DWIDTH 24 0
BBX 24 24 0 -2
BITMAP
000020
000070
1FFFF0
001800
001800
001800
001800
001800
001800
001800
00380C
7FFFFC
000000
000000
003800
039C00
038E00
23000C
230006
630023
E30063
C3FFC1
01FFE0
007FC0
ENDCHAR
STARTCHAR C275e
ENCODING 10078
SWIDTH 400 0
DWIDTH 24 0
BBX 24 24 0 -2
BITMAP
001800
001800
001800
001800
001830
3FFFF8
001800
001800
001800
001800
00180C
7FFFFE
000000
000000
003800
039C00
038C00
230610
23000C
630026
630067
C3FFC3
81FFE1
007FC0
ENDCHAR
STARTCHAR C275f
ENCODING 10079
SWIDTH 400 0
DWIDTH 24 0
BBX 24 24 0 -2
BITMAP
000000
000038
1FFFF8
003038
003038
073038
01E038
007038
00F838
019C38
030C30
0607F0
1C01E0
3000C0
403800
039C00
038C00
230610
23000C
630026
630067
C3FFC3
81FFE1
007FC0
ENDCHAR
STARTCHAR C2760
ENCODING 10080
SWIDTH 400 0
DWIDTH 24 0
BBX 24 24 0 -2
BITMAP
038000
038000
070030
07FFF8
0C0100
1BFF80
300780
000E00
003800
00E000
038004
07000C
060018
07FFFC
03FFF8
000000
001800
238C00
23060C
230026
630063
C3FFC3
81FFE0
007FC0
ENDCHAR
STARTCHAR C2761
ENCODING 10081
SWIDTH 400 0
DWIDTH 24 0
BBX 24 24 0 -2
BITMAP
003800
003800
007C00
00C600
018300
0301C0
060078
0C003F
38000F
E00002
000060
07FFE0
000000
000000
003800
039C00
038E00
23000C
230006
630023
E30063
C3FFC1
01FFE0
007FC0
ENDCHAR
STARTCHAR C2762
ENCODING 10082
SWIDTH 400 0
DWIDTH 24 0
BBX 24 24 0 -2
BITMAP
1C0000
1C1007
1C3FFF
1C7006
1C6004
1C4420
3E0F38
7F0E30
7F8E30
DD0E30
DC0E30
9C0E30
1C0E30
1C0E30
1C0E30
1C0E30
1C0C30
1C0C30
1C1830
1C1831
1C3031
1C603F
1CC03F
19800E
ENDCHAR
STARTCHAR C2763
ENCODING 10083
SWIDTH 400 0
DWIDTH 24 0
BBX 24 24 0 -2
BITMAP
1C01C0
1C01C0
1C01CC
1C01FE
1C07E0
1C1DC0
3E01C0
7F01C0
7F81CC
DD1FFE
DC01C0
9C01C0
1C01C0
1C01C0
1C01C6
1C7FFF
1C01C0
1C01C0
1C01C0
1C01C0
1C01C0
1C01C0
1C01C0
180180
ENDCHAR
STARTCHAR C2764
ENCODING 10084
SWIDTH 400 0
DWIDTH 24 0
BBX 24 24 0 -2
BITMAP
1C0004
1C300E
1C3FFF
1C31C6
1C31C6
1C31C6
3E31C6
7F31C6
7FB1C6
DD31C6
DC3FFE
9C3006
1C3000
1C3000
1C3000
1C3000
1C3000
1C3001
1C3001
1C3001
1C3803
1C3FFF
1C1FFF
180000
ENDCHAR
STARTCHAR C2765
ENCODING 10085
SWIDTH 400 0
DWIDTH 24 0
BBX 24 24 0 -2
BITMAP
1C0000
1C0007
1C7FFF
1C01C0
1C01C0
1C01C0
3E19C4
7F19CE
7F99FF
DD19C6
DC19C6
9C19C6
1C19C6
1C19C6
1C3FFE
1C0006
1C0006
1C0006
1C0006
1C000E
1C000C
1C07FC
1C01F8
180070
ENDCHAR
STARTCHAR C2766
ENCODING 10086
SWIDTH 400 0
DWIDTH 24 0
BBX 24 24 0 -2
BITMAP
1C1C00
1C1C00
1C1800
1C1806
1C1FFF
1C1007
3E3007
7F2007
7FE047
DD5FE7
DC0007
9C0007
1C0007
1C0007
1C0067
1C1FE7
1C0007
1C0007
1C0006
1C0006
1C000E
1C01FC
1C0078
180030
ENDCHAR
STARTCHAR C2767
ENCODING 10087
SWIDTH 400 0
DWIDTH 24 0
BBX 24 24 0 -2
BITMAP
1C0000
1C0838
1C0FF8
1C0C38
1C0C38
1C0C38
3E0C38
7F181F
7F981F
DD3000
DC6008
9C5FFC
1C081C
1C0418
1C0438
1C0230
1C0360
1C01E0
1C01C0
1C01E0
1C0338
1C0C1F
1C180F
18E007
ENDCHAR
STARTCHAR C2768
ENCODING 10088
SWIDTH 400 0
DWIDTH 24 0
BBX 24 24 0 -2
BITMAP
1C0E00
1C0E00
1C0C00
1C0C06
1C1FFF
1C1807
3E3007
7F6007
7FC307
DD0707
DC0607
9C0C07
1C0CC7
1C1867
1C3FE7
1C3C67
1C1807
1C0007
1C0006
1C0006
1C000E
1C01FC
1C0078
180030
ENDCHAR
STARTCHAR C2769
ENCODING 10089
SWIDTH 400 0
DWIDTH 24 0
BBX 24 24 0 -2
BITMAP
1C0E00
1C0E00
1C0C00
1C0C00
1C1806
1C1FFF
3E1B37
7F1B37
7F9337
DD3337
DC2337
9C0367
1C0667
1C0667
1C0C67
1C0CC7
1C18C7
1C1187
1C2307
1C4307
1C0606
1C0CFE
1C303C
180018
ENDCHAR
STARTCHAR C276a
ENCODING 10090
SWIDTH 400 0
DWIDTH 24 0
BBX 24 24 0 -2
BITMAP
1C0000
1C0380
1A0380
198300
188600
191460
FF9FF0
181860
181860
1B1860
1B1860
1B1860
1F1860
1E1860
1E9860
0C9860
0E9860
1FB061
37B061
63B061
C1E063
00407F
00803F
01000E
ENDCHAR
STARTCHAR C276b
ENCODING 10091
SWIDTH 400 0
DWIDTH 24 0
BBX 24 24 0 -2
BITMAP
0001C0
0001D8
00018C
00018C
200180
3FFFFF
300180
300180
300180
301980
3FFD88
339D8E
3399DC
3399D8
3318D8
3318F0
3618E0
37F861
3CF0F1
6821B1
60031B
C00C0F
803007
01C003
ENDCHAR
STARTCHAR C276c
ENCODING 10092
SWIDTH 400 0
DWIDTH 24 0
BBX 24 24 0 -2
BITMAP
0001C0
0001D8
00018C
000186
000180
FFFFFF
000180
070180
060180
0E018E
1C018E
38618C
30E18C
1CC198
0781D8
0301F0
0600E0
0C60E0
18F0E1
37B9F1
FC1B39
600E1F
00180F
00E007
ENDCHAR
STARTCHAR C276d
ENCODING 10093
SWIDTH 400 0
DWIDTH 24 0
BBX 24 24 0 -2
BITMAP
000380
6383A0
33031C
1E030C
1C0304
1E0302
367FFF
630380
030300
038300
038318
07831C
0D8318
1D8330
3981B0
7181E0
4181E0
0181E1
0181E1
018371
03863B
3F0C1F
1E1807
04E003
ENDCHAR
STARTCHAR C276e
ENCODING 10094
SWIDTH 400 0
DWIDTH 24 0
BBX 24 24 0 -2
BITMAP
0001F0
301FF8
3FFC00
300008
38001C
3FFFFC
30000C
30000C
30000C
3FFFFC
300208
308380
30E300
30C30C
30DFFE
37FB0C
31C30C
30C318
30C310
60C003
60C002
C0FFFE
80FFFE
003FFC
ENDCHAR
STARTCHAR C276f
ENCODING 10095
SWIDTH 400 0
DWIDTH 24 0
BBX 24 24 0 -2
BITMAP
1C0007
1C01C7
1C7FC6
1C01C6
1C01C6
1D01C6
FF01C6
1C7FC6
1C7186
1C6006
1C6006
1F6186
1CFFC6
FC01C6
FC01C6
5C01C6
1C01C6
1C01C6
1C01C6
1C01C6
1C0186
FC7F86
381F06
300606
ENDCHAR
STARTCHAR C2770
ENCODING 10096
SWIDTH 400 0
DWIDTH 24 0
BBX 24 24 0 -2
BITMAP
1C0000
1C0007
1C7FFF
1C0E00
1C0E00
1D0E00
FF0C08
1C0C1C
1C0FFC
1C0C0C
1C180C
1F180C
1C181C
FC1818
FC1818
5C3FF8
1C1038
1C0038
1C0038
1C0030
1C0030
FC0036
38FFFF
300000
ENDCHAR
STARTCHAR C2771
ENCODING 10097
SWIDTH 400 0
DWIDTH 24 0
BBX 24 24 0 -2
BITMAP
1C0008
1C001C
1C3FFC
1C19C0
1C19C0
1D19C0
FF19C0
1C3180
1C3180
1C3184
1C318E
1F3FFE
1C0300
FC03E0
FC03C0
5C07C0
1C06C0
1C06C1
1C0CC1
1C18C1
1C30C3
FC60FF
38C07F
33803E
ENDCHAR
STARTCHAR C2772
ENCODING 10098
SWIDTH 400 0
DWIDTH 24 0
BBX 24 24 0 -2
BITMAP
0E0000
0E0000
0C1004
0C1FFE
0C1806
0C9806
FFD806
0C1806
0C1806
0C1806
0C1806
0F9806
3E1FFE
FC1806
EC1806
4C1806
0C1806
0C1806
0C1806
0C1806
0C1FFE
FC1806
3C1804
181000
ENDCHAR
STARTCHAR C2773
ENCODING 10099
SWIDTH 400 0
DWIDTH 24 0
BBX 24 24 0 -2
BITMAP
1C0700
1C0700
1C0610
1C7FF8
1C0638
1D0638
FF0638
1C0C39
1C0C39
1C183B
1C301F
1F610F
1CC1C0
FC0180
FC0180
5C0186
1CFFFF
1C0180
1C0180
1C0180
1C0180
FC0180
380180
300180
ENDCHAR
STARTCHAR C2774
ENCODING 10100
SWIDTH 400 0
DWIDTH 24 0
BBX 24 24 0 -2
BITMAP
1C0E70
1C0E70
1C0C60
1C0C60
1C1860
1D1860
FF1860
1C3878
1C386C
1C786E
1C7866
1F9867
1C1863
FC1863
FC1861
5C1860
1C1860
1C1860
1C1860
1C1860
1C1860
FC1860
381860
301060
ENDCHAR
STARTCHAR C2775
ENCODING 10101
SWIDTH 400 0
DWIDTH 24 0
BBX 24 24 0 -2
BITMAP
1C0040
1C0E20
1C0E30
1C0C18
1C0C0C
1D180E
FF1807
1C3007
1C6FF8
1CC600
1C0600
1F0C08
1C0FFC
FC081C
FC000C
5C000C
1C000C
1C0018
1C0018
1C0018
1C0030
FC0FF0
3801E0
3000C0
ENDCHAR
STARTCHAR C2776
ENCODING 10102
SWIDTH 400 0
DWIDTH 24 0
BBX 24 24 0 -2
BITMAP
1C0380
1C0380
1C0380
1C07C0
1C0660
1D0C30
FF181C
1C300F
1C6007
1CC01A
1C3FFC
1F0E18
1C0E18
FC0E18
FC0E18
5C0C18
1C0C18
1C1C18
1C1818
1C1818
1C3038
FC63F0
38C1E0
318040
ENDCHAR
STARTCHAR C2777
ENCODING 10103
SWIDTH 400 0
DWIDTH 24 0
BBX 24 24 0 -2
BITMAP
1C0040
1C0060
1C0020
1C0E30
1C0E30
1D0E38
FF0C18
1C0C18
1C180C
1C190C
1C118E
1F3187
1C2307
FC6302
FC4300
5C0600
1C0600
1C0C10
1C0C08
1C180C
1C187E
FC3FE7
381803
300000
ENDCHAR
STARTCHAR C2778
ENCODING 10104
SWIDTH 400 0
DWIDTH 24 0
BBX 24 24 0 -2
BITMAP
0000E0
F000E0
E3C0C0
E380C0
E380C2
E380FF
E380C0
E380C0
E380C0
E380C6
E38FFE
E3420E
E6620C
E6630C
EC3118
F839B8
F010F0
E000E0
E000F0
E001F8
FFE39C
7FF70F
000E07
003803
ENDCHAR
STARTCHAR C2779
ENCODING 10105
SWIDTH 400 0
DWIDTH 24 0
BBX 24 24 0 -2
BITMAP
3000E0
3000E0
3000C0
3040C0
30E0C2
7FF0FF
6060C0
4060C0
C060C0
8060C6
186FFE
0C620E
0C620C
00630C
006118
0061B8
0060F0
0060E0
00E0F0
00C1F8
00C39C
1FC70F
078E07
033803
ENDCHAR
STARTCHAR C277a
ENCODING 10106
SWIDTH 400 0
DWIDTH 24 0
BBX 24 24 0 -2
BITMAP
070000
07000C
07FFFE
0D0060
1880C0
304180
403300
001E00
003F80
01E3FF
06003F
F8018F
07FFC0
000300
000600
001804
001C0E
7FFFFE
001800
001800
001800
03F800
007800
003000
ENDCHAR
STARTCHAR C277b
ENCODING 10107
SWIDTH 400 0
DWIDTH 24 0
BBX 24 24 0 -2
BITMAP
000000
000007
FFFFFF
038060
060018
0C000E
180007
602003
803801
001806
FFFFFF
018000
018000
018030
01FFF8
038038
030038
030038
060038
060038
0C0030
180FF0
3001E0
E000C0
ENDCHAR
STARTCHAR C277c
ENCODING 10108
SWIDTH 400 0
DWIDTH 24 0
BBX 24 24 0 -2
BITMAP
000000
000007
FFFFFF
030040
060030
0C001C
18000F
300007
E80030
1FFFF8
1C0038
1C0038
1C0038
1C0038
1C0038
1FFFF8
1C0038
1C0038
1C0038
1C0038
1C0038
1FFFF8
1C0030
180000
ENDCHAR
STARTCHAR C277d
ENCODING 10109
SWIDTH 400 0
DWIDTH 24 0
BBX 24 24 0 -2
BITMAP
000300
000180
4101C0
FF80C0
E38087
E3FFFF
E39800
E39800
E39800
E39800
E39800
FF9800
E39800
E39800
E39800
E39800
E39800
E39800
FF9800
C11800
001C00
001FFE
000FFE
000000
ENDCHAR
STARTCHAR C277e
ENCODING 10110
SWIDTH 400 0
DWIDTH 24 0
BBX 24 24 0 -2
BITMAP
000020
1C0070
1FFFF8
1C0030
1C0030
1C0030
1FFFF0
1C0030
1C0030
1C0030
1C0030
1FFFF0
080020
000000
000070
080060
040060
0600C0
0600C0
030180
030180
018306
FFFFFF
000000
ENDCHAR
STARTCHAR C2821
ENCODING 10273
SWIDTH 400 0
DWIDTH 24 0
BBX 24 24 0 -2
BITMAP
000020
1C0070
1FFFF8
1C0030
1C0030
1FFFF0
1C0030
1C0030
1C0030
1FFFF0
080000
000002
FFFFFF
0400E0
0200C0
010180
008300
006600
003800
007E00
00C780
0301FF
1C007F
F0000F
ENDCHAR
STARTCHAR C2822
ENCODING 10274
SWIDTH 400 0
DWIDTH 24 0
BBX 24 24 0 -2
BITMAP
100000
180038
1FFFF8
180038
180038
180038
1FFFF8
180038
180038
180038
1FFFF0
100000
000020
080070
1FFFF8
1C0030
1C0030
1C0030
1C0030
1C0030
1C0030
1FFFF0
1C0030
180020
ENDCHAR
STARTCHAR C2823
ENCODING 10275
SWIDTH 400 0
DWIDTH 24 0
BBX 24 24 0 -2
BITMAP
100030
0E00E0
03C3C0
007F00
001F00
0073E0
01C0F8
06003C
78000C
000000
FFFFFF
000000
100010
1FFFF8
180038
180038
180038
1FFFF8
180038
180038
180038
1FFFF8
180030
180000
ENDCHAR
STARTCHAR C2824
ENCODING 10276
SWIDTH 400 0
DWIDTH 24 0
BBX 24 24 0 -2
BITMAP
0007E0
007FF0
1FF800
001800
001800
001802
FFFFFF
003800
001800
001800
001800
001800
001800
101038
1FFFF8
180038
180038
180038
1FFFF8
180038
180038
180038
1FFFF8
180030
ENDCHAR
STARTCHAR C2825
ENCODING 10277
SWIDTH 400 0
DWIDTH 24 0
BBX 24 24 0 -2
BITMAP
030000
030000
070060
07FFF0
0700E0
098180
10C300
207E00
003C00
007700
00C1E0
03807F
0E001F
300006
CFFFF0
1C0030
1C0030
1C0030
1FFFF0
1C0030
1C0030
1FFFF0
1C0030
180020
ENDCHAR
STARTCHAR C2826
ENCODING 10278
SWIDTH 400 0
DWIDTH 24 0
BBX 24 24 0 -2
BITMAP
000204
00630E
FFE3FF
39C306
39C306
318306
318306
318306
3183FE
318306
318306
318306
318306
318306
3183FE
318306
318606
318606
318606
31EC06
20FC06
60087E
C0103C
802008
ENDCHAR
STARTCHAR C2827
ENCODING 10279
SWIDTH 400 0
DWIDTH 24 0
BBX 24 24 0 -2
BITMAP
000006
FFFFFF
020300
038380
030300
070300
060300
0C0380
1801FF
3000FF
C00000
080070
1FFFF8
1C0030
1C0030
1FFFF0
1C0030
1C0030
1FFFF0
180030
180030
3003F0
2001E0
400040
ENDCHAR
STARTCHAR C2828
ENCODING 10280
SWIDTH 400 0
DWIDTH 24 0
BBX 24 24 0 -2
BITMAP
000000
03C307
4383FF
E38307
E38307
E38307
E38307
E38387
E383FF
E38307
E38307
E3C307
E36307
E63387
E43BFF
E81B07
F01B07
E00307
E00707
E00607
FFE607
7FFC7F
00181E
00300C
ENDCHAR
STARTCHAR C2829
ENCODING 10281
SWIDTH 400 0
DWIDTH 24 0
BBX 24 24 0 -2
BITMAP
000000
638007
7F9FFF
63871C
63871C
638618
638618
638618
7F8618
638618
638618
638618
638618
7F8618
638618
638618
638618
638E18
638C18
638C18
E39818
DF981E
87300F
866007
ENDCHAR
STARTCHAR C282a
ENCODING 10282
SWIDTH 400 0
DWIDTH 24 0
BBX 24 24 0 -2
BITMAP
001800
001800
001804
7FFFFE
003800
001810
1FFFF8
003838
001838
001838
FFFFFF
001838
001838
003838
1FFFF8
007C10
00FA00
019980
0318E0
061878
0C183F
30180F
C01800
001000
ENDCHAR
STARTCHAR C282b
ENCODING 10283
SWIDTH 400 0
DWIDTH 24 0
BBX 24 24 0 -2
BITMAP
001800
001800
001800
001830
1FFFF8
001800
001800
001800
00180C
3FFFFE
001000
001C00
001800
001806
FFFFFF
001800
001800
0718C0
0E1870
1C181C
30180E
E01806
001800
001000
ENDCHAR
STARTCHAR C282c
ENCODING 10284
SWIDTH 400 0
DWIDTH 24 0
BBX 24 24 0 -2
BITMAP
000008
38000E
38000C
30000C
3000CC
33FFCC
30000C
30000C
30000C
3FFFFC
30101C
001C08
001800
001806
FFFFFF
001800
001800
0718C0
0E1870
1C181C
30180E
E01806
001800
001000
ENDCHAR
STARTCHAR C282d
ENCODING 10285
SWIDTH 400 0
DWIDTH 24 0
BBX 24 24 0 -2
BITMAP
0E0380
0E0380
0C0300
0C0300
0C8306
FFC3FF
0C0707
0C0607
1C0607
1E0C07
1F0B06
3D98E6
3DB06C
3C202C
6C0018
6C0018
CC0030
8C0070
0C00E0
0C01C0
0C0380
0C0700
0C0C00
0C3000
ENDCHAR
STARTCHAR C282e
ENCODING 10286
SWIDTH 400 0
DWIDTH 24 0
BBX 24 24 0 -2
BITMAP
0E0E00
0E0E00
0C0E00
0C0E06
0C8FFF
FFCC07
0C0807
0C1807
1C3007
1E2007
1F0027
3D9FF7
3D8007
3C0007
6C0007
6C0007
CC0007
8C0007
0C0006
0C0006
0C000E
0C01FC
0C0078
0C0030
ENDCHAR
STARTCHAR C282f
ENCODING 10287
SWIDTH 400 0
DWIDTH 24 0
BBX 24 24 0 -2
BITMAP
200000
30000C
3FFFFE
30000C
30000C
3FFFFC
30C00C
30C000
30C00C
31FFFE
318E0C
330E18
360E10
300E00
301F00
701900
603180
6030C0
606060
40C070
C1803C
C3001F
86000F
380007
ENDCHAR
STARTCHAR C2830
ENCODING 10288
SWIDTH 400 0
DWIDTH 24 0
BBX 24 24 0 -2
BITMAP
000E00
0E0E00
0C0E00
0C0E00
0C0C00
4C8C06
ECCFFF
ECD9C6
ECD1CC
ECE1C8
ECC1C0
ECC1C0
ECC1C0
ECC1C0
ECC320
ECC320
ECC330
ECC630
FFCE18
008C0C
00180E
00300F
006007
01C003
ENDCHAR
STARTCHAR C2831
ENCODING 10289
SWIDTH 400 0
DWIDTH 24 0
BBX 24 24 0 -2
BITMAP
300300
300300
300300
304300
7FE606
6007FF
C006C7
800CC4
01CCC8
7FD8C0
0180C0
0300C0
0600E0
0C01E0
1801E0
3001B0
6001B0
E02318
C06318
C0460C
FFE60E
7FEC0F
001807
007003
ENDCHAR
STARTCHAR C2832
ENCODING 10290
SWIDTH 400 0
DWIDTH 24 0
BBX 24 24 0 -2
BITMAP
040700
060700
0C0600
0C0600
180606
18EFFF
30CCC7
30C8C4
6198C8
F390C0
1F00C0
0700C0
0600E0
0C01E0
0C01E0
1801B0
3101B0
318318
60C318
E7E60C
FC660E
602C0F
001807
007003
ENDCHAR
STARTCHAR C2833
ENCODING 10291
SWIDTH 400 0
DWIDTH 24 0
BBX 24 24 0 -2
BITMAP
001C00
001C00
081800
0E1818
0C1FFC
0C1800
0C1800
0C1800
0C1802
FFFFFF
000000
002000
007800
007000
007000
007018
007FFC
007000
007000
007000
007000
007006
FFFFFF
000000
ENDCHAR
STARTCHAR C2834
ENCODING 10292
SWIDTH 400 0
DWIDTH 24 0
BBX 24 24 0 -2
BITMAP
001C00
001C00
0E1810
0E1FF8
0C1C00
0C1800
0C1800
0C1806
FFFFFF
001000
001C00
001810
3FFFF8
38381C
301818
301818
301818
301818
301818
301818
301BF8
301870
301820
001000
ENDCHAR
STARTCHAR C2835
ENCODING 10293
SWIDTH 400 0
DWIDTH 24 0
BBX 24 24 0 -2
BITMAP
0401C0
0701C0
060180
066180
07E180
460180
760180
6EC180
7FC180
60C180
60C3C0
7983C0
CD8340
878340
038660
030660
060C20
060C30
0C1818
0C1818
18300C
30600F
60C007
C38003
ENDCHAR
STARTCHAR C2836
ENCODING 10294
SWIDTH 400 0
DWIDTH 24 0
BBX 24 24 0 -2
BITMAP
000000
01800C
FFCFFC
1800C0
1800C0
1900C0
3F80C0
3B80C0
3380C2
339FFF
6300C0
7300C0
DF00C0
8E00C0
0600C0
0600C0
0C00C0
0C00C0
1800C0
1000C0
3000C0
600FC0
C003C0
800180
ENDCHAR
STARTCHAR C2837
ENCODING 10295
SWIDTH 400 0
DWIDTH 24 0
BBX 24 24 0 -2
BITMAP
000000
01800C
FFDFFC
180000
180000
190000
3F8002
3BBFFF
338E00
338C00
630C00
731C0C
DF1FFE
8E180E
06000C
06000C
0C000C
0C000C
18000C
10000C
300018
6007F8
C001F0
800060
ENDCHAR
STARTCHAR C2838
ENCODING 10296
SWIDTH 400 0
DWIDTH 24 0
BBX 24 24 0 -2
BITMAP
000380
018380
FFC318
18030C
18030C
190304
3F8302
3BBFFF
338300
338300
630300
730300
DF0180
8E0180
060180
0601C0
0C00C0
0C00E0
180061
100071
30003B
60001F
C0000F
800007
ENDCHAR
STARTCHAR C2839
ENCODING 10297
SWIDTH 400 0
DWIDTH 24 0
BBX 24 24 0 -2
BITMAP
0001C0
0181C0
FFC1C0
1801C0
1801C0
1901C0
3F81C0
3B81C0
3381CC
33BFFE
6301C0
7301C0
DF01C0
8E01C0
0601C0
0601C0
0C01C0
0C01C0
1801C0
1001C0
3001C0
6001C2
C0FFFF
800000
ENDCHAR
STARTCHAR C283a
ENCODING 10298
SWIDTH 400 0
DWIDTH 24 0
BBX 24 24 0 -2
BITMAP
000800
018E1C
FFCC18
180C18
180C18
190C18
3F8C18
3B8C18
338D18
338D98
630CD8
730CD8
DF0C58
8E0C18
060C18
060C18
0C1818
0C1818
181818
103019
303019
60601F
C0C00F
838006
ENDCHAR
STARTCHAR C283b
ENCODING 10299
SWIDTH 400 0
DWIDTH 24 0
BBX 24 24 0 -2
BITMAP
000E00
018E00
FFCE00
180E00
180E07
190FFF
3F8C07
3B9807
339007
33A007
630307
730187
DF01C7
8E0087
060007
060007
0C0007
0C0007
180006
100006
30000E
6001FC
C00078
800030
ENDCHAR
STARTCHAR C283c
ENCODING 10300
SWIDTH 400 0
DWIDTH 24 0
BBX 24 24 0 -2
BITMAP
00001C
01807E
FFC3E0
181F00
180300
190300
3F8300
3B8300
338300
338300
630387
733FFF
DF0300
8E0300
060300
060300
0C0300
0C0300
180301
100301
300303
6003FF
C001FF
8000FE
ENDCHAR
STARTCHAR C283d
ENCODING 10301
SWIDTH 400 0
DWIDTH 24 0
BBX 24 24 0 -2
BITMAP
003000
001806
FFFFFF
000000
000000
080070
0FFFF8
0C0030
0C3830
0C1830
0C0830
0C0032
FFFFFF
1C0030
1C3830
1C1830
1C0830
1C0032
1FFFFF
000060
000060
001FE0
0007C0
000380
ENDCHAR
STARTCHAR C283e
ENCODING 10302
SWIDTH 400 0
DWIDTH 24 0
BBX 24 24 0 -2
BITMAP
700E00
700E00
60CE0C
7FEFFE
600E00
600E00
604E03
61CE02
7F0FFE
7807FE
300000
01E000
07E006
7C07FE
600006
600006
600006
600006
600006
600006
61E006
7F01FE
78003C
300008
ENDCHAR
STARTCHAR C283f
ENCODING 10303
SWIDTH 400 0
DWIDTH 24 0
BBX 24 24 0 -2
BITMAP
0000E0
0780E0
3F80C0
DC00C6
1C1FFE
1C18C6
1C18C6
1D98C6
FF98C6
1C18C6
1C18C6
1C18C6
1C18C6
1D98C6
FF98DE
1C18CC
1C00C0
1C00C0
1C00C1
1C00C1
1C0003
1FFFFF
0FFFFF
07FFFE
ENDCHAR
STARTCHAR C2840
ENCODING 10304
SWIDTH 400 0
DWIDTH 24 0
BBX 24 24 0 -2
BITMAP
061830
061830
0C1060
1820C0
183040
0C1860
061830
060830
0000E0
00FFF0
0FB000
003000
003000
003038
1FFFF8
003000
00300C
7FFFFE
003000
003000
003003
003FFE
001FFE
000FFC
ENDCHAR
STARTCHAR C2841
ENCODING 10305
SWIDTH 400 0
DWIDTH 24 0
BBX 24 24 0 -2
BITMAP
001C1C
181C1C
0C1818
0C1818
001818
011818
817FFF
E21C18
721818
361818
061818
041818
0C1818
081818
181818
181818
301818
F01818
301818
301818
381818
381FF8
381C18
101800
ENDCHAR
STARTCHAR C2842
ENCODING 10306
SWIDTH 400 0
DWIDTH 24 0
BBX 24 24 0 -2
BITMAP
000004
18300E
0C3FFE
0C30C0
0030C0
0130C0
8170C0
E270C2
727FFF
3620C0
0600C0
0400C0
0C38C0
080CC0
1807C0
1801C0
3000E0
F000FC
3000DF
3000C7
3800C0
381FC0
3803C0
100180
ENDCHAR
STARTCHAR C2843
ENCODING 10307
SWIDTH 400 0
DWIDTH 24 0
BBX 24 24 0 -2
BITMAP
201860
301860
181860
081860
001860
021A60
83FF60
E61860
641860
241860
0C1860
0C1E60
183860
19F860
19F860
30D860
301860
F01860
301860
301861
381861
38F87F
38387F
10303E
ENDCHAR
STARTCHAR C2844
ENCODING 10308
SWIDTH 400 0
DWIDTH 24 0
BBX 24 24 0 -2
BITMAP
0001C0
1801C0
0C0180
0C0180
000180
010182
81FFFF
E20180
720180
36199C
06199C
041998
0C1998
081998
181998
181998
301198
F03198
303198
30619F
38C18F
398180
380180
100180
ENDCHAR
STARTCHAR C2845
ENCODING 10309
SWIDTH 400 0
DWIDTH 24 0
BBX 24 24 0 -2
BITMAP
000000
180007
0C7FFF
0C0E00
000E00
010E00
810C0C
E20FFE
721C0E
36180C
06180C
04340C
0C2318
084198
1880F0
180060
300060
F000C0
300180
300300
380600
381C00
383000
11C000
ENDCHAR
STARTCHAR C2846
ENCODING 10310
SWIDTH 400 0
DWIDTH 24 0
BBX 24 24 0 -2
BITMAP
0001C0
1801C0
0C0180
0C0180
000180
010180
810182
E2FFFF
720180
360180
060180
0403C0
0C0340
080360
180620
180630
300C30
F00C18
301818
30180C
38302E
386FF7
38C007
138000
ENDCHAR
STARTCHAR C2847
ENCODING 10311
SWIDTH 400 0
DWIDTH 24 0
BBX 24 24 0 -2
BITMAP
000000
18300C
0C3FFE
0C300C
00300C
01300C
81300C
E2300C
72FFFF
36300C
06300C
04300C
0C300C
08300C
18300C
18FFFF
30300C
F0300C
30300C
30300C
38300C
38300C
38307C
103008
ENDCHAR
STARTCHAR C2848
ENCODING 10312
SWIDTH 400 0
DWIDTH 24 0
BBX 24 24 0 -2
BITMAP
0001C0
1801C0
0C0180
0C0180
003180
013998
81318C
E26186
726187
36C183
068180
040180
0C0180
080180
187100
181C00
300600
F00300
300180
3000E0
380070
38001F
38000F
100007
ENDCHAR
STARTCHAR C2849
ENCODING 10313
SWIDTH 400 0
DWIDTH 24 0
BBX 24 24 0 -2
BITMAP
000700
180700
0C0610
0C7FF8
000638
010638
810638
E20C39
720C39
36183B
06301F
04611F
0CC1C0
080180
180180
180182
30FFFF
F00180
300180
300180
380180
380180
380180
100180
ENDCHAR
STARTCHAR C284a
ENCODING 10314
SWIDTH 400 0
DWIDTH 24 0
BBX 24 24 0 -2
BITMAP
001C38
181C38
0C1838
0C1838
001838
011838
811838
E2101F
72301F
366000
06C010
049038
0C1838
080830
180C30
180660
300360
F003C0
3001C0
3003E0
380678
38183F
38700F
11C007
ENDCHAR
STARTCHAR C284b
ENCODING 10315
SWIDTH 400 0
DWIDTH 24 0
BBX 24 24 0 -2
BITMAP
0001C0
1E01C0
1C0180
1C0184
1C01BE
9DC7FE
DDBD80
7F0180
7E0180
3C0180
1C0180
1C0182
1C7FFF
1C0180
180180
1C0180
1E0180
330180
338181
218181
618183
C001FF
8001FF
00007E
ENDCHAR
STARTCHAR C284c
ENCODING 10316
SWIDTH 400 0
DWIDTH 24 0
BBX 24 24 0 -2
BITMAP
01C000
01C000
018100
03FF80
030380
060300
0C0700
180E00
101C00
003E00
007300
00E180
01C0E0
030078
0E003F
38000F
E00002
000000
200008
21820C
21C306
60C387
C0C183
C04003
ENDCHAR
STARTCHAR C284d
ENCODING 10317
SWIDTH 400 0
DWIDTH 24 0
BBX 24 24 0 -2
BITMAP
00E000
67E207
7EC3FF
66C307
66C307
66C367
66C337
66C31F
66C307
66C307
66C307
66C307
66C37E
66630C
666300
666300
663300
663300
661A00
461C00
C60F00
C607FF
8601FF
04007C
ENDCHAR
STARTCHAR C284e
ENCODING 10318
SWIDTH 400 0
DWIDTH 24 0
BBX 24 24 0 -2
BITMAP
0003F0
007FF0
3FF800
000038
081838
0E1830
060860
0020C0
007000
007006
FFFFFF
006000
00C000
00C030
01FFF8
008038
000038
000038
000038
000030
000070
007FE0
000FC0
000380
ENDCHAR
STARTCHAR C284f
ENCODING 10319
SWIDTH 400 0
DWIDTH 24 0
BBX 24 24 0 -2
BITMAP
038060
738060
638E60
638C60
638C60
638C62
638C7F
638FE7
7FBC67
438C67
038C67
038C67
7F8C66
638C64
638C64
638C60
638C40
638C00
638C01
638C01
638C03
C38FFF
C38FFF
8303FE
ENDCHAR
STARTCHAR C2850
ENCODING 10320
SWIDTH 400 0
DWIDTH 24 0
BBX 24 24 0 -2
BITMAP
038808
738C1C
638FFC
638C0C
638C0C
638C0C
638C0C
7F8C0C
630D8C
600CCC
600CEC
610C6C
7F8C6C
638C0C
638C0C
638C0C
638C0C
63980C
E3980C
E3980D
C3900D
C3B00F
83E00F
83C006
ENDCHAR
STARTCHAR C2851
ENCODING 10321
SWIDTH 400 0
DWIDTH 24 0
BBX 24 24 0 -2
BITMAP
038300
738300
638310
63831C
638318
638318
638718
7FBFFF
630618
600618
600E18
610C18
7F8C38
639830
639830
63BC30
639760
6381E0
E380F0
E381B8
C3831C
C38E0E
839807
83F003
ENDCHAR
STARTCHAR C2852
ENCODING 10322
SWIDTH 400 0
DWIDTH 24 0
BBX 24 24 0 -2
BITMAP
060380
060380
760318
66030C
66030C
66C304
7FC302
663FFF
C60300
C60300
860300
060300
07C180
0E0180
FE0180
F601C0
4600C0
0600E0
060061
060071
06003B
06001F
06000F
040007
ENDCHAR
STARTCHAR C2853
ENCODING 10323
SWIDTH 400 0
DWIDTH 24 0
BBX 24 24 0 -2
BITMAP
060000
060004
761FFE
661806
661806
66D806
7FD806
661806
C61806
C61806
861806
061806
07D806
0E1806
FE1806
F61806
461806
061806
061806
061806
061806
061FFE
061804
040000
ENDCHAR
STARTCHAR C2854
ENCODING 10324
SWIDTH 400 0
DWIDTH 24 0
BBX 24 24 0 -2
BITMAP
0601C0
0601C0
7601C0
6601C4
6601FE
66C3FE
7FDDC0
6601C0
C601C0
C601C0
8601C0
0601C2
07DFFF
0E01C0
FE01C0
F601C0
4601C0
0601C0
0601C0
0601C1
0601C1
0601FF
0600FF
04007E
ENDCHAR
STARTCHAR C2855
ENCODING 10325
SWIDTH 400 0
DWIDTH 24 0
BBX 24 24 0 -2
BITMAP
000004
47000E
663FFF
3C0186
180186
3C0186
6C0186
C63186
863FFE
063180
063180
0F7182
1B7FFF
136187
230187
430187
830187
030187
0301BF
07018E
06018C
7E0180
3C0180
180180
ENDCHAR
STARTCHAR C2856
ENCODING 10326
SWIDTH 400 0
DWIDTH 24 0
BBX 24 24 0 -2
BITMAP
000000
47000C
661FFC
3C0000
180000
3C0000
6C0000
C60000
860002
067FFF
060630
0F0630
1B0630
130630
230630
430E30
830C30
030C30
031830
071831
063031
7E603F
3CC03F
19800E
ENDCHAR
STARTCHAR C2857
ENCODING 10327
SWIDTH 400 0
DWIDTH 24 0
BBX 24 24 0 -2
BITMAP
0001C0
4701C0
6601C0
3C01C0
1801C2
3C7FFF
6C01C0
C601C0
8601C0
0619CC
0619CC
0F19CC
1B19CC
1319CC
2319CC
4319CC
8319CC
0319CC
0319CC
0731CF
0621C7
7E41C0
3C01C0
180180
ENDCHAR
STARTCHAR C2858
ENCODING 10328
SWIDTH 400 0
DWIDTH 24 0
BBX 24 24 0 -2
BITMAP
000000
470007
667FFF
3C01C0
1801C0
3C01C0
6C01C6
C63FFE
8631C6
0631C6
0631C6
0F31C6
1B31C6
1331C6
2331C6
4331C6
8331C6
0331C6
0331C6
0731FE
0631CC
7E01C0
3C01C0
180180
ENDCHAR
STARTCHAR C2859
ENCODING 10329
SWIDTH 400 0
DWIDTH 24 0
BBX 24 24 0 -2
BITMAP
000000
47000C
663FFE
3C020C
18030C
3C236C
6C3B7C
C6336C
86336C
06336C
06336C
0F336C
1B336C
133FEC
23036C
43030C
83030C
03060C
03060C
07060D
060C0D
7E180F
3C3007
18E003
ENDCHAR
STARTCHAR C285a
ENCODING 10330
SWIDTH 400 0
DWIDTH 24 0
BBX 24 24 0 -2
BITMAP
000000
470038
667FFC
3C0E18
180E18
3C0E18
6C0E18
C60ED8
867FD8
060E18
060E18
0F0E18
1B0E18
130ED8
237FD8
430E18
830E18
030E19
030E19
070E0D
060E0F
7E0E0F
3C0E07
180C00
ENDCHAR
STARTCHAR C285b
ENCODING 10331
SWIDTH 400 0
DWIDTH 24 0
BBX 24 24 0 -2
BITMAP
000000
473007
663FFF
3C3000
183000
3C320E
6C33FF
C63306
863306
063306
063306
0F3306
1B3306
133306
2333FE
43331C
833308
033300
033301
077301
066303
7E63FF
3CC3FF
1981FE
ENDCHAR
STARTCHAR C285c
ENCODING 10332
SWIDTH 400 0
DWIDTH 24 0
BBX 24 24 0 -2
BITMAP
000000
470007
663FFF
3C0060
1800E0
3C00C0
6C0180
C60300
860606
061C0E
06180C
0F1C18
1B0730
1301E0
2300C0
430180
830300
030308
03060C
070C06
0618FF
7E7F83
3C3003
181001
ENDCHAR
STARTCHAR C285d
ENCODING 10333
SWIDTH 400 0
DWIDTH 24 0
BBX 24 24 0 -2
BITMAP
000E00
470E00
660C00
3C0C00
180C06
3C1FFF
6C19C7
C619CC
8631C8
0621C0
0641C0
0F01C0
1B01C0
1301E0
230320
430320
830330
030630
030C18
070C0C
06180E
7E3007
3C6007
19C000
ENDCHAR
STARTCHAR C285e
ENCODING 10334
SWIDTH 400 0
DWIDTH 24 0
BBX 24 24 0 -2
BITMAP
00003E
4733FE
663D8C
3C318C
18318C
3C318C
6C318C
C6318C
86318C
06318C
06318C
0F318C
1B318C
13318C
23318C
43318C
83318C
03718C
03618E
076186
066186
7EC187
3C8183
190103
ENDCHAR
STARTCHAR C285f
ENCODING 10335
SWIDTH 400 0
DWIDTH 24 0
BBX 24 24 0 -2
BITMAP
000E00
000E00
010E00
FF8C06
1C0FFF
1C1800
1C1800
1C3000
1C000E
1C1FFF
7F000C
1C0018
1C0030
1C0060
1C00C0
1C0300
1C0600
1F8C00
FE1801
F01801
603003
003FFF
001FFF
000FFE
ENDCHAR
STARTCHAR C2860
ENCODING 10336
SWIDTH 400 0
DWIDTH 24 0
BBX 24 24 0 -2
BITMAP
000380
000380
010300
FF8300
1C0300
1C0600
1C0E00
1C0C40
1C0C60
1C18E0
7F18C0
1C31C0
1C2180
1C4300
1C0300
1C0700
1C0608
1F8E0C
FE0C0C
F01806
6030FE
007F83
003803
001003
ENDCHAR
STARTCHAR C2861
ENCODING 10337
SWIDTH 400 0
DWIDTH 24 0
BBX 24 24 0 -2
BITMAP
003000
001800
000806
FFFFFF
1C0000
1C0000
1C0000
1C0000
1FFFF8
0FFFFC
000000
00000C
3FFFFE
003800
001800
001800
001830
1FFFF8
001800
001800
001800
001806
FFFFFF
000000
ENDCHAR
STARTCHAR C2862
ENCODING 10338
SWIDTH 400 0
DWIDTH 24 0
BBX 24 24 0 -2
BITMAP
0001C0
0001C0
008180
FFC180
EDC180
ECC184
ECDFFE
ECC186
ECC186
ECC186
EDC186
FFC386
ECC306
ECC306
ECC306
ECC306
ECC606
ECC606
FFCC06
C08C0E
00180C
0031FC
006078
01C030
ENDCHAR
STARTCHAR C2863
ENCODING 10339
SWIDTH 400 0
DWIDTH 24 0
BBX 24 24 0 -2
BITMAP
003800
003800
00301C
7FFFFC
00600C
00E00C
01C00C
03800C
070018
0E0FF8
1801F0
700060
C00008
20001C
3FFFFC
30180C
30180C
30180C
3FFFFC
30180C
30180C
30180C
3FFFFC
200008
ENDCHAR
STARTCHAR C2864
ENCODING 10340
SWIDTH 400 0
DWIDTH 24 0
BBX 24 24 0 -2
BITMAP
001800
001800
20181C
3FFFFC
30180C
30180C
3FFFFC
30180C
30180C
3FFFFC
000000
000070
7FFFF8
1C0030
1C0030
1C0030
1C0070
1C03F0
1C0062
1C0002
1C0006
1FFFFE
0FFFFE
03FFFC
ENDCHAR
STARTCHAR C2865
ENCODING 10341
SWIDTH 400 0
DWIDTH 24 0
BBX 24 24 0 -2
BITMAP
001800
000C00
100606
1FFFFF
180000
980000
D80000
780007
7BFFFF
180300
180300
180300
380300
780300
D80300
580300
300300
300300
300300
300300
600300
600300
C00300
800200
ENDCHAR
STARTCHAR C2866
ENCODING 10342
SWIDTH 400 0
DWIDTH 24 0
BBX 24 24 0 -2
BITMAP
001800
000C00
100606
1FFFFF
180800
980E00
D80C00
780C00
780C00
180E00
180DC0
180CF0
380C38
780C1C
D80C0E
580C06
300C00
300C00
300C00
300C00
600C00
600C00
C00C00
800C00
ENDCHAR
STARTCHAR C2867
ENCODING 10343
SWIDTH 400 0
DWIDTH 24 0
BBX 24 24 0 -2
BITMAP
001800
000C00
100606
1FFFFF
180000
988070
D8FFF8
78C030
78C030
18C030
18C030
18C030
38C030
78C030
D8C030
58C030
30C030
30C030
318030
318031
630031
62003F
C4003F
88000E
ENDCHAR
STARTCHAR C2868
ENCODING 10344
SWIDTH 400 0
DWIDTH 24 0
BBX 24 24 0 -2
BITMAP
001800
000C00
100606
1FFFFF
180060
984070
D87060
786060
786060
186060
186060
186060
386060
786060
D86060
586060
30C060
30C060
30C060
318060
610060
620FE0
C401E0
8000C0
ENDCHAR
STARTCHAR C2869
ENCODING 10345
SWIDTH 400 0
DWIDTH 24 0
BBX 24 24 0 -2
BITMAP
000020
080070
1FFFF8
1CC630
1CC630
1CC632
FFFFFF
000000
000002
FFFFFF
0C0000
0C0000
1C0008
1C001C
1FFFFC
00000C
00000C
00000C
00001C
000018
000038
003FF0
0003E0
0001C0
ENDCHAR
STARTCHAR C286a
ENCODING 10346
SWIDTH 400 0
DWIDTH 24 0
BBX 24 24 0 -2
BITMAP
001800
003800
007C00
00C600
018300
0301E0
0600F8
0C003F
38006F
EFFFF2
0C0070
0C0060
0C0060
0C0060
0FFFE0
0C0060
0C0060
0C0060
0FFFE0
0C0060
0C0060
0C0060
0FFFE0
0C0060
ENDCHAR
STARTCHAR C286b
ENCODING 10347
SWIDTH 400 0
DWIDTH 24 0
BBX 24 24 0 -2
BITMAP
3000E0
3000E0
3000C0
3000C0
2180C0
7F80C0
6C00C0
CC00C7
8C1FFF
0C00C0
0C80C0
FFC0C0
0C00C0
0C00C0
0C00C0
0E00C0
1F00C0
1980C0
1980C0
30C0C0
20C0C0
4000C0
8000C0
0000C0
ENDCHAR
STARTCHAR C286c
ENCODING 10348
SWIDTH 400 0
DWIDTH 24 0
BBX 24 24 0 -2
BITMAP
00000C
00000C
0000CC
1FFFEC
00000C
00000C
00000C
7FFFFC
000008
1C0000
1C0000
1C001C
1FFFFC
101800
201800
401800
003807
FFFFFF
006300
00C1C0
0180F0
07003F
1C000F
F00007
ENDCHAR
STARTCHAR C286d
ENCODING 10349
SWIDTH 400 0
DWIDTH 24 0
BBX 24 24 0 -2
BITMAP
000000
000007
FFFFFF
300000
300000
30000C
37FFFE
300000
300000
30000C
37FFFE
300000
300000
300008
33FFFC
33800C
33800C
33800C
73800C
63800C
63800C
C3FFFC
C3801C
830008
ENDCHAR
STARTCHAR C286e
ENCODING 10350
SWIDTH 400 0
DWIDTH 24 0
BBX 24 24 0 -2
BITMAP
1C0000
1C0000
180030
1FFFF8
180000
180000
180000
1FFFF8
0FFFF8
000000
000000
000018
3FFFFC
000000
000000
000006
FFFFFF
001800
061840
0E1830
1C181C
30180E
601807
801000
ENDCHAR
STARTCHAR C286f
ENCODING 10351
SWIDTH 400 0
DWIDTH 24 0
BBX 24 24 0 -2
BITMAP
030000
0F8004
3C1FFE
4C0806
0C0806
0C8C0E
FFCC0C
0C040C
0C060C
1C061C
1E0218
1D0218
3D8330
3CC330
2C01E0
6C01E0
4C01C0
CC01E0
8C0370
0C0638
0C0C1E
0C180F
0C3007
0DC000
ENDCHAR
STARTCHAR C2870
ENCODING 10352
SWIDTH 400 0
DWIDTH 24 0
BBX 24 24 0 -2
BITMAP
030E00
0F8E00
3C0E00
4C0E00
0C0E00
0C8E00
FFCE00
0C0E00
0C0E06
1C0FFF
1E0E00
1D0E00
3D8E00
3CCE00
2C0E00
6C0E00
4C0E00
CC0E00
8C0E01
0C0E01
0C0E03
0C0FFF
0C07FF
0C03FE
ENDCHAR
STARTCHAR C2871
ENCODING 10353
SWIDTH 400 0
DWIDTH 24 0
BBX 24 24 0 -2
BITMAP
000380
180380
1C0300
080300
00C300
FFC300
000300
01C380
0183E0
418330
21831C
23830E
338307
330303
330301
330300
120300
16E300
0F8300
FC0300
E00300
400300
000300
000300
ENDCHAR
STARTCHAR C2872
ENCODING 10354
SWIDTH 400 0
DWIDTH 24 0
BBX 24 24 0 -2
BITMAP
003000
001800
00181C
3FFFFC
0C0070
060060
0300C0
018180
018306
FFFFFF
000000
0400E0
07FFE0
060060
060060
060060
060060
060060
0E0060
0C0061
1C0061
18007F
30007F
E0003E
ENDCHAR
STARTCHAR C2873
ENCODING 10355
SWIDTH 400 0
DWIDTH 24 0
BBX 24 24 0 -2
BITMAP
000000
60000C
7FFFFE
60000C
60000C
60C04C
60E07C
6CF06C
66C86C
63C4CC
61C3CC
61C18C
61E1CC
6373EC
67367C
6E0C3C
78180C
60100C
60000C
60006C
67FFEC
6000FC
60003C
600018
ENDCHAR
STARTCHAR C2874
ENCODING 10356
SWIDTH 400 0
DWIDTH 24 0
BBX 24 24 0 -2
BITMAP
000008
30001C
3FFFFC
30C30C
31831C
3701FC
3C000C
300000
000060
0FFFF0
00C000
018004
3FFFFE
018000
038000
030060
07FFF0
020070
000060
000060
0000C0
003FC0
000F80
000300
ENDCHAR
STARTCHAR C2875
ENCODING 10357
SWIDTH 400 0
DWIDTH 24 0
BBX 24 24 0 -2
BITMAP
003800
003800
003000
00300C
0031DC
1FFFF8
003060
0030C0
003180
003306
FFFFFF
001C00
003800
007000
00E008
01FFFC
030600
0C0600
180600
600600
800600
000606
1FFFFF
000000
ENDCHAR
STARTCHAR C2876
ENCODING 10358
SWIDTH 400 0
DWIDTH 24 0
BBX 24 24 0 -2
BITMAP
000000
63980C
7F9FFE
63980C
63980C
63980C
73980C
6F980C
67980C
63980C
639FFC
63980C
63980C
679800
7F9800
6B9800
639800
639800
639801
639801
E39803
DF9FFF
870FFF
8607FE
ENDCHAR
STARTCHAR C2877
ENCODING 10359
SWIDTH 400 0
DWIDTH 24 0
BBX 24 24 0 -2
BITMAP
0001C0
6381C0
7F8180
638180
638187
6381FF
738180
6F8180
678190
638FF8
63801C
638030
638060
6780C0
7F8180
6B8300
638600
638C00
639801
639801
E39803
DF9FFF
870FFF
8607FE
ENDCHAR
STARTCHAR C2878
ENCODING 10360
SWIDTH 400 0
DWIDTH 24 0
BBX 24 24 0 -2
BITMAP
000000
638100
7F81C0
638180
638300
638308
73870E
6F861C
678C18
639838
639C30
638F60
6383E0
6780C0
7F80C0
6B8180
638318
63860C
638606
638C3F
E3BFE7
DFBE03
871801
860000
ENDCHAR
STARTCHAR C2879
ENCODING 10361
SWIDTH 400 0
DWIDTH 24 0
BBX 24 24 0 -2
BITMAP
020004
671C07
7F9C86
6318E6
6318C6
6318C6
7318C6
7F18C6
6F18C6
6318C6
6318C6
6318C6
6318C6
6F18C6
7B18C6
7318C6
6318C6
6310C6
6330C6
6330C6
E360C6
DF6006
8EC006
858006
ENDCHAR
STARTCHAR C287a
ENCODING 10362
SWIDTH 400 0
DWIDTH 24 0
BBX 24 24 0 -2
BITMAP
000000
60000C
7FFFFE
60000C
6000CC
67FFEC
60000C
60000C
61038C
63FFCC
63818C
63B98C
63998C
63818C
63858C
63F98C
63718C
63618C
630F8C
66038C
64030C
6800FC
60007C
600018
ENDCHAR
STARTCHAR C287b
ENCODING 10363
SWIDTH 400 0
DWIDTH 24 0
BBX 24 24 0 -2
BITMAP
000000
300038
3FFFFC
300018
300118
33FF98
300018
300018
000000
0FFFF0
0C0070
0C0060
0CF060
0C1E60
0C0E60
0C0060
0C0360
1C3E60
1FE060
198060
188060
100FE0
2001E0
4000C0
ENDCHAR
STARTCHAR C287c
ENCODING 10364
SWIDTH 400 0
DWIDTH 24 0
BBX 24 24 0 -2
BITMAP
000004
30000E
3FFFFE
300E00
300E00
300E00
318E00
318E18
318FFC
31801C
318018
318018
318018
318018
318018
318FF8
318E18
318E00
300E00
300E00
300E00
300E06
3FFFFF
000000
ENDCHAR
STARTCHAR C287d
ENCODING 10365
SWIDTH 400 0
DWIDTH 24 0
BBX 24 24 0 -2
BITMAP
30000C
30000C
301C0C
30180C
30180C
30184C
37FFEC
30300C
30740C
30620C
30C38C
3181EC
3300CC
36000C
30030C
31FF0C
30000C
30008C
33FFCC
30000C
30000C
7FFFFC
20001C
000008
ENDCHAR
STARTCHAR C287e
ENCODING 10366
SWIDTH 400 0
DWIDTH 24 0
BBX 24 24 0 -2
BITMAP
003000
007000
08C070
0FFFF8
0C0030
0C0030
0FFFF0
0C0030
0C0030
0FFFF0
0C0030
0C0030
0FFFF0
0C1C00
001C00
001800
001800
001800
001800
001800
001800
001800
001800
001800
ENDCHAR
STARTCHAR C2921
ENCODING 10529
SWIDTH 400 0
DWIDTH 24 0
BBX 24 24 0 -2
BITMAP
000004
00000E
7FFFFE
006000
00C080
0180E0
030070
060038
0C07FC
3FFE0C
1C100C
081C04
001800
00380C
3FFFFC
001800
001800
001810
1FFFF8
001800
001800
001800
003807
FFFFFF
ENDCHAR
STARTCHAR C2922
ENCODING 10530
SWIDTH 400 0
DWIDTH 24 0
BBX 24 24 0 -2
BITMAP
0700E0
0700E0
0660C2
FFE7FF
0600C0
0600C0
00000C
7FFFFE
00300E
00300C
00300C
08300C
06700C
03F00C
01F00C
00E00C
00600C
00C00C
01C00C
03801C
070038
0E07F0
1800E0
600040
ENDCHAR
STARTCHAR C2923
ENCODING 10531
SWIDTH 400 0
DWIDTH 24 0
BBX 24 24 0 -2
BITMAP
0380E0
0380E0
0320C2
FFE7FF
0300C0
0300C0
000000
03C1E0
0381C0
0381C0
0381C0
0381C2
FFFFFF
0381C0
0381C0
0301C0
0301C0
0601C0
0601C0
0401C0
0C01C0
1801C0
3001C0
600180
ENDCHAR
STARTCHAR C2924
ENCODING 10532
SWIDTH 400 0
DWIDTH 24 0
BBX 24 24 0 -2
BITMAP
0700E0
0700E0
0660C2
FFE7FF
0600C0
0620C0
003800
003030
003FF8
003000
003060
3FFFF0
000070
000060
000060
000060
000060
000030
000030
000031
00001B
00001E
00000E
000007
ENDCHAR
STARTCHAR C2925
ENCODING 10533
SWIDTH 400 0
DWIDTH 24 0
BBX 24 24 0 -2
BITMAP
0700E0
0700E0
0600C2
FFE7FF
0700C0
0600C0
060080
000F00
080E00
0E0E00
0C0E00
0C0E00
0C0E00
0C0F00
0C1D80
0C18C0
0C3060
0C603C
0CC01C
0D0008
0E0000
0FFFFE
07FFFE
000000
ENDCHAR
STARTCHAR C2926
ENCODING 10534
SWIDTH 400 0
DWIDTH 24 0
BBX 24 24 0 -2
BITMAP
0700E0
0700E0
0660C2
FFE7FF
0610C0
0638C0
003C00
006600
00C300
018180
03C0C0
06E078
1CC03F
30C00E
E18040
01FFE0
0180E0
000060
000060
000060
000060
003FC0
0007C0
000380
ENDCHAR
STARTCHAR C2927
ENCODING 10535
SWIDTH 400 0
DWIDTH 24 0
BBX 24 24 0 -2
BITMAP
0700E0
0700E0
0600C2
FFFFFF
0700C0
0600C0
0660C0
003000
003800
001800
000038
1FFFF8
0000F0
0001C0
000700
000C00
003800
00E000
038000
1E0000
7F0000
F1FFFF
607FFC
001FF8
ENDCHAR
STARTCHAR C2928
ENCODING 10536
SWIDTH 400 0
DWIDTH 24 0
BBX 24 24 0 -2
BITMAP
0700E0
0700E0
0600C2
FFFFFF
0700C0
0600C0
0600C0
030400
038E00
030E00
030E00
060E00
060E06
0E0FFE
1E0E00
160E00
260E00
460E00
060E01
060E01
060E03
060FFF
0607FF
0403FE
ENDCHAR
STARTCHAR C2929
ENCODING 10537
SWIDTH 400 0
DWIDTH 24 0
BBX 24 24 0 -2
BITMAP
000000
200F00
380E00
300E00
300E00
310E20
31FFF0
318E30
318E30
318E30
318E30
318E30
31FFF0
318E20
300E60
300E30
300E18
37FFFC
37E00C
33000C
300000
3FFFFE
1FFFFE
000000
ENDCHAR
STARTCHAR C292a
ENCODING 10538
SWIDTH 400 0
DWIDTH 24 0
BBX 24 24 0 -2
BITMAP
000000
000300
3FFF80
000E00
001800
00F000
01E000
031038
0C3878
707CC0
00CF80
018600
070E00
1C1F00
703780
0066C0
00C660
018638
06061F
38060F
E00E06
03FC00
007800
003000
ENDCHAR
STARTCHAR C292b
ENCODING 10539
SWIDTH 400 0
DWIDTH 24 0
BBX 24 24 0 -2
BITMAP
006000
003000
001808
3FFFFC
000080
0400E0
0600E0
0301C0
018180
01C300
00C638
1FFFF8
001800
001800
001800
001806
FFFFFF
001800
001800
001800
001800
001800
001800
001000
ENDCHAR
STARTCHAR C292c
ENCODING 10540
SWIDTH 400 0
DWIDTH 24 0
BBX 24 24 0 -2
BITMAP
000000
30000C
3FFFFC
300000
300000
300010
3FFFF8
380000
300000
300000
30000C
3FFFFE
301840
301840
321840
339840
331860
331860
331830
631838
631F1C
C3F80F
878007
030003
ENDCHAR
STARTCHAR C292d
ENCODING 10541
SWIDTH 400 0
DWIDTH 24 0
BBX 24 24 0 -2
BITMAP
000380
000380
600300
300300
300300
100300
000300
18038C
FC7FFC
1C0300
300300
300300
740300
7E0300
0C0302
0CFFFF
0C0000
180000
180000
300000
7E0000
CFFFFF
00FFFC
003FF8
ENDCHAR
STARTCHAR C292e
ENCODING 10542
SWIDTH 400 0
DWIDTH 24 0
BBX 24 24 0 -2
BITMAP
001870
001870
301860
181860
0C1860
001860
00FFFE
0C3870
FE1860
1E1860
181860
381860
3618C0
7F1980
261B04
061804
0C180C
0C1FFC
180FFC
380000
7E0000
E7FFFF
00FFFF
001FFC
ENDCHAR
STARTCHAR C292f
ENCODING 10543
SWIDTH 400 0
DWIDTH 24 0
BBX 24 24 0 -2
BITMAP
000700
000700
600600
300670
3007F8
10FF00
000600
180600
FC0600
1C0618
31FFFC
300600
740600
7E0600
0C0604
0C0604
0C060C
1807FC
1803FC
300000
7E0000
CFFFFF
00FFFC
003FF8
ENDCHAR
STARTCHAR C2930
ENCODING 10544
SWIDTH 400 0
DWIDTH 24 0
BBX 24 24 0 -2
BITMAP
000000
0C0060
0FFFF0
0C0060
0C0060
0C0060
0FFFE0
0C0060
000000
100030
1FFFF8
181838
181838
181838
181838
1FFFF8
000038
000038
000038
200038
300038
1FFFF8
3FFFF0
1FFFE0
ENDCHAR
STARTCHAR C2931
ENCODING 10545
SWIDTH 400 0
DWIDTH 24 0
BBX 24 24 0 -2
BITMAP
01C000
F1C1C7
E181FF
E181C6
E181CC
E181CC
E181D8
E181D0
E581D0
FFFDC8
E181C4
E181C6
E181C7
E181C3
E181C3
E181C3
E181C3
E181FF
E181DE
E783CC
ED87C0
F9FDC0
70FDC0
607980
ENDCHAR
STARTCHAR C2932
ENCODING 10546
SWIDTH 400 0
DWIDTH 24 0
BBX 24 24 0 -2
BITMAP
118000
18C1C7
1861FF
3031C6
3039CC
601DCC
4019D8
8061D0
3FF1D0
3071C8
3071C4
3071C6
3071C7
3071C3
3071C3
3071C3
3071C3
3071FF
3071DE
307DCC
2079C0
6031C0
C001C0
800180
ENDCHAR
STARTCHAR C2933
ENCODING 10547
SWIDTH 400 0
DWIDTH 24 0
BBX 24 24 0 -2
BITMAP
000000
3071C7
3FF9FF
3031C6
3031CC
3031CC
3031D8
383DD0
7FFDD0
3031C8
3031C4
3031C6
3031C7
383FC3
FFFFC3
3031C3
3031C3
3031FF
3031DE
3031CC
3031C0
63F1C0
60F1C0
C06180
ENDCHAR
STARTCHAR C2934
ENCODING 10548
SWIDTH 400 0
DWIDTH 24 0
BBX 24 24 0 -2
BITMAP
000000
0C0038
0FFFF8
0C40E0
0C60C0
0C60C0
0C30C0
0C31C0
0C3180
0C1980
0C1B00
0C1B00
0C1E06
FFFFFF
000600
00C300
00C100
018180
0300C0
060060
0C0038
18001F
30000F
E00007
ENDCHAR
STARTCHAR C2935
ENCODING 10549
SWIDTH 400 0
DWIDTH 24 0
BBX 24 24 0 -2
BITMAP
000008
63801C
7F9FFC
630038
630030
620760
6603C0
6401C0
6400C6
66FFFF
6301C6
6301CC
6181C8
6181C0
6181C0
6181C0
6381C0
7F81C0
6301C0
6001C0
6001C0
601FC0
600780
600300
ENDCHAR
STARTCHAR C2936
ENCODING 10550
SWIDTH 400 0
DWIDTH 24 0
BBX 24 24 0 -2
BITMAP
000000
004006
FFE7FF
000000
000000
000000
60C60C
7FE7FE
60E60E
60C60C
60C60C
60C60C
62C62C
6FC6FC
60C60C
60C60C
60C60C
60C60C
60C60C
60C60C
60C60C
67C67C
63C63C
618618
ENDCHAR
STARTCHAR C2937
ENCODING 10551
SWIDTH 400 0
DWIDTH 24 0
BBX 24 24 0 -2
BITMAP
000000
000007
FFFFFF
001800
001800
30181C
3FFFFC
30300C
30340C
30660C
30C38C
3191CC
3318EC
3C180C
303C0C
30360C
30630C
30C18C
3180CC
36006C
34000C
3FFFFC
30001C
200008
ENDCHAR
STARTCHAR C2938
ENCODING 10552
SWIDTH 400 0
DWIDTH 24 0
BBX 24 24 0 -2
BITMAP
000000
000007
FFFFFF
038180
078060
0E0030
180018
30000C
400000
200018
3FFFFC
30010C
31018C
30C30C
30660C
303C0C
303E0C
30770C
30C38C
3181CC
36000C
30000C
3FFFFC
200008
ENDCHAR
STARTCHAR C2939
ENCODING 10553
SWIDTH 400 0
DWIDTH 24 0
BBX 24 24 0 -2
BITMAP
0600E0
0600E0
0600C0
0600C0
0600C0
0680C0
FFCFFE
0E00C0
0600C0
0600C0
0E00E0
0F01E0
0D01A0
1D81A0
1D83B0
188310
18C318
30C658
3EC7EC
300C0C
601C06
C03807
807003
00C000
ENDCHAR
STARTCHAR C293a
ENCODING 10554
SWIDTH 400 0
DWIDTH 24 0
BBX 24 24 0 -2
BITMAP
0001F8
001FF8
3FFE00
001860
061860
0318C0
01990C
7FFFFE
003C00
007F00
00D9E0
031878
0E181C
30180C
EFFFF0
000030
000030
000030
000030
000030
000030
0007F0
0001E0
000040
ENDCHAR
STARTCHAR C293b
ENCODING 10555
SWIDTH 400 0
DWIDTH 24 0
BBX 24 24 0 -2
BITMAP
001800
001800
001800
1FF800
001800
001800
1FF800
001800
30181C
3FFFFC
30180C
30180C
3FFFFC
303808
201800
001FF0
001800
001800
001FF0
001800
001800
001800
001800
001000
ENDCHAR
STARTCHAR C293c
ENCODING 10556
SWIDTH 400 0
DWIDTH 24 0
BBX 24 24 0 -2
BITMAP
000060
0003F8
01FFF8
3F1800
001800
001802
FFFFFF
003800
101820
0C1830
061860
0218C8
3FFFFC
003800
007C00
007E00
00FB00
0199C0
0318E0
06183C
1C181F
301807
C01800
001000
ENDCHAR
STARTCHAR C293d
ENCODING 10557
SWIDTH 400 0
DWIDTH 24 0
BBX 24 24 0 -2
BITMAP
007000
007000
08E070
0FFFF8
0C0030
0C0030
0C0030
0FFFF0
0C0020
0C0000
0C000C
0FFFFC
0C0000
0C0006
0FFFFF
0C0207
000387
000307
3FFF07
000E07
001C06
0038FE
00703C
004018
ENDCHAR
STARTCHAR C293e
ENCODING 10558
SWIDTH 400 0
DWIDTH 24 0
BBX 24 24 0 -2
BITMAP
000000
01E01E
6FE6FE
780780
600600
600600
600600
600600
600600
600600
60C60C
7FC7FC
600600
600600
600600
600600
600600
600600
600600
600600
606602
7FE7FF
600600
000000
ENDCHAR
ENDFONT
